<?xml version="1.0" encoding="UTF-8" standalone="no"?>
<svg
   xmlns:dc="http://purl.org/dc/elements/1.1/"
   xmlns:cc="http://creativecommons.org/ns#"
   xmlns:rdf="http://www.w3.org/1999/02/22-rdf-syntax-ns#"
   xmlns:svg="http://www.w3.org/2000/svg"
   xmlns="http://www.w3.org/2000/svg"
   xmlns:sodipodi="http://sodipodi.sourceforge.net/DTD/sodipodi-0.dtd"
   xmlns:inkscape="http://www.inkscape.org/namespaces/inkscape"
   version="1.1"
   id="svg2"
   xml:space="preserve"
   width="921.33331"
   height="844.26666"
   viewBox="0 0 921.33331 844.26666"
   sodipodi:docname="reshot-illustration-doctors-working-8SAYHQJBZL.eps"><metadata
     id="metadata8"><rdf:RDF><cc:Work
         rdf:about=""><dc:format>image/svg+xml</dc:format><dc:type
           rdf:resource="http://purl.org/dc/dcmitype/StillImage" /></cc:Work></rdf:RDF></metadata><defs
     id="defs6"><clipPath
       clipPathUnits="userSpaceOnUse"
       id="clipPath108"><path
         d="m 5311.9,3540.3 100,-300.9 591.9,-140 c 0,0 52.4,462.5 -20,770.8 l 245.3,774 c 0,0 208.6,545.6 -132,571.5 -48,3.7 -97,7.2 -145.8,10.7 -69,4.8 -197.6,-193.1 -228.6,-250 -33.2,-60.8 -248.6,-612.8 -248.6,-612.8 z"
         id="path106" /></clipPath><linearGradient
       x1="0"
       y1="0"
       x2="1"
       y2="0"
       gradientUnits="userSpaceOnUse"
       gradientTransform="matrix(359.93,-127.234,127.234,359.93,5474.85,4331.31)"
       spreadMethod="pad"
       id="linearGradient114"><stop
         style="stop-opacity:1;stop-color:#d5dded"
         offset="0"
         id="stop110" /><stop
         style="stop-opacity:1;stop-color:#dfeaf5"
         offset="1"
         id="stop112" /></linearGradient><clipPath
       clipPathUnits="userSpaceOnUse"
       id="clipPath196"><path
         d="m 4881.5,4060.3 -179.2,768.6 -28.5,427.3 c 12.5,16.66 30.62,28.21 51,32.5 l 13.6,2.7 c 52.8,10 103.4,-38.7 113.3,-109 l 263.4,-1126.2 z"
         id="path194" /></clipPath><linearGradient
       x1="0"
       y1="0"
       x2="1"
       y2="0"
       gradientUnits="userSpaceOnUse"
       gradientTransform="matrix(-582.916,164.865,105.985,765.445,5316.37,4536.68)"
       spreadMethod="pad"
       id="linearGradient202"><stop
         style="stop-opacity:1;stop-color:#d5dded"
         offset="0"
         id="stop198" /><stop
         style="stop-opacity:1;stop-color:#dfeaf5"
         offset="1"
         id="stop200" /></linearGradient><clipPath
       clipPathUnits="userSpaceOnUse"
       id="clipPath220"><path
         d="m 4023.9,5328.9 186.6,-3.7 c 0,0 101.7,-586.6 101.7,-758.6 0,-172 -117.3,-641.2 -110,-860 7.3,-218.8 7.8,-782.1 7.8,-782.1 l -469.2,62.6 c 0,0 78.2,774.2 203.3,1196.5 100.4,336.8 79.8,1145.3 79.8,1145.3 z"
         id="path218" /></clipPath><linearGradient
       x1="0"
       y1="0"
       x2="1"
       y2="0"
       gradientUnits="userSpaceOnUse"
       gradientTransform="matrix(-571.4,0,0,571.4,4312.2,4126.7)"
       spreadMethod="pad"
       id="linearGradient226"><stop
         style="stop-opacity:1;stop-color:#d5dded"
         offset="0"
         id="stop222" /><stop
         style="stop-opacity:1;stop-color:#dfeaf5"
         offset="1"
         id="stop224" /></linearGradient><clipPath
       clipPathUnits="userSpaceOnUse"
       id="clipPath238"><path
         d="m 4523.3,5286.1 191.1,-25.2 c 0,0 -26.8,-561.3 -34.6,-725.6 -7.8,-164.3 86,-461.4 140.7,-656.9 96.1,-342.9 258.1,-844.6 258.1,-844.6 0,0 -383.2,-86 -602.2,-109.5 -24.6,-2.6 -54.7,258.1 -46.9,1055.8 7.8,797.7 93.8,1306 93.8,1306 z"
         id="path236" /></clipPath><linearGradient
       x1="0"
       y1="0"
       x2="1"
       y2="0"
       gradientUnits="userSpaceOnUse"
       gradientTransform="matrix(-650.356,0,0,650.356,5078.6,4105.19)"
       spreadMethod="pad"
       id="linearGradient244"><stop
         style="stop-opacity:1;stop-color:#d5dded"
         offset="0"
         id="stop240" /><stop
         style="stop-opacity:1;stop-color:#dfeaf5"
         offset="1"
         id="stop242" /></linearGradient><clipPath
       clipPathUnits="userSpaceOnUse"
       id="clipPath272"><path
         d="m 4927.8,3524.1 c 0,0 146,-11.1 159,48.8 13,59.9 90.7,543.6 21.8,628 -68.9,84.4 -176.6,-10.7 -200,-36.5 -23.4,-25.8 19.2,-640.3 19.2,-640.3 z"
         id="path270" /></clipPath><linearGradient
       x1="0"
       y1="0"
       x2="1"
       y2="0"
       gradientUnits="userSpaceOnUse"
       gradientTransform="matrix(-383.706,204.099,-208.181,-387.788,5050.8,3849.74)"
       spreadMethod="pad"
       id="linearGradient278"><stop
         style="stop-opacity:1;stop-color:#d5dded"
         offset="0"
         id="stop274" /><stop
         style="stop-opacity:1;stop-color:#dfeaf5"
         offset="1"
         id="stop276" /></linearGradient></defs><sodipodi:namedview
     pagecolor="#ffffff"
     bordercolor="#666666"
     borderopacity="1"
     objecttolerance="10"
     gridtolerance="10"
     guidetolerance="10"
     inkscape:pageopacity="0"
     inkscape:pageshadow="2"
     inkscape:window-width="640"
     inkscape:window-height="480"
     id="namedview4" /><g
     id="g10"
     inkscape:groupmode="layer"
     inkscape:label="ink_ext_XXXXXX"
     transform="matrix(1.3333333,0,0,-1.3333333,0,844.26667)"><g
       id="g12"
       transform="scale(0.1)"><path
         d="M 1060,4206.4 374,4188.8 221.402,3455.9 c 0,0 773.996,-23.5 920.598,64.5 146.6,88 -82,686 -82,686"
         style="fill:#d9f0fb;fill-opacity:1;fill-rule:nonzero;stroke:none"
         id="path14" /><path
         d="m 1127,4824.8 c 133.5,-112.3 290.8,-676.1 290.8,-676.1 0,0 72.2,-376.7 -327.8,459.8 -99.199,207.4 4,243.5 37,216.3"
         style="fill:#e9d5ae;fill-opacity:1;fill-rule:nonzero;stroke:none"
         id="path16" /><path
         d="m 1477.9,3628.7 37.8,65.3 15.3,60 -13.7,99.1 c 0,0 -27.4,103.1 -51.8,138.2 -24.4,35.1 -54.2,190 -64.1,207.9 -9.9,17.9 -114.8,58.3 -114.8,58.3 0,0 80,-189.2 105.7,-251.5 25.7,-62.3 31.4,-163.8 40.5,-188.6 9.81,-26.11 23.27,-50.68 40,-73 0,0 -12.4,70 -17.8,87.6 -5.4,17.6 17.5,14.5 17.5,14.5 0,0 27.1,-94 23.8,-121.4 -2.37,-17.64 -7.72,-34.75 -15.8,-50.6 l -2.6,-45.8"
         style="fill:#e9d5ae;fill-opacity:1;fill-rule:nonzero;stroke:none"
         id="path18" /><path
         d="m 937.898,5174.5 178.602,-803.1 5.8,-47.2 231.1,42.4 c -164,462.5 -199.3,554 -213.3,641.3 -5.1,31.8 -43.2,292.5 -45.7,340 -2.5,47.5 -15.3,176.3 -167.099,243.1 -144.703,63.7 10.597,-416.5 10.597,-416.5"
         style="fill:#edf9fe;fill-opacity:1;fill-rule:nonzero;stroke:none"
         id="path20" /><path
         d="m 452.301,5680.5 c 0,-176.4 146.097,-319.4 326.297,-319.4 180.203,0 326.202,143 326.202,319.4 0,176.4 -145.999,319.5 -326.202,319.5 -180.2,0 -326.297,-143.1 -326.297,-319.5"
         style="fill:#1f3b57;fill-opacity:1;fill-rule:nonzero;stroke:none"
         id="path22" /><path
         d="m 712.699,1379.3 -3.301,-390.8 c 0,0 139.301,-170 190,-197.102 50.7,-27.097 44.102,-3.398 40.801,10 -3.301,13.403 -88.398,112.102 -102,166.504 -13.597,54.398 17,387.398 13.602,404.398 -3.403,17 -139.102,7 -139.102,7"
         style="fill:#e9d5ae;fill-opacity:1;fill-rule:nonzero;stroke:none"
         id="path24" /><path
         d="m 345.699,1338.5 c 0,0 -50.898,-220.9 -54.398,-295.7 -3.504,-74.8 10,-98.499 -10,-122.3 C 261.301,896.699 117.996,709.801 84,709.801 65.6133,709.41 50.3906,724 50,742.379 c -0.0117,0.48 -0.0117,0.953 0,1.422 0,0 112.102,142.699 129.102,197.101 16.996,54.399 20,356.798 20,387.398 0,30.6 146.597,10.2 146.597,10.2"
         style="fill:#e9d5ae;fill-opacity:1;fill-rule:nonzero;stroke:none"
         id="path26" /><path
         d="m 295.898,4781.2 c 0,0 54.801,-7 26,-300 -28.796,-293 -136.996,-718 -136.996,-718 l 8.797,682.8 c 0,0 14.699,260.5 102.199,335.2"
         style="fill:#e9d5ae;fill-opacity:1;fill-rule:nonzero;stroke:none"
         id="path28" /><path
         d="M 755.801,4084.5 733.102,2679.8 687.797,1334 l 199.406,-9.1 c 0,0 139.997,1359.4 158.597,1477.2 18.6,117.8 222,1064.9 104.2,1300 -117.8,235.1 -394.199,-17.6 -394.199,-17.6"
         style="fill:#234465;fill-opacity:1;fill-rule:nonzero;stroke:none"
         id="path30" /><path
         d="m 1150,4102.6 c 3.82,-7.65 7.16,-15.53 10,-23.6 -127.7,-198.5 -247.996,-366.2 -275.602,-409 -15.8,-24.6 -68.5,-114 -139,-235.1 l 10,650 c 0,0 276.802,253.3 394.602,17.7"
         style="fill:#1f3b57;fill-opacity:1;fill-rule:nonzero;stroke:none"
         id="path32" /><path
         d="m 293.598,4116.2 c 0,0 -58.895,-598.1 -58.895,-1006 0,-407.9 -40.801,-1600 -40.801,-1600 V 1302 l 154.094,4.5 240,1522.5 L 787.5,4116.2 H 293.598"
         style="fill:#234465;fill-opacity:1;fill-rule:nonzero;stroke:none"
         id="path34" /><path
         d="m 221.098,5695.3 c 0,-176.4 146.105,-319.4 326.304,-319.4 180.196,0 326.196,143 326.196,319.4 0,176.4 -146.098,319.5 -326.196,319.5 -180.101,0 -326.304,-142.8 -326.304,-319.5"
         style="fill:#1f3b57;fill-opacity:1;fill-rule:nonzero;stroke:none"
         id="path36" /><path
         d="m 447.699,6027.3 c 0,-168.3 127.797,-305.3 285.403,-305.3 157.597,0 285.498,136.5 285.498,304.8 0,168.3 -127.799,305.2 -285.498,305.2 -157.704,0 -285.403,-136.4 -285.403,-304.7"
         style="fill:#1f3b57;fill-opacity:1;fill-rule:nonzero;stroke:none"
         id="path38" /><path
         d="m 782.996,5937.8 c 0,0 -27.195,-163.2 -4.496,-208.5 22.699,-45.3 176.699,-149.5 199.297,-181.2 22.603,-31.7 -45.297,-276.4 -267.301,-240 -221.996,36.4 -421.394,176.5 -421.394,212.8 0,36.3 4.496,72.5 76.996,100 72.5,27.5 190,45.3 222.004,81.5 31.996,36.2 72.5,126.9 50,222.1 -22.5,95.2 144.894,13.3 144.894,13.3"
         style="fill:#e9d5ae;fill-opacity:1;fill-rule:nonzero;stroke:none"
         id="path40" /><path
         d="M 400,5178.8 321.801,4359.7 V 4312 l -234.3987,13.8 c 0,0 67.9957,632.1 78.1997,662.7 10.199,30.6 34.398,295.6 30.597,343.5 -3.797,47.9 6.797,285.5 163.102,261.7 C 515.602,5569.9 400,5178.8 400,5178.8"
         style="fill:#edf9fe;fill-opacity:1;fill-rule:nonzero;stroke:none"
         id="path42" /><path
         d="m 662.203,6262.8 c 4.672,1.31 9.414,2.38 14.199,3.2 9.899,-56 54.399,-122.3 123.598,-174 16.246,-12.2 33.355,-23.19 51.199,-32.9 v -52.5 c 0,-77.9 -66,-141 -147.297,-141 -81.304,0 -147.3,63.1 -147.3,141 v 118.1 c 40.199,27.3 79,75.8 105.601,138.1"
         style="fill:#e9d5ae;fill-opacity:1;fill-rule:nonzero;stroke:none"
         id="path44" /><path
         d="M 355.898,4067.5 H 1086.6 L 981.098,4686.8 1005,5413.3 c 0,0 -135.898,-52.4 -254.902,-60 -77.996,-4.9 -244.7,60 -244.7,60 l -149.5,-1345.8"
         style="fill:#9dd1f2;fill-opacity:1;fill-rule:nonzero;stroke:none"
         id="path46" /><path
         d="m 179,3753.6 c 0,0 17.301,-108.5 28.797,-128.2 8.101,-13.6 56.504,-71.6 56.504,-71.6 0,0 -3.203,40 -21.305,64.8 -18.094,24.8 -63.996,135 -63.996,135"
         style="fill:#e9d5ae;fill-opacity:1;fill-rule:nonzero;stroke:none"
         id="path48" /><path
         d="m 1043.5,5498.2 c 0,0 -22.6,-448.5 -9,-611.7 13.6,-163.2 98.8,-460 138.8,-785.6 26.2,-213.7 24,-580 24,-580 0,0 -58.9,-36.2 -90.6,-40.8 -31.7,-4.6 -92.2,26 -113.2,135.9 -26.098,136 -92.602,1100 -108.598,1184.3 -22.601,120 -6.304,467.4 -8.703,516.2 -1.801,34.7 -24.699,178.7 -15.703,215 9.008,36.3 1.805,116.2 1.805,116.2 0,0 144.999,-63.4 181.199,-149.5"
         style="fill:#d9f0fb;fill-opacity:1;fill-rule:nonzero;stroke:none"
         id="path50" /><path
         d="m 536.098,5676.2 c 0,0 23.902,-52.2 50.906,-65.8 26.996,-13.6 13.598,-163.1 0,-183.5 -13.606,-20.4 -37.402,-479.2 -40.805,-588 -3.402,-108.8 -60,-1090 -76.496,-1168 -16.504,-78 -6.906,-170 -88.402,-200.5 -81.5,-30.5 -183.504,-30.6 -183.504,-30.6 0,0 83.301,821.4 103.703,913.2 20.398,91.8 85,312.6 91.801,451.9 6.797,139.3 -13.598,350 -20,462.3 -6.403,112.3 -68.004,292.2 -74.801,312.6 -6.801,20.4 210.402,86.2 237.598,96.4"
         style="fill:#d9f0fb;fill-opacity:1;fill-rule:nonzero;stroke:none"
         id="path52" /><path
         d="m 705.898,1008.9 c -8.109,-14.99 -11.589,-32.041 -10,-49.002 3.204,-20 20,-80 20,-80 L 753.199,863 v 27.102 c 0,0 68,-81.5 102,-105.301 34,-23.801 105.199,-83 146.101,-68 6.93,3.25 11.96,9.531 13.6,17 0,0 -64.603,71.398 -74.701,81.601 -10.101,10.2 -34,-10 -61.199,6.797 -27.199,16.801 -104.898,91.203 -125.801,115.5 -18.125,22.071 -33.976,45.93 -47.301,71.201"
         style="fill:#1a1915;fill-opacity:1;fill-rule:nonzero;stroke:none"
         id="path54" /><path
         d="m 292.5,972 c 4.469,-16.469 5.789,-33.641 3.902,-50.602 -4.172,-18.308 -10.371,-36.078 -18.504,-52.996 l -34.097,-19.3 c 0,0 -63.801,-79.204 -95.403,-103 -31.597,-23.801 -97.7964,-83.102 -135.8003,-68 -6.54301,3.48 -11.17192,9.718 -12.5977,17 0,0 60,71.296 70,81.5 10,10.199 31.5,-10 56.801,6.8 25.301,16.797 97.398,91.297 116.797,115.598 17.781,23.309 34.105,47.691 48.902,73"
         style="fill:#1a1915;fill-opacity:1;fill-rule:nonzero;stroke:none"
         id="path56" /><path
         d="m 236.699,3992 c -15.898,-139.4 40.703,-205.9 54.102,-263.3 9.914,-39.26 22.168,-77.9 36.699,-115.7 -50.602,36.9 -47.102,82.1 -62.102,106.5 -15,24.4 -6.8,17.6 -15.796,-31.6 -5.204,-28 34.398,-82.5 55.398,-120.9 18.102,-33.2 17.699,-52.8 17.699,-52.8 -27.238,27.87 -51.601,58.43 -72.699,91.2 -29.504,47.08 -53.461,97.42 -71.402,150 -7.196,30.9 0.504,124.4 16.105,190 17.098,73.7 53.399,147.3 41.996,46.6"
         style="fill:#e9d5ae;fill-opacity:1;fill-rule:nonzero;stroke:none"
         id="path58" /><path
         d="m 821.5,5684 c 0,0 -4,-50.8 15.602,-215 15.496,-130 35.199,-129 31.296,-351.8 -3.894,-222.8 46.899,-512.1 46.899,-512.1 0,0 13.402,505.6 27.301,645 7.898,78.2 7.898,172 7.898,172 l -78.195,66.5 74.199,-23.5 c -9.914,30.7 -17.73,62.04 -23.398,93.8 -5.637,30.96 -14.832,61.16 -27.403,90 L 821.5,5684"
         style="fill:#edf9fe;fill-opacity:1;fill-rule:nonzero;stroke:none"
         id="path60" /><path
         d="m 580,5702 -67.699,-33.7 -3.903,-148.6 46.899,-3.9 -54.695,-35.2 31.296,-867.8 c 0,0 11.7,31.3 15.602,261.9 3.902,230.6 31.301,500 54.703,633.3 L 580,5702"
         style="fill:#edf9fe;fill-opacity:1;fill-rule:nonzero;stroke:none"
         id="path62" /><path
         d="M 6545.9,665 6557,536.102 6580.6,429 l 43.4,-28.699 32.6,-10 9.4,-18.199 112.6,-74.5 c 39.74,-16.161 83.69,-18.821 125.1,-7.602 17.8,4.289 -6.9,52.5 -13.09,60 -27.9,31.262 -57.98,60.5 -90,87.5 L 6712.71,545.699 6613.4,681 6545.9,665"
         style="fill:#1a1915;fill-opacity:1;fill-rule:nonzero;stroke:none"
         id="path64" /><path
         d="m 5542.4,805.102 28.2,-51.7 15.2,-58.203 -2,-92.699 -50,-7.398 -37.9,7.898 -24.7,-17.398 c 0,0 -141.9,-28.301 -195.2,-30 -88.3,-3 -136.8,5.898 -154.2,23 -10,10 31.4,28.296 45,30 78.5,12.3 161,62.699 161,62.699 l 64.5,73.301 12.4,51.699 137.7,8.801"
         style="fill:#1a1915;fill-opacity:1;fill-rule:nonzero;stroke:none"
         id="path66" /><path
         d="M 5938.2,3612.6 6751.4,551 6544.8,537.902 6150.2,1511.9 l -95.6,293.7 -469.1,1152.4 -90.4,633.8 443.1,20.8"
         style="fill:#274fa6;fill-opacity:1;fill-rule:nonzero;stroke:none"
         id="path68" /><path
         d="m 5581.4,795.801 -58.3,1176.999 51.3,539.3 62.3,740.3 -94.3,495.5 -323,-51.7 -36.5,-798.2 20.1,-757.1 15.9,-285.2 121.9,-1123.399 240.6,63.5"
         style="fill:#274fa6;fill-opacity:1;fill-rule:nonzero;stroke:none"
         id="path70" /><path
         d="m 6067.4,3259.4 115.9,56.4 14.1,13.3 -14.3,25.8 -24.9,-1.7 8.5,73.1 -116.7,27.4 -58.8,31.6 44.8,-201.8"
         style="fill:#e9d5ae;fill-opacity:1;fill-rule:nonzero;stroke:none"
         id="path72" /><path
         d="M 6428.1,3966.7 5994,3494 c 0,0 10.7,-72.9 45.4,-36.4 4.2,4.3 -14.6,20 10.8,32.1 103.1,49.1 342.3,120 434,199.3 77.62,68.99 147.62,146.09 208.8,230 l -264.9,47.7"
         style="fill:#e9d5ae;fill-opacity:1;fill-rule:nonzero;stroke:none"
         id="path74" /><path
         d="m 4735,4722 c 0,0 -191.7,-9.4 -481.8,204.1 -98,72 -36.8,-17.1 3.7,-127.7 40.5,-110.6 291.1,-242 538.2,-248.5 247.1,-6.5 -60.1,172.1 -60.1,172.1"
         style="fill:#e9d5ae;fill-opacity:1;fill-rule:nonzero;stroke:none"
         id="path76" /><path
         d="m 4288.5,4860.2 c 0,0 6.3,130.6 -20,156.5 -26.3,25.9 -126.9,113.8 -126.9,113.8 l -27.7,20 c 0,0 -36.5,-20 32,-77.9 68.5,-57.9 21.1,-48.9 21.1,-48.9 l -80,28.4 -100,26.8 -43.3,17.9 c 0,0 -24,12 -31.8,10 -22.6,-6.4 -9,-22.7 -9,-22.7 l 163.4,-84.6 -169.2,35 c 0,0 -22.2,0.7 -26.4,-10.8 -4.2,-11.5 3.1,-12.8 3.1,-12.8 l 184.3,-87.4 -88.9,7.7 c 0,0 -21.8,0 -26.4,-11 -4.6,-11 -6.6,-15.1 -6.6,-15.1 l 340,-80 12.3,35.1"
         style="fill:#e9d5ae;fill-opacity:1;fill-rule:nonzero;stroke:none"
         id="path78" /><path
         d="m 4223.5,4779.82 102.84,123.74 99.59,-82.77 -102.84,-123.75 -99.59,82.78"
         style="fill:#ffffff;fill-opacity:1;fill-rule:nonzero;stroke:none"
         id="path80" /><path
         d="m 6086.03,3614.24 115.97,111.53 101.13,-105.16 -115.97,-111.53 -101.13,105.16"
         style="fill:#ecf8fe;fill-opacity:1;fill-rule:nonzero;stroke:none"
         id="path82" /><path
         d="m 4050.5,4969.9 -120,17.2 c 0,0 -26.6,7 -40.6,2.1 -8.86,-2.55 -13.98,-11.79 -11.44,-20.66 0.02,-0.05 0.03,-0.09 0.04,-0.14 l 179.4,-45 -7.4,46.5"
         style="fill:#e9d5ae;fill-opacity:1;fill-rule:nonzero;stroke:none"
         id="path84" /><path
         d="m 5591.6,5169.3 c 0,0 43.2,-90.7 -210,-561.4 -141.6,-263 -223.9,-430.5 -355.8,-427 -225.9,6 -773.3,455.3 -773.3,455.3 l 129.39,261.5 c 0,0 414.31,-268.6 551.41,-224.3 32,10 190,240 313.9,544.7 52.8,129 314.6,-28.3 344.4,-48.8"
         style="fill:#d5dded;fill-opacity:1;fill-rule:nonzero;stroke:none"
         id="path86" /><path
         d="m 5166.7,2856.2 102,-196 40.7,510 132.6,-465.3 764.1,103 c 0,0 -150,753.7 -222.6,1062 l 245.3,774 c 0,0 208.6,545.6 -132,571.5 -340.6,25.9 -733.6,47.6 -733.6,47.6 0,0 -404,-1408 -196.5,-2406.8"
         style="fill:#dfebf5;fill-opacity:1;fill-rule:nonzero;stroke:none"
         id="path88" /><path
         d="m 5676.5,5115.7 c 0,0 -240,-546.4 -91.7,-1104.6 11.7,-43.9 68.5,-70 68.5,-70 l 65.9,72.1 c 0,0 -77.9,642 -42.7,1102.5"
         style="fill:#516dbe;fill-opacity:1;fill-rule:nonzero;stroke:none"
         id="path90" /><path
         d="m 5687.8,5129.7 19.2,-115.2 205.4,174.1 1.6,28.6 -226.2,-87.5"
         style="fill:#d5dded;fill-opacity:1;fill-rule:nonzero;stroke:none"
         id="path92" /><path
         d="m 5651.9,5239.9 -65.4,-211.1 76.3,85.2 z"
         style="fill:#d5dded;fill-opacity:1;fill-rule:nonzero;stroke:none"
         id="path94" /><path
         d="M 6198.8,4662 6386.6,4006.2 6120,3661.3 c 0,0 105.2,-156.3 148.9,-138 302.4,126.5 541.7,560 541.7,560 L 6537,4974.2 c 0,0 -114.3,190.5 -390,236.3 -199.7,33.5 38.6,-493.9 51.8,-548.5"
         style="fill:#dfebf5;fill-opacity:1;fill-rule:nonzero;stroke:none"
         id="path96" /><path
         d="m 5945.8,5353.4 c -10.26,-41.12 -24.08,-81.27 -41.3,-120 -25.1,-48.5 -221.3,-102 -251.4,-107.5 -30.1,-5.5 15.7,149.2 17.7,184.7 1.5,27.2 18.5,17.7 0,58.1 l 275,-15.3"
         style="fill:#e9d5ae;fill-opacity:1;fill-rule:nonzero;stroke:none"
         id="path98" /><path
         d="m 5657.1,5253.1 -58.2,-162.4 -74.6,-622.4 -107.3,489.2 88.3,84.7 -47.9,78.7 105.5,128.4 94.2,3.8"
         style="fill:#ffffff;fill-opacity:1;fill-rule:nonzero;stroke:none"
         id="path100" /><g
         id="g102"><g
           id="g104"
           clip-path="url(#clipPath108)"><path
             d="m 5311.9,3540.3 100,-300.9 591.9,-140 c 0,0 52.4,462.5 -20,770.8 l 245.3,774 c 0,0 208.6,545.6 -132,571.5 -48,3.7 -97,7.2 -145.8,10.7 -69,4.8 -197.6,-193.1 -228.6,-250 -33.2,-60.8 -248.6,-612.8 -248.6,-612.8 l -162.2,-823.3"
             style="fill:url(#linearGradient114);fill-opacity:1;fill-rule:nonzero;stroke:none"
             id="path116" /></g></g><path
         d="m 5927.8,5239.6 130.9,-7.2 -108.8,-187.4 -129.5,-77.1 0.8,-146.6 -336.8,-480.6 220,633.6 223.4,265.3"
         style="fill:#d5dded;fill-opacity:1;fill-rule:nonzero;stroke:none"
         id="path118" /><path
         d="m 5927.8,5239.6 130.9,-7.2 -108.3,-179 -129.4,-73.4 1.2,-140.3 -335.6,-458.8 218.4,605.5 222.8,253.2"
         style="fill:#ffffff;fill-opacity:1;fill-rule:nonzero;stroke:none"
         id="path120" /><path
         d="m 5653.1,5125.9 34.7,3.8 -3.5,-85.4 -25,-22.6 -35.1,13.9 28.9,90.3"
         style="fill:#516dbe;fill-opacity:1;fill-rule:nonzero;stroke:none"
         id="path122" /><path
         d="m 5518.2,3488.3 305.8,-11.2 56,-343.7 h -203.4 c 0,0 -107.7,-0.5 -124.9,91.1 -17.2,91.6 -33.5,263.8 -33.5,263.8"
         style="fill:#ecf8fe;fill-opacity:1;fill-rule:nonzero;stroke:none"
         id="path124" /><path
         d="m 5111.3,3207.1 74.3,-8.9 20,276.4 -106,11.3 c 0.4,-91.6 3.6,-184.8 11.7,-278.8"
         style="fill:#ecf8fe;fill-opacity:1;fill-rule:nonzero;stroke:none"
         id="path126" /><path
         d="m 5423.5,4240 c 0,0 -124.2,-307.1 -124,-788.5 0,0 81.9,327.9 111.5,423.4 98,316.8 190.7,374.4 315.4,505.4 157.3,165.2 -179.7,146 -302.9,-140.3"
         style="fill:#d5dded;fill-opacity:1;fill-rule:nonzero;stroke:none"
         id="path128" /><path
         d="m 5903.8,4679.4 c 10.6,43.2 56.3,97 93.6,93.3 l 11.3,-1.2 c 37.3,-3.8 59,-41.9 48.4,-85"
         style="fill:none;stroke:#2c5a94;stroke-width:31.9;stroke-linecap:butt;stroke-linejoin:miter;stroke-miterlimit:10;stroke-dasharray:none;stroke-opacity:1"
         id="path130" /><path
         d="m 5894.1,4983.1 -35,-135.2 c -21.9,-84.9 -104.5,-147.1 -184.5,-139 l -82.71,8.4 c -80,8.1 -126.89,83.4 -105,168.2 l 35.11,135.3"
         style="fill:none;stroke:#2c5a94;stroke-width:32.4;stroke-linecap:butt;stroke-linejoin:miter;stroke-miterlimit:10;stroke-dasharray:none;stroke-opacity:1"
         id="path132" /><path
         d="m 5670,5275.9 c -44.3,4.5 -90,-30 -102.2,-76.9 l -77.1,-297.9"
         style="fill:none;stroke:#2c5a94;stroke-width:21.6;stroke-linecap:butt;stroke-linejoin:miter;stroke-miterlimit:10;stroke-dasharray:none;stroke-opacity:1"
         id="path134" /><path
         d="m 5670,5275.9 c -11.73,1.14 -23.56,-0.26 -34.7,-4.1"
         style="fill:none;stroke:#2c5a94;stroke-width:32.4;stroke-linecap:butt;stroke-linejoin:miter;stroke-miterlimit:10;stroke-dasharray:none;stroke-opacity:1"
         id="path136" /><path
         d="m 5882.8,5253.1 c 44.4,-4.5 70,-46.3 58.2,-93.3 L 5863.9,4862"
         style="fill:none;stroke:#2c5a94;stroke-width:21.6;stroke-linecap:butt;stroke-linejoin:miter;stroke-miterlimit:10;stroke-dasharray:none;stroke-opacity:1"
         id="path138" /><path
         d="m 5882.8,5253.1 c 10.64,-0.95 20.91,-4.38 30,-10"
         style="fill:none;stroke:#2c5a94;stroke-width:32.4;stroke-linecap:butt;stroke-linejoin:miter;stroke-miterlimit:10;stroke-dasharray:none;stroke-opacity:1"
         id="path140" /><path
         d="m 5620.8,5426.7 c -6.63,-30.21 12.49,-60.07 42.7,-66.7 v 0 l 246.5,-53.6 c 30.26,-6.56 60.12,12.64 66.7,42.9 l 79.4,365 c 6.5,30.25 -12.67,60.07 -42.9,66.7 l -246.4,53.4 c -30.06,6.8 -59.93,-12.06 -66.73,-42.11 -0.03,-0.1 -0.05,-0.19 -0.07,-0.29 l -79.2,-365.3"
         style="fill:#e9d5ae;fill-opacity:1;fill-rule:nonzero;stroke:none"
         id="path142" /><path
         d="m 5683.4,5716.5 c 0,0 -25.4,42.5 -26.7,65.5 -0.7,11.6 19,50.8 50,60.8 31,10 47.1,-24.6 47.1,-24.6 0,0 -49,-14.8 -53.2,-23.4 -4.2,-8.6 -17.2,-78.3 -17.2,-78.3"
         style="fill:#1f3b57;fill-opacity:1;fill-rule:nonzero;stroke:none"
         id="path144" /><path
         d="m 6045.5,5544.6 c 0,0 67.7,132.1 70,174.7 2.3,42.6 3.7,72.1 -45.4,87.6 -73.7,23.1 -78.1,7.4 -110,38.2 -31.9,30.8 -85.3,100 -106.6,110 -35.7,17.4 -97.3,17.6 -115,-52.7 -4.89,-26.9 -23.07,-49.49 -48.3,-60 1.6,-6.9 14,-15.9 35.2,-33.1 61.1,-49.1 100.7,-64.9 156.1,-62.6 55.4,2.3 160,10.7 162.6,-30.6 2.6,-41.3 -27.4,-158.9 -24.9,-169 2.5,-10.1 15.6,-7.5 26.3,-2.5"
         style="fill:#234465;fill-opacity:1;fill-rule:nonzero;stroke:none"
         id="path146" /><path
         d="m 5944,5452 c -2.16,-10.08 4.23,-20 14.3,-22.2 l 53.2,-11.6 c 9.96,-2.25 19.88,3.88 22.3,13.8 l 21.2,97.3 c 2.39,10.1 -3.86,20.24 -13.96,22.62 -0.11,0.03 -0.23,0.06 -0.34,0.08 l -53.3,11.5 c -9.98,2.21 -19.85,-4.08 -22.07,-14.05 -0.01,-0.05 -0.02,-0.1 -0.03,-0.15 L 5944,5452"
         style="fill:#e9d5ae;fill-opacity:1;fill-rule:nonzero;stroke:none"
         id="path148" /><path
         d="m 5626.6,5521.1 c -2.23,-10.08 4.12,-20.06 14.2,-22.3 l 53.2,-11.6 c 10.08,-2.22 20.06,4.15 22.29,14.24 0,0.02 0.01,0.04 0.01,0.06 l 21.1,97.3 c 2.22,10.03 -4.11,19.96 -14.14,22.18 -0.02,0.01 -0.04,0.02 -0.06,0.02 l -53.2,11.7 c -10.06,2.04 -19.9,-4.37 -22.1,-14.4 l -21.3,-97.2"
         style="fill:#e9d5ae;fill-opacity:1;fill-rule:nonzero;stroke:none"
         id="path150" /><path
         d="m 6014.9,5517.7 c 0,0 -31.3,-143.6 -41.7,-191.6 -9.4,-43.3 -47.4,-134.6 -292.1,-81.3 -144.8,31.4 -116.4,136.7 -108.7,171.7 5.7,26.7 53.2,100 71.8,111.8 0.7,0 -12.8,-59.3 -12.8,-59.3 28.15,30.93 70.54,44.69 111.5,36.2 111.1,-24.1 122.2,-94.6 171.4,-104.2 37.9,-7.3 79.5,48 100.6,116.7"
         style="fill:#234465;fill-opacity:1;fill-rule:nonzero;stroke:none"
         id="path152" /><path
         d="m 5768,5401 -76,16.6 c -10.04,2.19 -16.4,12.1 -14.22,22.13 0.01,0.02 0.01,0.05 0.02,0.07 l 2.3,10.7 112.5,-24.6 -2.6,-10.6 c -2.2,-9.98 -11.99,-16.34 -22,-14.3"
         style="fill:#e9d5ae;fill-opacity:1;fill-rule:nonzero;stroke:none"
         id="path154" /><path
         d="m 5843.13,4631.02 11.74,79.94 263.86,-38.77 -11.75,-79.95 -263.85,38.78"
         style="fill:#ffffff;fill-opacity:1;fill-rule:nonzero;stroke:none"
         id="path156" /><path
         d="m 5915.8,4709.6 -22.7,-67.6 -58.3,-173.6 c -18.8,-72.7 -90,-126.1 -158.1,-119.1 l -20.7,2.1 c -68.5,6.9 -108.8,71.5 -90,144.2 l 66.6,225.4"
         style="fill:none;stroke:#2c5a94;stroke-width:32.4;stroke-linecap:butt;stroke-linejoin:miter;stroke-miterlimit:10;stroke-dasharray:none;stroke-opacity:1"
         id="path158" /><path
         d="m 4132.2,2685.1 c 22.7,13.9 100,-72.4 133,-148.7 64.5,-150 81.1,-232.4 106.1,-397.5 40,-261.7 106.8,-677.5 129,-854.4 20,-160 84.2,-348.199 -11.7,-321.5 1.4,219 -99.2,549 -157.6,722.4 -199.4,591.9 -268.6,956.6 -198.8,999.7"
         style="fill:#e9d5ae;fill-opacity:1;fill-rule:nonzero;stroke:none"
         id="path160" /><path
         d="m 4587.8,2544.5 c -8.5,42.1 -17.1,83.3 -26,124 -30,59.3 -55.6,90.5 -75.4,85.9 -74.8,-17.6 -142.5,-356 92.5,-1160 11.8,-40 170,-740.798 168.5,-723.599 C 4720,1320.9 4713.6,1922 4587.8,2544.5"
         style="fill:#e9d5ae;fill-opacity:1;fill-rule:nonzero;stroke:none"
         id="path162" /><path
         d="m 4755.1,819.398 c 40.6,-82.097 91.1,-140 112.7,-129.199 21.6,10.801 6.5,85.903 -34.1,168.102 -40.6,82.199 -91.1,140 -112.8,129.097 -21.7,-10.898 -6.4,-85.898 34.2,-168"
         style="fill:#274fa6;fill-opacity:1;fill-rule:nonzero;stroke:none"
         id="path164" /><path
         d="m 4742.7,868.102 c 20.8,-64.301 65,-110.704 86.7,-100 21.7,10.699 13.7,65.796 -18.9,124.898 -41.2,74.902 -57,96.301 -60.5,150 -3.3,50.3 -85.5,66.6 -7.3,-174.898"
         style="fill:#e9d5ae;fill-opacity:1;fill-rule:nonzero;stroke:none"
         id="path166" /><path
         d="m 4322.3,992.801 c 26.54,9.409 53.88,16.349 81.7,20.699 35.1,6.6 61.7,6.4 74.3,20 20.8,21.8 9.3,74.4 19.5,72 50,-11.3 66.8,-127.5 37.8,-141.898 -29,-14.403 -192.6,4.8 -206.1,5.796 -13.5,1.004 -11.3,26.504 -7.2,23.403"
         style="fill:#e9d5ae;fill-opacity:1;fill-rule:nonzero;stroke:none"
         id="path168" /><path
         d="m 4356.4,1003.4 c -9.2,-39.099 110.7,-23.4 141.7,-13.201 15.88,5.379 32.12,9.66 48.6,12.801 h 3.7 c 0.11,-0.93 0.11,-1.87 0,-2.8 0,-21.399 9.4,-50.001 -24.9,-50.001 H 4311 c -175.9,0.203 45.6,54.101 45.4,53.201"
         style="fill:#274fa6;fill-opacity:1;fill-rule:nonzero;stroke:none"
         id="path170" /><path
         d="m 4031.7,5633.5 46.2,318.5 c 58.5,61.5 133.4,94.4 210,83.4 147.1,-21.3 243.2,-197.6 214.8,-393.8 -28.4,-196.2 -170.6,-337.9 -317.6,-316.7 -103,14.9 -180.9,105.8 -208.7,226.1 29.87,17.82 50.16,48.1 55.3,82.5"
         style="fill:#1f3b57;fill-opacity:1;fill-rule:nonzero;stroke:none"
         id="path172" /><path
         d="m 4615.8,5449.4 c 5.5,-50.9 -48.1,-98.6 -120,-106.5 L 4332,5324.8 c -71.9,-7.9 -134.6,27 -140,78 l -51.2,464.7 c -5.6,51 48.1,98.6 120,106.6 l 163.6,17.9 c 71.8,8 134.6,-27 140,-77.9 l 51.4,-464.7"
         style="fill:#1f3b57;fill-opacity:1;fill-rule:nonzero;stroke:none"
         id="path174" /><path
         d="m 4188.6,5249.9 c -97.2,-42 -145.8,-28.9 -71.6,-60 35.7,-43.7 491.8,17.1 516.7,73.7 4.1,10 -181.1,36.7 -182.1,43.8 -11.4,82.1 -15.8,151.5 7.1,243.3 -0.41,6.65 -5.57,12.03 -12.2,12.7 -34.6,-1 -69.4,-1.3 -104.1,-2.3 -5.7,0 -73.7,-15.2 -58.6,-47.8 7.4,-89.6 7.5,-218.9 -95.2,-263.4"
         style="fill:#e9d5ae;fill-opacity:1;fill-rule:nonzero;stroke:none"
         id="path176" /><path
         d="m 4157.6,5519.1 c -1.5,3.2 -3,6.5 -4.6,10 0,1 -0.9,2 -1.3,3.1 -1.8,4 -3.6,8.2 -5.3,12.7 -0.5,1.2 -0.8,2.3 -1.3,3.4 -1.2,3.3 -2.4,6.6 -3.5,10 -1.1,3.4 -1.6,3.7 -1.6,5.3 0,1.6 -1.8,5.6 -2.7,8.6 l -1.8,6 c -1,3.7 -2,7.6 -3.1,11.5 -1.1,3.9 -1.4,5.7 -2.1,8.8 -0.7,3.1 -1.3,5.3 -1.8,8 -0.5,2.7 -1.2,5.4 -1.7,8.2 -0.5,2.8 -1,4.7 -1.4,7.1 -0.4,2.4 -0.7,3.8 -1.1,5.8 v 0 c -5.7,33 5.6,188.8 31.8,263.1 4.21,10.42 15.12,16.5 26.2,14.6 80,-8.9 324.4,2.4 261.3,-220 v 0 c 0,0 -3.7,-20 -5.6,-28.5 0.06,-0.73 0.06,-1.47 0,-2.2 -2,-8.9 -4.1,-17.6 -6.4,-26 0,-0.6 0,-1.2 -0.5,-1.7 -2.4,-8.6 -4.9,-17 -7.7,-25.2 0.1,-0.29 0.1,-0.61 0,-0.9 -34.9,-104.9 -96.1,-174.2 -161,-170 -37.8,2.6 -71,30 -95.9,73.9 v 0 c -0.24,0.31 -0.44,0.64 -0.6,1 -1.9,3.3 -3.7,6.8 -5.5,10 -1.8,1.3 -2.3,2.4 -2.8,3.4"
         style="fill:#e9d5ae;fill-opacity:1;fill-rule:nonzero;stroke:none"
         id="path178" /><path
         d="m 4961.7,3072 c 0,0 18.8,-0.9 19,-15.6 0,-24.4 -18.9,-69.3 -26.4,-84.9 -8.4,-17.5 -61.5,-93.3 -61.5,-93.3 -0.97,23 5.44,45.7 18.3,64.8 31.1,44.7 50.6,129 50.6,129"
         style="fill:#e9d5ae;fill-opacity:1;fill-rule:nonzero;stroke:none"
         id="path180" /><path
         d="m 4957.3,3060.1 c -1.2,-34.9 -26.9,-66.1 -66,-95.5 -37.2,-27.9 -37,-57.9 -37,-57.9 28.25,19.16 54.69,40.85 79,64.8 15.78,13.53 28.99,29.79 39,48 26.5,54.7 -12.3,130.4 -15,40.6"
         style="fill:#e9d5ae;fill-opacity:1;fill-rule:nonzero;stroke:none"
         id="path182" /><path
         d="m 4675.2,4628.1 -608.8,5.1 -74.4,696.3 722.4,-68.6 -39.2,-632.8"
         style="fill:#274fa6;fill-opacity:1;fill-rule:nonzero;stroke:none"
         id="path184" /><path
         d="m 4031.7,2553.9 c 299.3,-46.9 353.4,-7 697.4,42.1 32.6,-0.6 171.9,334.3 73.8,1217.5 -20,182 -157.8,328.1 -126.3,822.2 l -613.8,11.8 c 81.5,-449.1 -405,-518.8 -31.1,-2093.6"
         style="fill:#274fa6;fill-opacity:1;fill-rule:nonzero;stroke:none"
         id="path186" /><path
         d="m 4011.2,4445.9 86.4,610 -21,246.1 c -14.16,14.39 -32.69,23.68 -52.7,26.4 l -13.8,1.7 c -53.3,6.4 -101.2,-38.4 -107,-100 l -67.9,-835.7 176,51.5"
         style="fill:#dfebf5;fill-opacity:1;fill-rule:nonzero;stroke:none"
         id="path188" /><g
         id="g190"><g
           id="g192"
           clip-path="url(#clipPath196)"><path
             d="m 4881.5,4060.3 -179.2,768.6 -28.5,427.3 c 12.5,16.66 30.62,28.21 51,32.5 l 13.6,2.7 c 52.8,10 103.4,-38.7 113.3,-109 l 263.4,-1126.2 -233.6,4.1"
             style="fill:url(#linearGradient202);fill-opacity:1;fill-rule:nonzero;stroke:none"
             id="path204" /></g></g><path
         d="m 4978,3091 c 0,0 -10,-54.6 -30,-74.1 -14,-13.5 -90,-66.3 -90,-66.3 7.07,21.89 20.9,40.97 39.5,54.5 31.25,24.16 58.42,53.15 80.5,85.9"
         style="fill:#e9d5ae;fill-opacity:1;fill-rule:nonzero;stroke:none"
         id="path206" /><path
         d="m 4950,3092 c 0,0 -11.9,10 -18.8,8.6 2.42,4.23 5.17,8.27 8.2,12.1 5.2,7.6 30,65 30,65 -4.5,-19.28 -7.83,-38.82 -10,-58.5 -1.74,-14.44 -4.76,-28.69 -9,-42.6 -0.5,-1.9 -2.8,-4.6 -4.3,-7.9 l 3.9,23.3"
         style="fill:#e9d5ae;fill-opacity:1;fill-rule:nonzero;stroke:none"
         id="path208" /><path
         d="m 4926.8,3087.5 c -10,-47.5 -24.4,-63 -32.9,-68 2.5,11.2 6,29.3 10,55 3.92,16.42 9.15,32.5 15.6,48.1 1.4,4.2 17.8,0 41.2,30 4.2,5.4 -4,-36.4 -13.8,-59.2 -5.4,3.3 -16.9,8.6 -20.1,-5.9"
         style="fill:#e9d5ae;fill-opacity:1;fill-rule:nonzero;stroke:none"
         id="path210" /><path
         d="m 4308.3,5582 c 29.91,17.71 50.33,47.86 55.7,82.2 l 46,319 c 2.8,3 5.8,5.5 8.7,8.3 l 5.6,0.6 c 71.8,8 134.6,-27 140,-77.9 l 51.2,-464.8 c 4.3,-39.3 -26.9,-76.4 -74.3,-95.1 -8.2,0.14 -16.38,0.78 -24.5,1.9 -102.6,14.9 -180.5,105.8 -208.4,225.8"
         style="fill:#1f3b57;fill-opacity:1;fill-rule:nonzero;stroke:none"
         id="path212" /><g
         id="g214"><g
           id="g216"
           clip-path="url(#clipPath220)"><path
             d="m 4023.9,5328.9 186.6,-3.7 c 0,0 101.7,-586.6 101.7,-758.6 0,-172 -117.3,-641.2 -110,-860 7.3,-218.8 7.8,-782.1 7.8,-782.1 l -469.2,62.6 c 0,0 78.2,774.2 203.3,1196.5 100.4,336.8 79.8,1145.3 79.8,1145.3"
             style="fill:url(#linearGradient226);fill-opacity:1;fill-rule:nonzero;stroke:none"
             id="path228" /></g></g><path
         d="m 4210.5,5325.2 -93.8,7.8 v -143.3 l 54.4,-67.8 -23.4,-70 78.2,-312.8 v -617.9 c 0,0 101.6,547.5 70,656.9 -31.6,109.4 -85.4,547.1 -85.4,547.1"
         style="fill:#ecf8fe;fill-opacity:1;fill-rule:nonzero;stroke:none"
         id="path230" /><g
         id="g232"><g
           id="g234"
           clip-path="url(#clipPath238)"><path
             d="m 4523.3,5286.1 191.1,-25.2 c 0,0 -26.8,-561.3 -34.6,-725.6 -7.8,-164.3 86,-461.4 140.7,-656.9 96.1,-342.9 258.1,-844.6 258.1,-844.6 0,0 -383.2,-86 -602.2,-109.5 -24.6,-2.6 -54.7,258.1 -46.9,1055.8 7.8,797.7 93.8,1306 93.8,1306"
             style="fill:url(#linearGradient244);fill-opacity:1;fill-rule:nonzero;stroke:none"
             id="path246" /></g></g><path
         d="m 4476.4,5309.5 -78.2,-531.8 39.1,-844.5 62.6,899.3 78.2,195.5 -23.5,70.4 39.1,39.1 -31.3,172 h -86"
         style="fill:#ecf8fe;fill-opacity:1;fill-rule:nonzero;stroke:none"
         id="path248" /><path
         d="m 4504.8,5081.6 -636.8,63.7 217.4,-828.9 586.5,-62.6 -167.1,827.8"
         style="fill:#516dbe;fill-opacity:1;fill-rule:nonzero;stroke:none"
         id="path250" /><path
         d="m 4150,4721.4 c 71.8,111.1 52,191.2 64.7,245.2 8.01,37.37 13.88,75.17 17.6,113.2 27.2,-52.4 5.3,-89.1 7.6,-116.1 2.3,-27 -1.6,-17.7 26.7,20 16.2,21.5 5.5,84.1 4,125.3 -1.77,17.65 0.66,35.47 7.1,52 11.52,-34.9 19.46,-70.89 23.7,-107.4 5.21,-52.12 4.34,-104.68 -2.6,-156.6 -6.8,-29.1 -52.5,-104.8 -93.1,-153.6 -45.7,-54.9 -107.4,-102 -55.7,-22"
         style="fill:#e9d5ae;fill-opacity:1;fill-rule:nonzero;stroke:none"
         id="path252" /><path
         d="m 3905.5,4441.5 c 156.5,187.7 363.9,401.6 363.9,401.6 l -284.7,-487.7 c 0,0 -157.4,-7.8 -79.2,86.1"
         style="fill:#e9d5ae;fill-opacity:1;fill-rule:nonzero;stroke:none"
         id="path254" /><path
         d="m 3874.7,4492 c 0,0 -100.9,-135.6 -10,-185.8 51.6,-28.6 93.1,-10.7 122.8,30.9 55.1,77.2 113.4,167.6 113.4,167.6 l -98.3,128.6 -127.9,-141.3"
         style="fill:#dfebf5;fill-opacity:1;fill-rule:nonzero;stroke:none"
         id="path256" /><path
         d="m 4301.4,4943.2 c 0,0 29.4,99.4 27.6,120.9 -1.2,14.9 -18.9,83.9 -18.9,83.9 0,0 -13.7,-35.7 -8.2,-63.7 5.5,-28 -0.5,-141.1 -0.5,-141.1"
         style="fill:#e0c18d;fill-opacity:1;fill-rule:nonzero;stroke:none"
         id="path258" /><path
         d="m 4093.2,3487.4 -273.2,39.1 -54.7,-360 234.6,-23.5 c 0,0 93.3,-38.8 93.3,344.4"
         style="fill:#ecf8fe;fill-opacity:1;fill-rule:nonzero;stroke:none"
         id="path260" /><path
         d="m 4554.6,3518.7 250,39.1 c 0,0 94.5,-256.3 39.1,-328.5 -32.4,-42.1 -219,-62.5 -219,-62.5 0,0 -54.7,23.4 -70.1,351.9"
         style="fill:#ecf8fe;fill-opacity:1;fill-rule:nonzero;stroke:none"
         id="path262" /><path
         d="m 4938.7,3026.6 17.5,1.4 36.9,47.7 c 0,0 25.8,105.5 21.3,148.9 -4.5,43.4 42.4,340 34,359.3 -14.9,33.3 -101.6,-7.8 -101.6,-7.8 0,0 16.9,-234.3 9.2,-302.6 -7.7,-68.3 -52,-161.5 -56,-188.3 -6.8,-45.5 -12.8,-68.2 -12.8,-68.2 0,0 24.8,0 40,70.5 4,18.7 22.7,4.3 22.7,4.3 l -11.2,-65.2"
         style="fill:#e9d5ae;fill-opacity:1;fill-rule:nonzero;stroke:none"
         id="path264" /><g
         id="g266"><g
           id="g268"
           clip-path="url(#clipPath272)"><path
             d="m 4927.8,3524.1 c 0,0 146,-11.1 159,48.8 13,59.9 90.7,543.6 21.8,628 -68.9,84.4 -176.6,-10.7 -200,-36.5 -23.4,-25.8 19.2,-640.3 19.2,-640.3"
             style="fill:url(#linearGradient278);fill-opacity:1;fill-rule:nonzero;stroke:none"
             id="path280" /></g></g><path
         d="M 2016.7,1344.5 2098,1220.6 1415.5,1002 c 0,0 -45.6,43.6 121.9,131.1 194.9,102.1 479.3,211.4 479.3,211.4"
         style="fill:#8ec1dd;fill-opacity:1;fill-rule:nonzero;stroke:none"
         id="path282" /><path
         d="m 2137.9,1344.5 -81.3,-123.9 682.5,-218.6 c 0,0 45.6,43.6 -121.9,131.1 -195,102.1 -479.3,211.4 -479.3,211.4"
         style="fill:#8ec1dd;fill-opacity:1;fill-rule:nonzero;stroke:none"
         id="path284" /><path
         d="m 2006,1713.1 h 142.6 V 1205.4 H 2006 v 507.7"
         style="fill:#8ec1dd;fill-opacity:1;fill-rule:nonzero;stroke:none"
         id="path286" /><path
         d="m 2007.5,1318.4 70,-118.2 L 1492.9,992 c 0,0 -39,41.6 104.3,125.1 166.9,97 410.3,201.3 410.3,201.3"
         style="fill:#b3daf4;fill-opacity:1;fill-rule:nonzero;stroke:none"
         id="path288" /><path
         d="M 2147,1318.4 2077,1200.2 2661.7,992 c 0,0 39,41.6 -104.3,125.1 -166.9,97 -410.4,201.3 -410.4,201.3"
         style="fill:#b3daf4;fill-opacity:1;fill-rule:nonzero;stroke:none"
         id="path290" /><path
         d="m 1559,944.602 c 0,-27.61 -22.38,-50 -50,-50 -27.61,0 -50,22.39 -50,50 0,27.609 22.39,50 50,50 27.34,0.277 49.72,-21.661 50,-49 0,-0.332 0,-0.661 0,-1"
         style="fill:#17233f;fill-opacity:1;fill-rule:nonzero;stroke:none"
         id="path292" /><path
         d="m 2691,944.602 c 0,-27.61 -22.39,-50 -50,-50 -27.62,0 -50,22.39 -50,50 0,27.609 22.38,50 50,50 27.61,0 50,-22.391 50,-50"
         style="fill:#17233f;fill-opacity:1;fill-rule:nonzero;stroke:none"
         id="path294" /><path
         d="m 1439.1,944.602 c 0,-27.61 -22.39,-50 -50,-50 -27.62,0 -50,22.39 -50,50 0,27.609 22.38,50 50,50 27.61,0 50,-22.391 50,-50"
         style="fill:#3b6d83;fill-opacity:1;fill-rule:nonzero;stroke:none"
         id="path296" /><path
         d="m 2810.9,944.602 c 0,-27.61 -22.39,-50 -50,-50 -27.62,0.007 -50,22.39 -50,50.007 0,27.602 22.39,50 50,49.993 0.17,0 0.34,0 0.5,0 27.34,0 49.5,-22.161 49.5,-49.493 0,-0.168 0,-0.347 0,-0.507"
         style="fill:#3b6d83;fill-opacity:1;fill-rule:nonzero;stroke:none"
         id="path298" /><path
         d="m 2023.3,1899.2 h 104.3 v -182.6 h -104.3 v 182.6"
         style="fill:#3e56af;fill-opacity:1;fill-rule:nonzero;stroke:none"
         id="path300" /><path
         d="m 2205.9,1995.7 c 0,-56.22 -45.58,-101.8 -101.8,-101.8 h -57.3 c -56.22,0 -101.8,45.58 -101.8,101.8 v 0 c 0,56.16 45.53,101.7 101.7,101.7 0.03,0 0.07,0 0.1,0 h 57.3 c 56.17,0.06 101.74,-45.43 101.8,-101.6 0,-0.03 0,-0.07 0,-0.1"
         style="fill:#3e56af;fill-opacity:1;fill-rule:nonzero;stroke:none"
         id="path302" /><path
         d="m 2850.7,2088.7 c 2.5,12 4,87.1 4,100 0,82.2 -53.1,148.8 -118.6,148.8 H 1414.8 c -65.5,0 -118.6,-66.6 -118.6,-148.8 0,-12.8 1.5,-87.9 4,-100 h 1550.5"
         style="fill:#9bc2ea;fill-opacity:1;fill-rule:nonzero;stroke:none"
         id="path304" /><path
         d="m 1284,2048.4 c 0,-25.1 14.7,-45.5 32.9,-45.5 H 2834 c 18.1,0 32.9,20 32.9,45.5 v 0 c 0,25.2 -14.8,45.5 -32.9,45.5 H 1316.9 c -18.2,0 -32.9,-20 -32.9,-45.5 v 0"
         style="fill:#3e56af;fill-opacity:1;fill-rule:nonzero;stroke:none"
         id="path306" /><path
         d="m 1793.3,2347.7 c 0,0 820,-1.8 1136.3,-6.5 218.9,-3.4 238.8,308.8 152.5,355.8 -262.2,142.7 -1080,216.1 -1080,216.1 L 1445.5,2402 c 0,0 31.2,0.8 347.8,-54.3"
         style="fill:#234465;fill-opacity:1;fill-rule:nonzero;stroke:none"
         id="path308" /><path
         d="m 851.402,780.199 c -12.703,-15.301 -3.504,-55.5 -3.504,-55.5 0,0 220.702,-24.597 291.702,-7.898 27.68,9.23 54.19,21.648 79,37 5,2.898 13.7,20 18.5,22.597 8.9,5.301 13.5,-3.496 21.1,1.301 11.88,6.781 23.16,14.582 33.7,23.301 19.4,101.211 -6.4,142 -6.4,142 0,0 -187.8,62.4 -223.1,18.898 C 980,859.398 879,813.699 851.402,780.199"
         style="fill:#1a1915;fill-opacity:1;fill-rule:nonzero;stroke:none"
         id="path310" /><path
         d="m 2913.8,890.301 15.3,-166.699 166.9,-16.301 c 0,0 11.5,22.301 25.6,20.898 11.9,-1.199 25,-25.898 41.2,-27.5 l 90,-8.699 334.9,-32.801 c 0,0 10.9,33.703 2.9,46.403 -4.1,6.597 -31,20 -49.1,26.898 -83.9,32.699 -323.2,132.398 -358,219.102 -42.7,105.298 -269.7,-61.301 -269.7,-61.301"
         style="fill:#1a1915;fill-opacity:1;fill-rule:nonzero;stroke:none"
         id="path312" /><path
         d="m 1380.6,2649.6 c 0,0 -54.4,-515.3 -46.6,-787.6 5.9,-205.5 6.5,-599.3 -42.4,-934.898 C 1288.6,906.5 1026,922 1026,922 c 0,0 -94.102,1277.4 -122.098,1487.8 -28.004,210.4 53.399,362.2 476.698,239.8"
         style="fill:#234465;fill-opacity:1;fill-rule:nonzero;stroke:none"
         id="path314" /><path
         d="m 3031.4,2525.4 c 0,0 -84.6,-133.6 -316.6,-165.2 C 2630.9,2348.8 2850,864.898 2850,864.898 l 342.7,110 -66.1,1640.902 -95.2,-90.4"
         style="fill:#1f3b57;fill-opacity:1;fill-rule:nonzero;stroke:none"
         id="path316" /><path
         d="m 2085.8,2360.2 c 0,0 -448.1,-63.9 -747.2,-95.3 -110,-11.5 -204.6,295.5 -217.4,308.8 -80,83.9 -158.997,73.2 -156.298,76.3 64.798,70 399.998,135 750.998,217.3 351,82.3 404.2,30 404.2,30 l -34.3,-537.1"
         style="fill:#1f3b57;fill-opacity:1;fill-rule:nonzero;stroke:none"
         id="path318" /><path
         d="m 1330.9,2364 -34.3,-1002.6 -34.3,-232.6 -3.8,232.6 7.6,144.9 -80,224.8 -42,522.4 61,-22.9 -7.6,228.7 133.4,-95.3"
         style="fill:#1f3b57;fill-opacity:1;fill-rule:nonzero;stroke:none"
         id="path320" /><path
         d="m 3020,2650 83.8,-22.9 30.4,-1205.1 -175.4,-430 83.8,293.5 -34.2,606.2 c 0,0 -122,-293.6 -122,-278.3 0,15.3 102.9,636.7 102.9,636.7 0,0 -114.4,-95.4 -102.9,-91.5 11.5,3.9 68.6,434.2 133.6,491.4"
         style="fill:#234465;fill-opacity:1;fill-rule:nonzero;stroke:none"
         id="path322" /><path
         d="M 1715.9,2867.3 C 1365.3,2785 1029.7,2720.1 964.902,2650 c -2.699,-3.1 76.298,7.6 156.298,-76.3 3.5,-3.7 23.7,-102 38.1,-137.3 -57.1,103 767,393.5 945.1,468.8 -33.2,10.6 -130.2,22.6 -388.5,-37.9"
         style="fill:#234465;fill-opacity:1;fill-rule:nonzero;stroke:none"
         id="path324" /><path
         d="m 1637.4,4058.5 c 0,0 -320,-52.9 -356.4,-120.8 -219,-407.5 -370,-792.1 -411.398,-910 -31.403,-90.6 -113.301,-427.5 91.496,-452.4 35.703,-4.3 177.602,30 177.602,30 l 100,34.3 -41.9,80 -2.3,63.7 c 0,0 128.5,308.7 285.5,600.8 157,292.1 157.4,674.4 157.4,674.4"
         style="fill:#d9f0fb;fill-opacity:1;fill-rule:nonzero;stroke:none"
         id="path326" /><path
         d="m 1213.2,2664.5 c 0,0 193.8,-89.4 263.3,-188.8 69.5,-99.4 94.4,-60 94.4,-60 l 303,258.3 c 0,0 -288.1,104.7 -660.7,-9.5"
         style="fill:#edf9fe;fill-opacity:1;fill-rule:nonzero;stroke:none"
         id="path328" /><path
         d="m 2658.7,2863.2 298,-99.4 c -81.28,-0.81 -159.96,-28.8 -223.5,-79.5 -72.9,-58.9 -218.6,-243.4 -218.6,-243.4 0,0 -317.9,164 -377.5,213.6 -59.6,49.6 377.5,208.7 521.6,208.7"
         style="fill:#edf9fe;fill-opacity:1;fill-rule:nonzero;stroke:none"
         id="path330" /><path
         d="m 2471.9,4020.5 c 0,0 251.3,-5 302.5,-216.3 101.4,-418.7 87.9,-494 108.8,-892.3 2,-39 -2.2,-143.1 -237.8,-148.1 -95.4,-2 -91.1,176.4 -91.1,176.4 0,0 -61.3,173.8 -126.5,467.8 -65.2,294 44.1,612.5 44.1,612.5"
         style="fill:#d9f0fb;fill-opacity:1;fill-rule:nonzero;stroke:none"
         id="path332" /><path
         d="m 2658.7,3975.8 -466.2,196.2 -409.2,27.5 -445.9,-208.4 c 0,0 -71.3,-11.2 -44.7,-362.6 27.8,-366.8 115.6,-825 115.6,-825 l 1156.6,-37 c 0,0 -30,668.3 24.2,966.3 19.3,104.4 19.1,182.7 69.6,243"
         style="fill:#edf9fe;fill-opacity:1;fill-rule:nonzero;stroke:none"
         id="path334" /><path
         d="m 2661.5,3000.7 -564.3,-230.5 c 0,0 400,-57 650,-6.1 169.6,34.5 -78.1,243.9 -85.7,236.6"
         style="fill:#e9d5ae;fill-opacity:1;fill-rule:nonzero;stroke:none"
         id="path336" /><path
         d="m 1142.4,2884.9 584.8,-30.5 c 0,0 -563.2,-258.4 -581.9,-213.9 -105.3,252.4 -2.9,244.4 -2.9,244.4"
         style="fill:#e9d5ae;fill-opacity:1;fill-rule:nonzero;stroke:none"
         id="path338" /><path
         d="m 1464.2,2902.9 c 34.2,16.4 31,16.7 31,16.7 20.09,-22.53 46.92,-37.96 76.5,-44 22.5,-3.5 95.1,-4.4 95.1,-4.4 l 107.7,-2.7 50,2.8 c 0,0 28.2,3.8 35.7,-1 21.8,-14 3.2,-25.2 3.2,-25.2 l -193.4,-27.4 185.5,-22.9 c 0,0 23.3,-7 24.4,-20 1.1,-13 -6.7,-11.3 -6.7,-11.3 l -215.5,-23.1 94.5,-22.6 c 0,0 22.6,-7.2 24.3,-19.5 1.7,-12.3 2.7,-16.9 2.7,-16.9 l -198.1,19.4 c 0,0 -151.1,185.6 -116.9,202.1"
         style="fill:#e9d5ae;fill-opacity:1;fill-rule:nonzero;stroke:none"
         id="path340" /><path
         d="m 1678.1,2783.6 130,-23.7 c 0,0 30,-2.1 42.8,-11.6 8.32,-4.69 11.27,-15.25 6.58,-23.57 -0.13,-0.21 -0.25,-0.43 -0.38,-0.63 l -198.8,16.7 19.8,42.8"
         style="fill:#e9d5ae;fill-opacity:1;fill-rule:nonzero;stroke:none"
         id="path342" /><path
         d="m 1079.1,2599.9 c 0,0 -189.1,-104.3 -179.1,273.2 1.699,62.8 247.3,44.6 247.3,44.6 l 289.2,-14.8 89.4,-218.6 -446.8,-84.4"
         style="fill:#d9f0fb;fill-opacity:1;fill-rule:nonzero;stroke:none"
         id="path344" /><path
         d="m 1168,2759.1 311.2,40 -42.4,103.7 -289.2,14.8 c 0,0 -28.7,10 -147.897,-34.7 C 820.801,2768.8 1168,2759.1 1168,2759.1"
         style="fill:#edf9fe;fill-opacity:1;fill-rule:nonzero;stroke:none"
         id="path346" /><path
         d="m 2822.6,2770.4 c 0,0 56.1,77.1 52.3,100.7 -22.5,141.1 -186.8,167.7 -186.8,167.7 l -431.8,-116 99.4,-218.6 466.9,66.2"
         style="fill:#d9f0fb;fill-opacity:1;fill-rule:nonzero;stroke:none"
         id="path348" /><path
         d="m 1730,4100 c 0,0 471.9,144 481.8,-5 9.9,-149 -74.5,-784.8 -119.2,-884.1 -44.7,-99.3 -198.7,79.4 -273.2,402.3 -74.5,322.9 -89.4,486.8 -89.4,486.8"
         style="fill:#8cc4ec;fill-opacity:1;fill-rule:nonzero;stroke:none"
         id="path350" /><path
         d="m 1791.2,4044.2 102.5,-426 10,-357.7 -203.7,566.3 54.7,54.6 -84.5,5 c 0,0 5,203.6 60,268.2 55,64.6 152.5,58.2 104.3,14.9 -50.1,-44.7 -43.3,-125.3 -43.3,-125.3"
         style="fill:#d9f0fb;fill-opacity:1;fill-rule:nonzero;stroke:none"
         id="path352" /><path
         d="m 2176.9,4169.5 c 0,0 74.5,5 99.3,-60 24.8,-65 44.7,-213.6 44.7,-213.6 l -74.5,-34.8 60,-54.6 -223.9,-615.5 c 0,0 14.9,496.7 34.8,596 19.9,99.3 59.6,382.5 59.6,382.5"
         style="fill:#d9f0fb;fill-opacity:1;fill-rule:nonzero;stroke:none"
         id="path354" /><path
         d="m 2169.4,4044.2 c -7.9,-62.5 -59,-116.7 -112.7,-119.3 h -152.8 c -53.7,2.6 -104.7,56.8 -112.7,119.3 -12.4,103 -24.9,206.07 -37.5,309.2 -8.4,61.8 28.4,185.9 110,222.6 74.6,32.6 159.41,32.6 234,0 81.3,-36.7 118.1,-160.8 110,-222.6 -12.93,-103.13 -25.7,-206.2 -38.3,-309.2"
         style="fill:#e0c18d;fill-opacity:1;fill-rule:nonzero;stroke:none"
         id="path356" /><path
         d="m 1957.2,4772 c -41.25,0.01 -79.72,-20.78 -102.3,-55.3 H 1813 c -52.36,0 -94.8,-42.44 -94.8,-94.8 0,-0.03 0,-0.07 0,-0.1 v -233.9 h 66.7 v 95.1 c 0,36.8 29.8,66.65 66.6,66.7 h 18.5 c 67.37,0.22 121.86,54.93 121.8,122.3 v 100 h -34.6"
         style="fill:#1f3b57;fill-opacity:1;fill-rule:nonzero;stroke:none"
         id="path358" /><path
         d="m 1839.1,4300.9 c 0,-32.03 -25.97,-58 -58,-58 v 0 h -4.9 c -32.03,0 -58,25.97 -58,58 v 0 70.5 c 0.11,31.97 26.03,57.85 58,57.9 h 4.9 c 22.95,-0.02 43.75,-13.54 53.1,-34.5"
         style="fill:#e0c18d;fill-opacity:1;fill-rule:nonzero;stroke:none"
         id="path360" /><path
         d="M 1905.3,4679.1 V 4772 H 2106 c 67.54,0 122.3,-54.76 122.3,-122.3 v -92.9 h -200.8 c -67.49,0 -122.2,54.71 -122.2,122.2 0,0.03 0,0.07 0,0.1"
         style="fill:#1f3b57;fill-opacity:1;fill-rule:nonzero;stroke:none"
         id="path362" /><path
         d="m 2211.1,4212 c 0,-48.7 -37.4,-131 -98.9,-157.1 -85.44,-34.55 -180.96,-34.55 -266.4,0 -61.6,26 -98.6,108.2 -98.9,157 V 4626 c 0,48.8 48.4,90 108.7,91.1 h 246.8 c 60,-1.1 109.1,-42.2 108.7,-91.1 v -414"
         style="fill:#e9d5ae;fill-opacity:1;fill-rule:nonzero;stroke:none"
         id="path364" /><path
         d="m 2026.5,4772 c 41.22,0.03 79.68,-20.77 102.2,-55.3 h 42 c 52.36,-0.06 94.75,-42.54 94.7,-94.9 v 0 -233.9 h -66.6 v 95.1 c 0,36.84 -29.86,66.7 -66.7,66.7 H 2047 c -67.49,-0.05 -122.24,54.61 -122.3,122.1 0,0.07 0,0.13 0,0.2 v 100 h 101.8"
         style="fill:#1f3b57;fill-opacity:1;fill-rule:nonzero;stroke:none"
         id="path366" /><path
         d="m 2145.5,4371.4 c 0.06,31.99 26.01,57.9 58,57.9 h 4.8 c 31.98,0.05 57.95,-25.82 58,-57.8 0,-0.03 0,-0.07 0,-0.1 v -70.5 c 0,-32.03 -25.97,-58 -58,-58 v 0 h -4.8 c -22.99,-0.01 -43.82,13.56 -53.1,34.6"
         style="fill:#e9d5ae;fill-opacity:1;fill-rule:nonzero;stroke:none"
         id="path368" /><path
         d="m 1924.7,4655.1 c 1.55,7.91 2.36,15.94 2.4,24 v 92.9 h -86.6 c -67.55,0 -122.3,-54.76 -122.3,-122.3 v -92.9 h 86.7 c 8.4,0 16.78,0.87 25,2.6 9.6,48 46.9,85.65 94.8,95.7"
         style="fill:#1f3b57;fill-opacity:1;fill-rule:nonzero;stroke:none"
         id="path370" /><path
         d="m 2491.1,2682 c 0.19,0.42 0.43,0.82 0.7,1.2 l -0.7,36.8 H 1339 v -36.8 c 0,0 0,-0.8 0,-1.2 l 3.9,-6.9 c 20,-32 54.8,-37.7 95.1,-37.7 h 954 c 40,0 75.5,5.7 95.2,37.7 l 3.9,6.9"
         style="fill:#b6c2c8;fill-opacity:1;fill-rule:nonzero;stroke:none"
         id="path372" /><path
         d="m 1533.8,2711.1 h 762.9 v -26 h -762.9 v 26"
         style="fill:#8399a4;fill-opacity:1;fill-rule:nonzero;stroke:none"
         id="path374" /><path
         d="m 2490,2715.7 3.1,755.4 c 0.11,19.77 -15.83,35.89 -35.6,36 -0.1,0 -0.2,0 -0.3,0 H 1379.1 c -19.92,0 -36.09,-16.09 -36.2,-36 l -3,-755.4 H 2490"
         style="fill:#d9e2e3;fill-opacity:1;fill-rule:nonzero;stroke:none"
         id="path376" /><path
         d="m 1986.6,3111.4 c 0,-38.66 -31.34,-70 -70,-70 -38.66,0 -70,31.34 -70,70 0,38.66 31.34,70 70,70 38.66,0 70,-31.34 70,-70"
         style="fill:#b6c2c8;fill-opacity:1;fill-rule:nonzero;stroke:none"
         id="path378" /><path
         d="M 384,0 H 219.102 L 491.199,2635.6 H 730.297 L 384,0"
         style="fill:#9ed3f2;fill-opacity:1;fill-rule:nonzero;stroke:none"
         id="path380" /><path
         d="m 714.398,2514.1 -104.894,-798.2 -124.406,860.2 6.101,59.5 h 209.098 l 14.101,-121.5"
         style="fill:#8cbfdc;fill-opacity:1;fill-rule:nonzero;stroke:none"
         id="path382" /><path
         d="m 4056.3,0 h 165 L 3949.1,2635.6 H 3710 L 4056.3,0"
         style="fill:#9ed3f2;fill-opacity:1;fill-rule:nonzero;stroke:none"
         id="path384" /><path
         d="m 3725.9,2514.1 320.1,-813.4 -90.8,875.4 -6.1,59.5 h -209 l -14.2,-121.5"
         style="fill:#8cbfdc;fill-opacity:1;fill-rule:nonzero;stroke:none"
         id="path386" /><path
         d="M 294.602,2721.1 H 4354.7 v -154 H 294.602 v 154"
         style="fill:#9bc2ea;fill-opacity:1;fill-rule:nonzero;stroke:none"
         id="path388" /></g></g></svg>
