<?xml version="1.0" encoding="UTF-8" standalone="no"?>
<svg
   xmlns:dc="http://purl.org/dc/elements/1.1/"
   xmlns:cc="http://creativecommons.org/ns#"
   xmlns:rdf="http://www.w3.org/1999/02/22-rdf-syntax-ns#"
   xmlns:svg="http://www.w3.org/2000/svg"
   xmlns="http://www.w3.org/2000/svg"
   xmlns:sodipodi="http://sodipodi.sourceforge.net/DTD/sodipodi-0.dtd"
   xmlns:inkscape="http://www.inkscape.org/namespaces/inkscape"
   version="1.1"
   id="svg2"
   xml:space="preserve"
   width="847.33331"
   height="761.8667"
   viewBox="0 0 847.33331 761.8667"
   sodipodi:docname="reshot-illustration-female-doctor-VAZ9BMYX6U.eps"><metadata
     id="metadata8"><rdf:RDF><cc:Work
         rdf:about=""><dc:format>image/svg+xml</dc:format><dc:type
           rdf:resource="http://purl.org/dc/dcmitype/StillImage" /></cc:Work></rdf:RDF></metadata><defs
     id="defs6" /><sodipodi:namedview
     pagecolor="#ffffff"
     bordercolor="#666666"
     borderopacity="1"
     objecttolerance="10"
     gridtolerance="10"
     guidetolerance="10"
     inkscape:pageopacity="0"
     inkscape:pageshadow="2"
     inkscape:window-width="640"
     inkscape:window-height="480"
     id="namedview4" /><g
     id="g10"
     inkscape:groupmode="layer"
     inkscape:label="ink_ext_XXXXXX"
     transform="matrix(1.3333333,0,0,-1.3333333,0,761.86667)"><g
       id="g12"
       transform="scale(0.1)"><path
         d="m 1253.1,3367.4 c -20.62,127.71 -22.5,257.75 -5.6,386 69,532.41 435.6,1016.5 798.2,1206 184.4,96.71 367.9,117.01 510,28.71 11.24,-7.02 22.12,-14.59 32.6,-22.7 -562,-392.21 -1023.7,-995 -1335.2,-1598.01"
         style="fill:#d3fae5;fill-opacity:1;fill-rule:nonzero;stroke:none"
         id="path14" /><path
         d="m 4331.9,5148.2 c 150,203.5 300,375.51 446.3,474.91 125.6,85.19 248.3,116.59 366,67.79 C 5605,5499.5 5847.9,4136.5 5905.5,2697.71 5637.5,3641.5 5000.7,4634 4331.9,5148.2"
         style="fill:#d3fade;fill-opacity:1;fill-rule:nonzero;stroke:none"
         id="path16" /><path
         d="m 811.391,568.801 -44.59,0.597 c -46.844,108.571 -73.25,224.852 -77.899,343 -5.226,119.772 16.758,239.152 64.297,349.202 C 900.598,977.82 1102.32,784.73 1224.89,684.699 1050.31,649.961 909.836,610.91 811.391,568.801 m 5045.839,50.301 c -87.51,26.179 -192.12,50.757 -311.6,73.418 149.99,109.621 270,255.32 348.87,423.68 -5.2,-92.5 -11.2,-183.489 -18.1,-272.391 -6.07,-82.629 -12.75,-158.047 -19.17,-224.707"
         style="fill:#d3fade;fill-opacity:1;fill-rule:nonzero;stroke:none"
         id="path18" /><path
         d="M 6211.1,1135.51 C 6130.48,963.191 6006.8,814.582 5852,704 L 1650,624 c 0,0 -353.8,221.91 -580,657.1 -140.602,270 -231.699,623.4 -157.996,1056.8 58.394,342.9 199.996,750.01 410.796,1157.31 311.5,602.99 773.2,1205.8 1335.6,1597.99 310,216.1 650,368.1 1012.4,421.5 306.4,45 646.1,-92.1 977.9,-346.9 C 5317.3,4654 5954.1,3660.81 6222.1,2717 c 167.2,-588.8 190.8,-1158.7 -11,-1581.49"
         style="fill:#51c180;fill-opacity:1;fill-rule:nonzero;stroke:none"
         id="path20" /><path
         d="m 3405.4,849.602 c 1522.31,0 2756.4,-190.192 2756.4,-424.801 C 6161.8,190.199 4927.71,0 3405.4,0 1883.08,0 649,190.199 649,424.801 649,659.41 1883.08,849.602 3405.4,849.602"
         style="fill:#9ae3ad;fill-opacity:1;fill-rule:nonzero;stroke:none"
         id="path22" /><path
         d="m 5380,4775.1 c -271.7,10 -364.9,-225.2 -364.9,-225.2 0,0 -93.1,235.51 -365.1,225.2 -272,-10.3 -432.2,-191.59 -430,-471.1 2.2,-279.5 794.6,-965.4 794.6,-965.4 0,0 792.6,685.4 795.4,965.4 2.8,280 -158.1,460.7 -430,471.1"
         style="fill:#f3608d;fill-opacity:1;fill-rule:nonzero;stroke:none"
         id="path24" /><path
         d="m 3518.3,4212 h 446.2 l 360.1,-581.5 331.6,834.1 369,-583.1 248.6,504.91 192.1,-300.31 182.1,125.9 h 631.1 v 58.1 H 5629.9 L 5482.4,4168.11 5267.3,4504.6 5018.9,4000.1 4644.3,4592 4313.2,3759.2 3996.9,4270.1 H 3518.3 V 4212"
         style="fill:#ffffff;fill-opacity:1;fill-rule:nonzero;stroke:none"
         id="path26" /><path
         d="m 3171.1,200.402 c -485.57,0 -879.2,34.567 -879.2,77.207 0,42.629 393.63,77.192 879.2,77.192 485.57,0 879.2,-34.563 879.2,-77.192 0,-42.64 -393.63,-77.207 -879.2,-77.207"
         style="fill:#495890;fill-opacity:1;fill-rule:nonzero;stroke:none"
         id="path28" /><path
         d="m 3785.8,3312.4 -238,442.7 112.6,35 c 0,0 211.6,-487.19 226.8,-509.29 15.2,-22.1 40,-191.81 20,-194.51 -20,-2.7 -101.1,57.21 -107.8,90.6 -6.7,33.4 -13.6,135.5 -13.6,135.5"
         style="fill:#f8a16f;fill-opacity:1;fill-rule:nonzero;stroke:none"
         id="path30" /><path
         d="m 3269,4233.2 c -9.4,-134.69 210,-500 255.2,-518.8 20,-8.59 47.3,-4.8 74.2,6.21 -23.07,220.38 -87.53,434.42 -190,630.89 -59,32.5 -128.4,36.01 -139.4,-118.3"
         style="fill:#bebdbb;fill-opacity:1;fill-rule:nonzero;stroke:none"
         id="path32" /><path
         d="m 3494.5,4282.2 c -25.28,27.01 -54.24,50.34 -86,69.3 102.47,-196.47 166.93,-410.51 190,-630.89 33.25,13.59 62.59,35.24 85.4,62.99 36.1,46.9 -164.9,467.9 -189.4,498.6"
         style="fill:#ffffff;fill-opacity:1;fill-rule:nonzero;stroke:none"
         id="path34" /><path
         d="m 3425.9,3265.01 c 0,0 110,-1380.01 88.5,-1742.21 -21.5,-362.19 -88.5,-1067.288 -88.5,-1067.288 h -101.3 c 0,0 -110,1619.998 -240,1856.088 -130,236.11 -92.8,1016.6 -92.8,1016.6 l 434.1,-63.19"
         style="fill:#1f2648;fill-opacity:1;fill-rule:nonzero;stroke:none"
         id="path36" /><path
         d="m 3333.1,280.402 h 417.6 c 0,0 23.7,30 -25.3,55.399 -49,25.398 -300,120 -300,120 h -100.8 c 0,0 -26.3,-23.192 -27.9,-32.692 -1.6,-9.507 0,-115.5 0,-115.5 0,0 11,-27.207 36.4,-27.207"
         style="fill:#30283a;fill-opacity:1;fill-rule:nonzero;stroke:none"
         id="path38" /><path
         d="m 3244.5,3294 c 0,0 -59.1,-1193.79 -211,-1691.6 C 2881.6,1104.6 2632.3,574 2632.3,574 l -91.8,52.699 c 0,0 168.2,989.001 206.2,1491.011 38,502 54.8,1176.29 54.8,1176.29 h 443"
         style="fill:#26315d;fill-opacity:1;fill-rule:nonzero;stroke:none"
         id="path40" /><path
         d="m 2629.1,587.301 c 0,0 54.6,-83.199 60.9,-91.102 6.3,-7.898 125,-178.699 123.4,-186.59 -1.6,-7.898 -21.8,-38.007 -63.1,-19 -41.3,18.993 -298.4,190.7 -298.4,190.7 -1.63,15.07 0.57,30.3 6.4,44.3 9.5,19 41.9,78.2 41.9,78.2 l 30,22.793 98.9,-39.301"
         style="fill:#30283a;fill-opacity:1;fill-rule:nonzero;stroke:none"
         id="path42" /><path
         d="m 3016.7,4458.8 c 0,0 -270,-101.29 -270,-265.8 0,-164.49 16.9,-953.4 25.3,-1000 8.4,-46.59 628.5,-71.7 675,0 46.5,71.7 -12.7,864.8 -46.5,949.2 -33.8,84.4 -54.8,265.71 -181.3,295.31 -126.5,29.59 -202.5,21.29 -202.5,21.29"
         style="fill:#5173c1;fill-opacity:1;fill-rule:nonzero;stroke:none"
         id="path44" /><path
         d="m 2736,4318.51 c -4.84,-8.91 -8.22,-18.53 -10,-28.5 -19,-105.41 -4.2,-953.31 -190,-1282.41 -24.8,-44 -47.6,-89.49 -68.6,-135.6 358.6,366.8 335.1,953.3 268.6,1446.51"
         style="fill:#bebdbb;fill-opacity:1;fill-rule:nonzero;stroke:none"
         id="path46" /><path
         d="m 3384.9,3911.41 c 15.6,-221.31 27.3,-555.11 27.3,-583.21 0,-35.8 85.3,-1127.5 85.3,-1127.5 0,0 35.6,13.9 89.5,39.01 -97,501.09 -82,994.29 -168.9,1515.09 -7.2,50.81 -14.5,106.7 -33.2,156.61"
         style="fill:#bebdbb;fill-opacity:1;fill-rule:nonzero;stroke:none"
         id="path48" /><path
         d="m 3633.6,3460.1 c -60,211.9 -167.7,851 -250,908.01 -82.3,56.99 -107.6,107.5 -255.2,118.1 -134.3,10 -341.7,-73.3 -392.5,-167.7 66.5,-493.21 90,-1080 -268.8,-1446.51 -135.5,-298.3 -190,-616.09 -171.9,-648.99 21.1,-37.9 400.8,105.5 514.7,67.5 80,25.29 80,708.49 135.8,759.29 40,98.71 246.9,455.61 133.4,980.5 -54.3,251 -267.1,307.81 -224.9,337.41 42.2,29.59 234.1,76.29 333.2,35.2 0,0 161.4,-180 183.5,-341.7 4.8,-35.2 9.5,-88.1 13.9,-150 18.7,-50 26,-105.8 33.2,-156.61 87,-520.6 72,-1013.8 169,-1514.89 144.2,67.39 419,215.9 492.7,397.79 101.3,249.9 -386,610.61 -446.1,822.6"
         style="fill:#f8f8f8;fill-opacity:1;fill-rule:nonzero;stroke:none"
         id="path50" /><path
         d="m 3201.3,4074.6 c -6.64,30.03 -23.11,56.99 -46.8,76.61 -20.31,15.4 -45.21,23.54 -70.7,23.09 -20.59,-0.22 -40.95,-4.36 -60,-12.2 -25.73,25.22 -49.53,52.33 -71.2,81.1 -16.58,21.88 -30.99,45.32 -43,70 -11.16,21.73 -17.5,45.6 -18.6,70 -0.49,20.79 7.4,40.9 21.9,55.8 15.7,16.3 41.6,30 81.5,40 l -4,17.3 c -42.1,-10 -71.3,-25.09 -90,-44.8 -17.64,-18.22 -27.28,-42.74 -26.8,-68.1 1.22,-28.92 8.98,-57.2 22.7,-82.7 20.45,-38.86 45.64,-75.04 75,-107.7 14.6,-16.79 27.4,-30 35.5,-38.1 -23.18,-11.79 -43.41,-28.64 -59.2,-49.29 -13.03,-20.38 -19.27,-44.36 -17.8,-68.51 0,-47.9 15.4,-104.59 30.6,-150 15.2,-45.4 30.5,-78.5 30.6,-78.7 l 16.1,7.41 -0.6,1.39 c -3.3,7.3 -18.1,41.31 -32.1,84.01 -14,42.7 -26.9,94.2 -26.9,135.59 -1.33,20.36 3.7,40.63 14.4,58 14.25,18.61 32.54,33.73 53.5,44.2 21.19,11.35 44.77,17.48 68.8,17.9 21.6,0.51 42.74,-6.29 60,-19.3 20.59,-17.23 34.85,-40.84 40.5,-67.1 18.4,-69.2 30.8,-126.7 38.5,-166.79 3.9,-20 6.6,-35.8 8.3,-46.41 0.9,-5.4 1.6,-9.5 2,-12.2 l 0.6,-4.09 17.6,2.39 c -12.56,77.93 -29.39,155.12 -50.4,231.2"
         style="fill:#363140;fill-opacity:1;fill-rule:nonzero;stroke:none"
         id="path52" /><path
         d="m 3142.5,4463 1.8,-1.4 c 32.6,-26.34 63.34,-54.91 92,-85.5 42.4,-45.29 86.3,-103.3 101.8,-158.7 11.03,-40.97 16.42,-83.26 16,-125.7 -0.02,-29.75 -2.2,-59.46 -6.5,-88.9 -1.6,-11.19 -3.2,-20 -4.4,-26.19 -0.6,-3.1 -1.1,-5.51 -1.5,-7.01 v -1.8 -0.6 l 17.3,-4.09 c 9.05,42.26 13.54,85.37 13.4,128.59 0.37,44.09 -5.25,88.03 -16.7,130.6 -10.47,33.59 -26.34,65.23 -47,93.71 -61.9,89.2 -154.5,160.69 -154.8,160.99 l -10.9,-14 h -0.5"
         style="fill:#363140;fill-opacity:1;fill-rule:nonzero;stroke:none"
         id="path54" /><path
         d="m 3345.1,4017.51 c 30.93,0 56,-25.08 56,-56.01 0,-30.92 -25.07,-56 -56,-56 -30.93,0 -56,25.08 -56,56 0,30.93 25.07,56.01 56,56.01"
         style="fill:#c7acdc;fill-opacity:1;fill-rule:nonzero;stroke:none"
         id="path56" /><path
         d="m 3345.1,3994.7 c 18.34,0 33.2,-14.86 33.2,-33.2 0,-18.33 -14.86,-33.19 -33.2,-33.19 -18.33,0 -33.2,14.86 -33.2,33.19 0,18.34 14.87,33.2 33.2,33.2"
         style="fill:#363140;fill-opacity:1;fill-rule:nonzero;stroke:none"
         id="path58" /><path
         d="m 3238.6,3854.5 c 11.82,0 21.4,-9.58 21.4,-21.39 0,-11.83 -9.58,-21.41 -21.4,-21.41 -11.82,0 -21.4,9.58 -21.4,21.41 0,11.81 9.58,21.39 21.4,21.39"
         style="fill:#363140;fill-opacity:1;fill-rule:nonzero;stroke:none"
         id="path60" /><path
         d="m 3000.3,3829.3 c 11.82,0 21.4,-9.58 21.4,-21.39 0,-11.83 -9.58,-21.41 -21.4,-21.41 -11.82,0 -21.4,9.58 -21.4,21.41 0,11.81 9.58,21.39 21.4,21.39"
         style="fill:#363140;fill-opacity:1;fill-rule:nonzero;stroke:none"
         id="path62" /><path
         d="m 3154.3,4557.91 -142.4,22.1 -22.6,-107.41 c 43.7,-38.53 96.32,-65.55 153.1,-78.6 l 11.9,163.91"
         style="fill:#eb956e;fill-opacity:1;fill-rule:nonzero;stroke:none"
         id="path64" /><path
         d="m 3138.5,4339.6 3.9,54.31 c -56.79,13.07 -109.41,40.12 -153.1,78.69 l -26.4,-125.09 c 0,0 172.4,-231.01 276.1,-181.9 103.71,49.09 -100.5,173.99 -100.5,173.99"
         style="fill:#f8a16f;fill-opacity:1;fill-rule:nonzero;stroke:none"
         id="path66" /><path
         d="m 3250.8,4837.91 c 0,0 17.4,-215.11 -17.4,-265.81 -34.8,-50.69 -107.6,-91.69 -183.5,-40 -75.9,51.7 -148.7,139.2 -139.2,267.3 9.5,128.1 284.7,244.11 340.1,38.51"
         style="fill:#f8a16f;fill-opacity:1;fill-rule:nonzero;stroke:none"
         id="path68" /><path
         d="m 3321.3,4936.6 c 0,0 71.6,-51.3 32.1,-97.2 -39.5,-45.89 43.7,-103.7 -20,-110 -63.7,-6.29 -90.5,-51.49 -95.2,31.71 -4.7,83.19 -22.6,83.19 -62.2,98.99 -39.6,15.8 -102.8,-50.6 -137.6,-6.3 -34.8,44.31 -100,44.31 -75.9,-23.7 24.1,-67.99 23.7,-96.9 0,-100.7 -23.7,-3.79 15.8,-28.99 33.2,-62.3 17.4,-33.3 24.4,-44.7 -38.4,-58.59 -62.8,-13.91 -47,-23.61 -67.6,7.99 -20.6,31.61 -37.9,82.3 -25.3,125 12.6,42.7 19,38 -12.6,55.4 -31.6,17.4 -102.9,58.51 -17.4,105.9 85.5,47.41 93.3,40 87,74.4 -6.3,34.4 6.3,55.4 49,64.91 42.7,9.49 87,-11.1 100,17.39 13,28.5 111.6,63.21 122.2,18.9 10.6,-44.3 20.9,-82.19 62.4,-53.7 41.5,28.5 57.4,30 57.4,30 0,0 58.5,-14.2 34.8,-49 -23.7,-34.8 79.1,-50 38,-55.29 -21.76,-2.12 -43.21,-6.75 -63.9,-13.81"
         style="fill:#30283a;fill-opacity:1;fill-rule:nonzero;stroke:none"
         id="path70" /><path
         d="M 2734.6,3324.2 2283.1,3518 2094,3122.91 l 488.6,-245.51 152,446.8"
         style="fill:#9ab1e1;fill-opacity:1;fill-rule:nonzero;stroke:none"
         id="path72" /><path
         d="m 2666.3,2905.1 -83.7,-27.7 152,446.8 25.4,-23.1 -93.7,-396"
         style="fill:#24263d;fill-opacity:1;fill-rule:nonzero;stroke:none"
         id="path74" /><path
         d="m 2742.4,3302 -80,-220 -472.4,242 92.8,193.8 486.9,-200 5.1,-24.89 -20,-64.6 c 0,0 -11.4,3.39 -10.8,5.99 0.6,2.6 10,66 10,66 l -11.6,1.7"
         style="fill:#1f2648;fill-opacity:1;fill-rule:nonzero;stroke:none"
         id="path76" /><path
         d="m 2512.6,3804 c 0,0 -185.6,-562.4 -196.2,-581.4 -10.6,-19 -73.8,-200 -73.8,-227.8 0,-27.8 99.1,-61.2 113.9,-48.5 14.8,12.7 44.3,70 35.9,90.7 -8.4,20.71 -40,-2.1 -46.4,33.7 -6.4,35.8 158.1,299.51 179.2,352.21 21.1,52.7 101.3,295.29 101.3,307.99 0,12.7 -113.9,73.1 -113.9,73.1"
         style="fill:#f8a16f;fill-opacity:1;fill-rule:nonzero;stroke:none"
         id="path78" /><path
         d="m 2869,4064 c 0.27,55.21 -4.65,110.32 -14.7,164.6 -5.44,8.32 -11.45,16.23 -18,23.7 C 2822,4029.4 2750,3814 2644.8,3619.8 l 10,-6.8 c 0,0 214.2,356.4 214.2,451"
         style="fill:#ccccc9;fill-opacity:1;fill-rule:nonzero;stroke:none"
         id="path80" /><path
         d="m 2725.6,4290.01 c -65.4,-40 -242.6,-453.41 -261.5,-518.8 -18.9,-65.4 0,-30 0,-30 l 180.7,-121.81 c 104.9,194.4 177.2,410 191.5,632.8 -23.4,27.6 -66.3,64.9 -110.7,37.81"
         style="fill:#ffffff;fill-opacity:1;fill-rule:nonzero;stroke:none"
         id="path82" /><path
         d="M 278.801,2040 H 985 v -58.5 H 278.801 v 58.5"
         style="fill:#363c49;fill-opacity:1;fill-rule:nonzero;stroke:none"
         id="path84" /><path
         d="M 659.301,996.199 V 1643.41 H 930 l 104.6,-647.211 z m -400,0 L 366.5,1643.41 H 619.301 V 996.199 Z m 360,722.611 v -35.4 H 373.102 l 5.8,35.4 z m 298.695,0 5.703,-35.4 H 659.301 v 35.4 z M 1163.3,201.5 l 39.4,6.402 -287.204,1776.808 -40,-6.3 35.504,-220 H 659.301 v 223.19 h -40 V 1758.81 H 385.602 l 36.296,219.49 -39.398,6.5 -294.3008,-1776.788 39.3988,-6.602 125,754.789 H 619.301 V 204.711 h 40 V 956.199 H 1041.3 l 122,-754.699"
         style="fill:#363c49;fill-opacity:1;fill-rule:nonzero;stroke:none"
         id="path86" /><path
         d="m 4701.9,1165.21 h 999.3 c 62.52,0 113.2,-50.69 113.2,-113.21 V 517.5 c 0,-62.52 -50.68,-113.191 -113.2,-113.191 h -999.3 c -62.52,0 -113.2,50.671 -113.2,113.191 V 1052 c 0,62.52 50.68,113.21 113.2,113.21"
         style="fill:#fcfcf6;fill-opacity:1;fill-rule:nonzero;stroke:none"
         id="path88" /><path
         d="m 5036.9,1146.1 v 110 h 329.3 v -122.5 c -0.06,-19.77 15.93,-35.84 35.7,-35.89 19.77,-0.05 35.84,15.92 35.9,35.7 v 0.19 158 c 0.05,19.78 -15.92,35.85 -35.7,35.9 h -0.1 -400.9 c -9.48,-0.07 -18.55,-3.84 -25.3,-10.5 -6.72,-6.74 -10.5,-15.88 -10.5,-25.4 v -145.5 c 0,-19.77 16.03,-35.8 35.8,-35.8 19.77,0 35.8,16.03 35.8,35.8"
         style="fill:#fcfcf6;fill-opacity:1;fill-rule:nonzero;stroke:none"
         id="path90" /><path
         d="m 5201.6,1019.8 c 139.67,0 252.9,-113.23 252.9,-252.902 C 5454.5,627.23 5341.27,514 5201.6,514 c -139.68,0 -252.9,113.23 -252.9,252.898 0,139.672 113.22,252.902 252.9,252.902"
         style="fill:#f25271;fill-opacity:1;fill-rule:nonzero;stroke:none"
         id="path92" /><path
         d="m 5330.1,806.012 h -81.3 v 80 h -94.5 v -80 H 5073 v -78.301 h 81.3 v -80 h 94.5 v 80 h 81.3 v 78.301"
         style="fill:#f8f8f8;fill-opacity:1;fill-rule:nonzero;stroke:none"
         id="path94" /><path
         d="m 5712.2,2187.61 h -650.5 c 28.23,80.49 62.85,158.6 103.5,233.59 5.53,10.21 11.24,20.5 17.1,30.9 39.68,69.54 84.55,136 134.2,198.81 v 235.3 h -71.3 v 74.8 h 283.4 v -74.8 h -71.3 v -235.3 l 81.8,-148.7 173.1,-314.6"
         style="fill:#fcfcf6;fill-opacity:1;fill-rule:nonzero;stroke:none"
         id="path96" /><path
         d="m 5712.2,2187.61 h -650.5 c 28.23,80.49 62.85,158.6 103.5,233.59 70,-34.7 160,-63.59 227.1,-25.8 51.3,28.91 50,74.31 100,96.7 14.78,6.42 30.69,9.81 46.8,10 l 173.1,-314.49"
         style="fill:#a9d7f3;fill-opacity:1;fill-rule:nonzero;stroke:none"
         id="path98" /><path
         d="m 758.801,2399.71 -2,6.3 c -9.004,28.49 -44.699,150 -44.699,251.2 0,40.69 5.796,78.09 20.796,104.79 28.903,51.91 97.598,95.3 159.106,125.1 30.793,14.9 60,26.41 80.894,34.31 10.602,3.89 19.305,6.9 25.301,8.89 l 9.301,3.01 -3,10 c -40.02,-12.93 -79.105,-28.57 -117,-46.81 -62.203,-30 -132.301,-73.79 -163.598,-129.29 -16.304,-29.31 -22.004,-68.21 -22.004,-110 0,-118.61 47.102,-260 47.204,-260.71 l 10,3.21 h -0.301"
         style="fill:#26569c;fill-opacity:1;fill-rule:nonzero;stroke:none"
         id="path100" /><path
         d="m 760,3198.4 c -30.266,-7.31 -57.602,-23.62 -78.398,-46.8 -38.805,-40 -77,-114 -76.899,-247.3 0.238,-41.77 3.41,-83.47 9.496,-124.8 27,-190.69 40.504,-296.39 47.301,-354.29 3.402,-29.01 5,-46.01 5.902,-55.81 0,-4.9 0.594,-7.9 0.7,-10 v -2.19 h 10 c 0,0.5 0,10.8 -6.801,68.99 -6.797,58.2 -20,163.8 -47.301,354.6 -5.965,40.8 -9.066,81.97 -9.297,123.2 0,131.41 37.399,202.1 74.098,240 14.246,15.13 31.211,27.44 50,36.3 5.304,2.45 10.785,4.49 16.398,6.11 l 4.504,1.1 h 1.098 l -1.602,10 0.801,0.89"
         style="fill:#26569c;fill-opacity:1;fill-rule:nonzero;stroke:none"
         id="path102" /><path
         d="m 255.801,3112.71 1.898,-2.7 c 33.239,-50.06 62.91,-102.39 88.801,-156.61 38.797,-81.2 75.102,-181.7 75.102,-271.59 0,-10 0,-20 -1.403,-30 -4.597,-47.01 -6.398,-88.21 -6.398,-123.8 0,-115.71 18.601,-171.81 18.797,-172.31 l 10,3.21 v 0.59 c -1.899,6.01 -18.094,61.01 -18.094,168.51 0,35.19 1.797,76.19 6.297,122.9 1,10 1.5,20 1.5,30.79 0,98.81 -42.102,207.7 -83.903,292.21 -24.621,49.99 -52.582,98.26 -83.695,144.49 l -8.402,-5.8 -0.5,0.11"
         style="fill:#26569c;fill-opacity:1;fill-rule:nonzero;stroke:none"
         id="path104" /><path
         d="m 451.898,3252.71 3.903,-14.2 c 8.597,-32.3 30,-115.31 50,-208.81 20,-93.49 36.601,-197.6 36.601,-271.5 0.133,-15.11 -0.804,-30.21 -2.8,-45.19 -5.661,-41.03 -8.368,-82.39 -8.102,-123.81 -0.047,-57.22 4.102,-114.38 12.402,-171 3.051,-21.26 7.325,-42.32 12.797,-63.09 2.926,-13.25 8.172,-25.88 15.504,-37.31 L 580,2324 c -6.402,10.39 -10.996,21.78 -13.598,33.71 -13.804,50 -24.902,140.7 -24.902,231.39 -0.266,40.91 2.41,81.78 8.004,122.31 2.066,15.47 3.035,31.08 2.898,46.7 0,86.09 -22.699,210 -45.3,312.99 -22.598,103 -45.204,184.2 -45.204,184.31 l -10,-2.81 v 0.11"
         style="fill:#26569c;fill-opacity:1;fill-rule:nonzero;stroke:none"
         id="path106" /><path
         d="m 744.801,2775.4 c 0,0 -102.102,123.91 147.601,204.1 249.698,80.2 459.298,-123.89 459.298,-123.89 0,0 -263.4,1.99 -308,-11.01 -113.001,-32.79 -236.899,-173.1 -298.899,-69.2"
         style="fill:#a9d7f3;fill-opacity:1;fill-rule:nonzero;stroke:none"
         id="path108" /><path
         d="m 685.098,3115.61 c 0,0 -58.797,93.49 54.203,120.8 113,27.3 266.699,-60 266.699,-60 0,0 -287.699,-8.5 -320.902,-60.8"
         style="fill:#397bc7;fill-opacity:1;fill-rule:nonzero;stroke:none"
         id="path110" /><path
         d="m 544.301,2998.2 c 0,0 36.5,115.6 0,195.2 C 507.797,3273 360,3465.61 360,3465.61 c 0,0 -14.602,-286.81 21.801,-350 36.398,-63.21 82,-144.11 74.699,-247.7 -7.301,-103.6 55.301,-158.2 92.402,-152.7 37.098,5.49 54.094,140 -4.601,282.99"
         style="fill:#397bc7;fill-opacity:1;fill-rule:nonzero;stroke:none"
         id="path112" /><path
         d="m 0,3031.7 c 0,0 252.699,29.2 325.602,-140.89 72.898,-170.11 119.101,-121.5 94.796,-34.11 -24.3,87.4 -51,257.3 -150.398,286.81 C 170.602,3173 41.2969,3155.61 0,3031.7"
         style="fill:#397bc7;fill-opacity:1;fill-rule:nonzero;stroke:none"
         id="path114" /><path
         d="m 150.699,2665.8 c 0,0 187.403,184.3 265.301,40.8 42.301,-75.4 -42,-44.39 -70,-26.8 -28.004,17.6 -175.199,14.2 -195.301,-14"
         style="fill:#479ada;fill-opacity:1;fill-rule:nonzero;stroke:none"
         id="path116" /><path
         d="m 369.398,2530.7 h 499.403 v -29.2 H 369.398 v 29.2"
         style="fill:#26315d;fill-opacity:1;fill-rule:nonzero;stroke:none"
         id="path118" /><path
         d="m 369.398,2481.5 h 499.403 v -29.2 H 369.398 v 29.2"
         style="fill:#26315d;fill-opacity:1;fill-rule:nonzero;stroke:none"
         id="path120" /><path
         d="M 462.004,2065.91 H 776 V 2036.7 H 462.004 v 29.21"
         style="fill:#255166;fill-opacity:1;fill-rule:nonzero;stroke:none"
         id="path122" /><path
         d="M 866.602,2432.21 H 371.5 C 359.602,2305.8 397.598,2187.3 462.004,2073.2 h 314.094 c 64.398,114.1 102.402,232.6 90.504,359.01"
         style="fill:#26315d;fill-opacity:1;fill-rule:nonzero;stroke:none"
         id="path124" /></g></g></svg>
