<?xml version="1.0" encoding="UTF-8" standalone="no"?>
<svg
   xmlns:dc="http://purl.org/dc/elements/1.1/"
   xmlns:cc="http://creativecommons.org/ns#"
   xmlns:rdf="http://www.w3.org/1999/02/22-rdf-syntax-ns#"
   xmlns:svg="http://www.w3.org/2000/svg"
   xmlns="http://www.w3.org/2000/svg"
   xmlns:sodipodi="http://sodipodi.sourceforge.net/DTD/sodipodi-0.dtd"
   xmlns:inkscape="http://www.inkscape.org/namespaces/inkscape"
   version="1.1"
   id="svg2"
   xml:space="preserve"
   width="876.69336"
   height="679.08002"
   viewBox="0 0 876.69336 679.08002"
   sodipodi:docname="reshot-illustration-health-consultation-VX5G2JWHC3.eps"><metadata
     id="metadata8"><rdf:RDF><cc:Work
         rdf:about=""><dc:format>image/svg+xml</dc:format><dc:type
           rdf:resource="http://purl.org/dc/dcmitype/StillImage" /></cc:Work></rdf:RDF></metadata><defs
     id="defs6" /><sodipodi:namedview
     pagecolor="#ffffff"
     bordercolor="#666666"
     borderopacity="1"
     objecttolerance="10"
     gridtolerance="10"
     guidetolerance="10"
     inkscape:pageopacity="0"
     inkscape:pageshadow="2"
     inkscape:window-width="640"
     inkscape:window-height="480"
     id="namedview4" /><g
     id="g10"
     inkscape:groupmode="layer"
     inkscape:label="ink_ext_XXXXXX"
     transform="matrix(1.3333333,0,0,-1.3333333,0,679.08)"><g
       id="g12"
       transform="scale(0.1)"><path
         d="m 6051.1,1471 c 153.8,307.7 492,984.4 235.3,1747.1 -3.9,11.5 -7.8,22.5 -11.7,33.7 -80,223.7 -461.7,1195.5 -1292.9,1250 -326.2,21.3 -575.6,-115.1 -962.4,-338.7 C 2955.1,3547.1 3060.9,3004.3 2365.6,2802.1 1645.6,2592.7 1167,3068.6 669,2754.6 385.199,2575.7 206.801,2210.8 305.398,1928.6 443.801,1532.5 1069.8,1466.7 1053.9,1191.7 1040.9,967.301 617.5,898.5 619.102,698.5 620.898,457.398 1234.9,282.699 1360.4,246.898 c 0,0 2825.5,-82.5 3800,112.903 C 5460,613.102 5805.3,979.199 6051.1,1471"
         style="fill:#d3ecfa;fill-opacity:1;fill-rule:nonzero;stroke:none"
         id="path14" /><path
         d="M 6127.9,341.801 C 6536,1086.4 6433,1944.3 5850,2552.4 5306.1,3119.6 4241.8,3576.3 3283.7,3229.8 2427.8,2920.3 2166.9,2154.2 2128.8,2035.4 1550,2150.7 966.402,1885 781.402,1447.1 617.004,1058 797.598,605.898 1230.5,359.602 l 4897.4,-17.801"
         style="fill:#5173c1;fill-opacity:1;fill-rule:nonzero;stroke:none"
         id="path16" /><path
         d="m 3456.3,506.199 c 1522.31,0 2756.4,-113.308 2756.4,-253.097 C 6212.7,113.309 4978.61,0 3456.3,0 1933.98,0 699.902,113.309 699.902,253.102 c 0,139.789 1234.078,253.097 2756.398,253.097"
         style="fill:#9ab6e3;fill-opacity:1;fill-rule:nonzero;stroke:none"
         id="path18" /><path
         d="m 1626.4,4724.3 c 153.48,0 277.9,-116.81 277.9,-260.9 0,-144.09 -124.42,-260.9 -277.9,-260.9 -153.48,0 -277.9,116.81 -277.9,260.9 0,144.09 124.42,260.9 277.9,260.9"
         style="fill:#d3ecfa;fill-opacity:1;fill-rule:nonzero;stroke:none"
         id="path20" /><path
         d="M 1745.7,1740.1 1543.9,1259.5 1222.3,493.102 1148.4,317 c -12.3,-29.199 35.4,-42 47.5,-13.102 l 201.8,480.602 321.6,766.3 73.9,176.1 c 12.3,29.3 -35.4,42 -47.5,13.2"
         style="fill:#363c49;fill-opacity:1;fill-rule:nonzero;stroke:none"
         id="path22" /><path
         d="m 3265.8,301.602 -192,467.796 C 2971.26,1019.6 2868.54,1269.8 2765.6,1520 l -70.8,172.4 c -11.8,28.9 -60,16.2 -47.5,-13.1 64,-156 128.03,-311.93 192.1,-467.8 L 3147.5,460.801 3218.3,288.5 c 11.7,-29 59.6,-16.301 47.5,13.102"
         style="fill:#363c49;fill-opacity:1;fill-rule:nonzero;stroke:none"
         id="path24" /><path
         d="M 2128.2,1656.5 V 295 c 0,-31.699 49.3,-31.699 49.3,0 v 1361.5 c 0,31.8 -49.3,31.8 -49.3,0"
         style="fill:#363c49;fill-opacity:1;fill-rule:nonzero;stroke:none"
         id="path26" /><path
         d="m 1710.7,1708.7 c 0,0 -80,-35 -61.5,-95.2 18.5,-60.2 217.9,-85.8 348.4,-74.1 130.5,11.7 647.8,17.6 647.8,17.6 0,0 151.6,-39 151.6,8.8 0.42,27.35 -5.61,54.41 -17.6,79 l -1068.7,63.9"
         style="fill:#363c49;fill-opacity:1;fill-rule:nonzero;stroke:none"
         id="path28" /><path
         d="m 1904.9,1828.6 c -251.2,176.8 -303.2,535.3 -269,850 -42,-3.5 -74,-9 -90,-17.3 -98.6,-50 0,-637.8 0,-637.8 0,0 -5.1,-410 308.8,-410 h 956.7 l 8.6,51.5 c -324.6,-10.3 -652.6,-21.9 -915.1,163.6"
         style="fill:#344385;fill-opacity:1;fill-rule:nonzero;stroke:none"
         id="path30" /><path
         d="m 2325.3,1826.1 v 835.3 c 0,0 -475.6,35.2 -689.4,17.3 -34.2,-314.8 17.8,-673.3 269,-850 262.5,-185.2 590,-173.9 915,-163.6 l 26.9,161.1 -521.5,-0.1"
         style="fill:#26315d;fill-opacity:1;fill-rule:nonzero;stroke:none"
         id="path32" /><path
         d="m 5975.9,1740.1 201.7,-480.6 c 107.2,-255.53 214.43,-510.969 321.7,-766.301 l 73.9,-176.097 c 12.2,-29.2 -35.4,-42 -47.5,-13.102 L 6323.9,784.602 6002.3,1550.9 c -24.73,58.73 -49.37,117.43 -73.9,176.1 -12.3,29.2 35.4,41.9 47.5,13.1"
         style="fill:#363c49;fill-opacity:1;fill-rule:nonzero;stroke:none"
         id="path34" /><path
         d="m 4455.8,301.602 192,467.796 308.2,750.602 70.7,172.4 c 11.9,28.9 60,16.2 47.5,-13.1 l -192,-467.8 C 4779.46,961.301 4676.74,711.07 4574,460.801 4550.54,403.398 4526.96,345.969 4503.3,288.5 c -11.9,-29 -59.6,-16.301 -47.5,13.102"
         style="fill:#363c49;fill-opacity:1;fill-rule:nonzero;stroke:none"
         id="path36" /><path
         d="M 5593.4,1656.5 V 295 c 0,-31.699 -49.3,-31.699 -49.3,0 v 1361.5 c 0,31.8 49.3,31.8 49.3,0"
         style="fill:#363c49;fill-opacity:1;fill-rule:nonzero;stroke:none"
         id="path38" /><path
         d="m 6010.9,1708.7 c 0,0 79.5,-35 61.4,-95.2 -18.1,-60.2 -217.8,-85.8 -348.4,-74.1 -130.6,11.7 -647.7,17.6 -647.7,17.6 0,0 -151.6,-39 -151.6,8.8 -0.42,27.35 5.61,54.41 17.6,79 l 1068.7,63.9"
         style="fill:#363c49;fill-opacity:1;fill-rule:nonzero;stroke:none"
         id="path40" /><path
         d="m 5754.9,1838.6 c 314.6,173 270,519.1 261.6,843.9 -232.7,7.6 -620,-21.1 -620,-21.1 v -835.3 h -521.7 l 8.7,-52.2 c 292.2,-60 611.9,-83.6 871.4,64.7"
         style="fill:#26315d;fill-opacity:1;fill-rule:nonzero;stroke:none"
         id="path42" /><path
         d="m 6175.8,2661.4 c -24.2,12.4 -83.6,18.7 -159.3,21.1 8.9,-324.8 53,-670.9 -261.6,-843.9 -260,-148.3 -579.2,-124.7 -871.4,-64.7 l 26.5,-160.8 h 957 c 313.9,0 308.8,410 308.8,410 0,0 98.6,588 0,638.3"
         style="fill:#344385;fill-opacity:1;fill-rule:nonzero;stroke:none"
         id="path44" /><path
         d="m 4310,3083.8 303.9,-267.1 c 0,0 77.7,-74.8 160,-74.8 82.3,0 153.3,107.8 153.3,107.8 l -95.4,82 -86.8,-48.6 c 0,0 -427.9,279 -445,296.4 -17.1,17.4 -163.3,70 -169.3,52.4 -6,-17.6 32.9,-100 61.4,-111.9 28.5,-11.9 117.9,-36.2 117.9,-36.2"
         style="fill:#f8a16f;fill-opacity:1;fill-rule:nonzero;stroke:none"
         id="path46" /><path
         d="m 5253.7,3331.5 c -4.95,5.81 -11.71,9.8 -19.2,11.3 -128.3,-10.7 -446.2,-383.8 -430,-435 16.53,-48.09 62.05,-80.14 112.9,-79.5 13.3,0.8 51.7,20.8 99.2,51.7 34.9,167.6 110.9,334.1 237.1,451.5"
         style="fill:#ffffff;fill-opacity:1;fill-rule:nonzero;stroke:none"
         id="path48" /><path
         d="m 5017.1,2880 c 109.3,71 266.9,199.5 279.5,283.8 13.3,90 -19.3,145.3 -42.9,167.7 -126.2,-117.4 -202.2,-283.9 -236.6,-451.5"
         style="fill:#bebdbb;fill-opacity:1;fill-rule:nonzero;stroke:none"
         id="path50" /><path
         d="m 4698.8,365.402 c 0,0 -63.1,-58.703 -70,-64.004 -6.9,-5.296 -142.1,-124.699 -142.3,-131.5 -0.2,-6.796 10.8,-34.796 50,-26.5 39.2,8.301 291.5,104.403 291.5,104.403 4.44,11.941 5.68,24.828 3.6,37.398 -4.2,17.199 -20,71.301 -20,71.301 l -21.6,23.902 -91.2,-15"
         style="fill:#30283a;fill-opacity:1;fill-rule:nonzero;stroke:none"
         id="path52" /><path
         d="m 4131.1,405.402 h -365.2 c 0,0 -20.8,25.098 22.1,46.2 42.9,21.097 261.9,100 261.9,100 h 88.6 c 0,0 23,-19.301 24.4,-27.301 1.4,-8 0,-96.301 0,-96.301 -5.6,-12.84 -17.83,-21.539 -31.8,-22.598"
         style="fill:#30283a;fill-opacity:1;fill-rule:nonzero;stroke:none"
         id="path54" /><path
         d="m 5244.1,2419.4 c 0,0 17.7,-125.5 -85.1,-181.6 -172.4,-94 -456.2,-116.4 -698.7,-276.1 C 4315,1866 4037.2,551.699 4037.2,551.699 c 52.5,-20.898 96,-26.398 120.8,0 0,0 268.2,740.001 545.9,1074.401 73.7,88.9 643.4,186.9 867.9,332.6 215.9,140 140,385.5 140,385.5 l -467.7,75.2"
         style="fill:#1f2648;fill-opacity:1;fill-rule:nonzero;stroke:none"
         id="path56" /><path
         d="m 5484,2224.8 c 0,0 -315,-129.5 -702.2,-384.5 -145.3,-95.7 -99.3,-1491.902 -99.3,-1491.902 47.3,-7.296 86.4,3 116.3,32.801 0,0 55.7,938.001 294.2,1299.201 88.1,133.3 502.3,-21.7 726.8,124 215.9,140 70,364.7 70,364.7 l -405.8,55.7"
         style="fill:#26315d;fill-opacity:1;fill-rule:nonzero;stroke:none"
         id="path58" /><path
         d="m 5532.9,3393.1 c 0,0 244.6,-91.7 244.6,-240.8 0,-149.1 -15.3,-863.8 -22.9,-905.8 -7.6,-42 -570,-65 -611.6,0 -41.6,65 11.5,783.5 42.1,860 30.6,76.5 50,240.8 164.3,267.5 114.3,26.7 183.5,19.1 183.5,19.1"
         style="fill:#5173c1;fill-opacity:1;fill-rule:nonzero;stroke:none"
         id="path60" /><path
         d="m 5604.9,2568.6 c 46.3,-177.3 152.1,-372.3 321.8,-397.4 -124.1,340.5 -114.5,982 -130,1068.7 -4.3,19.23 -13.73,36.92 -27.3,51.2 -260.9,-140.9 -222,-463.8 -164.5,-722.5"
         style="fill:#bebdbb;fill-opacity:1;fill-rule:nonzero;stroke:none"
         id="path62" /><path
         d="m 5968.6,2078 c -16.42,29.9 -30.44,61.07 -41.9,93.2 -170,25.1 -275.5,220 -321.8,397.4 -57.5,258.7 -96.4,581.6 164.4,722.5 -65.2,74.4 -228.3,134.4 -337.7,126.6 -133.8,-10 -156.7,-55.5 -231.2,-107.1 -74.5,-51.6 -172,-630.6 -226.5,-822.7 -54.5,-192.1 -633.9,-400.9 -395.1,-451.1 175.5,82.1 367.2,118.1 367.2,118.1 0,0 232.1,54 232.1,86.5 0,32.5 13.7,645 33.7,791.2 20,146.2 166.3,310 166.3,310 90,37.2 263.8,-5.1 301.9,-31.9 38.1,-26.8 -154.6,-78.3 -203.7,-305.7 -102.9,-475.6 77.3,-802.1 120.8,-888.4 55.3,-110 -28.9,-616.8 43.8,-640 110.9,-32.3 592.7,-328.3 593.4,-288.9 2,123.9 -97.5,592.2 -265.7,890.3"
         style="fill:#f8f8f8;fill-opacity:1;fill-rule:nonzero;stroke:none"
         id="path64" /><path
         d="m 5408.2,3482.6 7.9,-108.5 c 50,-6.1 103.3,-13.2 149.5,-6.2 l -28.4,135.2 -129,-20.5"
         style="fill:#eb956e;fill-opacity:1;fill-rule:nonzero;stroke:none"
         id="path66" /><path
         d="m 5416.1,3374.1 6.4,-89.3 c 0,0 -185.1,-113.2 -91.1,-157.6 94,-44.4 250,164.8 250,164.8 l -16,75.9 c -46,-7 -99.6,0.1 -149.3,6.2"
         style="fill:#f8a16f;fill-opacity:1;fill-rule:nonzero;stroke:none"
         id="path68" /><path
         d="m 5320.8,3736.3 c 0,0 -15.8,-194.9 15.7,-240.8 31.5,-45.9 97.5,-83.1 166.3,-35.8 68.8,47.3 134.7,126.1 126.1,242.2 -8.6,116.1 -258,221.2 -308.1,34.4"
         style="fill:#f8a16f;fill-opacity:1;fill-rule:nonzero;stroke:none"
         id="path70" /><path
         d="m 5279.2,3825.2 c 0,0 -94.6,-74.5 -58.8,-116.1 35.8,-41.6 -47.3,-94.6 10,-100 57.3,-5.4 118.9,-46.2 123.2,29.2 4.3,75.4 -1.4,104.1 34.4,118.4 35.8,14.3 93.2,-45.9 124.7,-5.7 31.5,40.2 90,40 68.8,-21.5 -21.2,-61.5 -21.5,-87.8 0,-91.2 21.5,-3.4 -14.3,-26.4 -30,-56.5 -15.7,-30.1 -46.4,-57.9 10.5,-70.5 56.9,-12.6 66.9,-4 85.5,24.7 18.6,28.7 34.39,74.5 23,113.2 -11.4,38.7 -17.2,34.4 11.39,50 28.61,15.6 93.21,53 15.81,96 -77.4,43 -84.6,35.8 -78.8,67.4 5.8,31.6 -5.8,50 -44.51,58.7 -38.69,8.7 -78.79,-10 -90,15.8 -11.19,25.8 -101.19,57.3 -110.79,17.2 -9.6,-40.1 -19,-74.5 -56.6,-48.7 -37.6,25.8 -51.9,27.2 -51.9,27.2 0,0 -53.1,-12.9 -31.6,-44.4 21.5,-31.5 -71.6,-45.8 -34.4,-50 37.2,-4.2 80.1,-13.2 80.1,-13.2"
         style="fill:#30283a;fill-opacity:1;fill-rule:nonzero;stroke:none"
         id="path72" /><path
         d="m 5777.5,2590.8 c 0,0 -332.3,-421.4 -341.3,-438.8 -9,-17.4 -114.6,-156 -135.3,-170 -20.7,-14 -95.8,44.4 -93.6,61.9 2.2,17.5 30,68.2 50.6,72.4 20.6,4.2 18.5,-31.4 48.7,-18.2 30.2,13.2 147.3,269.2 176.6,311.5 29.3,42.3 139.3,185.4 148.9,191.7 1.6,1.1 -16.3,98.9 0,112.5 37.5,30.9 130,-8.5 157.1,-11.4 28.9,-2.7 -11.7,-111.6 -11.7,-111.6"
         style="fill:#f8a16f;fill-opacity:1;fill-rule:nonzero;stroke:none"
         id="path74" /><path
         d="m 5701.8,3204.5 c 0,0 93.4,54.6 129,-5.1 35.6,-59.7 3.7,-465.9 -8.6,-526.4 -12.3,-60.5 -12.4,-23.7 -12.4,-23.7 l -207.3,-22.9 c 0,0 -21.8,376.2 18.2,452.3 22.98,44.41 50.14,86.53 81.1,125.8"
         style="fill:#ffffff;fill-opacity:1;fill-rule:nonzero;stroke:none"
         id="path76" /><path
         d="m 5382.9,3080.1 c 5.32,24.12 18.56,45.77 37.6,61.5 16.36,12.38 36.38,18.93 56.9,18.6 16.56,-0.28 32.9,-3.68 48.2,-10 20.72,20.26 39.87,42.06 57.3,65.2 13.26,17.45 24.81,36.14 34.5,55.8 8.99,17.47 14.06,36.68 14.9,56.3 0.46,16.7 -5.89,32.88 -17.6,44.8 -12.6,13.1 -24.2,22.1 -56.3,30 l -2.3,16.3 c 26.09,-4.73 50.12,-17.29 68.9,-36 14.24,-14.6 22.02,-34.31 21.6,-54.7 -0.97,-23.27 -7.22,-46.01 -18.3,-66.5 -16.37,-31.22 -36.52,-60.31 -60,-86.6 -11.8,-13.5 -22,-24 -28.6,-30.6 18.68,-9.57 34.95,-23.25 47.6,-40 10.47,-16.35 15.48,-35.62 14.3,-55 0,-38.6 -12.4,-84.1 -24.6,-120 -12.21,-35.9 -24.5,-63 -24.5,-63.1 l -13,5.9 v 0 l 0.5,1.1 c 2.6,5.9 14.5,33.2 25.7,67.5 12.54,35.07 19.86,71.8 21.7,109 1.09,16.33 -2.97,32.59 -11.6,46.5 -11.46,14.92 -26.12,27.08 -42.9,35.6 -17.04,9.08 -35.99,14.02 -55.3,14.4 -17.33,0.41 -34.28,-5.05 -48.1,-15.5 -16.58,-13.87 -28.05,-32.87 -32.6,-54 -14.8,-55.6 -24.7,-101.7 -30.9,-134 -3.1,-16.1 -5.3,-28.7 -6.7,-37.3 -0.7,-4.3 -1.2,-7.6 -1.5,-10 -0.3,-2.4 0,-3.3 0,-3.3 l -14.2,1.9 c 9.7,62.74 22.83,124.89 39.3,186.2"
         style="fill:#363140;fill-opacity:1;fill-rule:nonzero;stroke:none"
         id="path78" /><path
         d="m 5415.1,3382.1 c -21.18,-18.78 -41.22,-38.81 -60,-60 -34.1,-36.5 -69.4,-83.1 -81.8,-127.6 -8.87,-32.92 -13.21,-66.9 -12.9,-101 0.04,-23.93 1.78,-47.82 5.21,-71.5 1.29,-8.9 2.59,-16.1 3.59,-21 0.5,-2.5 0.9,-4.4 1.2,-5.6 v -1.5 0 l -13.9,-3.4 c -7.23,33.99 -10.85,68.65 -10.8,103.4 -0.25,35.41 4.26,70.69 13.4,104.9 8.44,27.01 21.2,52.48 37.8,75.4 32.74,45.88 71.67,87.01 115.7,122.2 1.39,-4.65 2.23,-9.45 2.5,-14.3"
         style="fill:#363140;fill-opacity:1;fill-rule:nonzero;stroke:none"
         id="path80" /><path
         d="m 5267.4,3038.6 c 27.34,0 49.5,-22.16 49.5,-49.5 0,-27.34 -22.16,-49.5 -49.5,-49.5 -27.34,0 -49.5,22.16 -49.5,49.5 0,27.34 22.16,49.5 49.5,49.5"
         style="fill:#c7acdc;fill-opacity:1;fill-rule:nonzero;stroke:none"
         id="path82" /><path
         d="m 5267.4,3015.8 c 14.75,0 26.7,-11.95 26.7,-26.7 0,-14.75 -11.95,-26.7 -26.7,-26.7 -14.74,0 -26.7,11.95 -26.7,26.7 0,14.75 11.96,26.7 26.7,26.7"
         style="fill:#363140;fill-opacity:1;fill-rule:nonzero;stroke:none"
         id="path84" /><path
         d="m 5352.9,2903.2 c 9.5,0 17.2,-7.7 17.2,-17.2 0,-9.5 -7.7,-17.2 -17.2,-17.2 -9.5,0 -17.2,7.7 -17.2,17.2 0,9.5 7.7,17.2 17.2,17.2"
         style="fill:#363140;fill-opacity:1;fill-rule:nonzero;stroke:none"
         id="path86" /><path
         d="m 5544.4,2882.9 c 9.5,0 17.2,-7.7 17.2,-17.2 0,-9.5 -7.7,-17.2 -17.2,-17.2 -9.5,0 -17.2,7.7 -17.2,17.2 0,9.5 7.7,17.2 17.2,17.2"
         style="fill:#363140;fill-opacity:1;fill-rule:nonzero;stroke:none"
         id="path88" /><path
         d="m 3316.4,2743.1 c 0,0 48.3,63.4 119.3,41.6 71,-21.8 112.1,-92.7 112.1,-92.7 0,0 -15.6,-62.5 -69.5,-32.7 -53.9,29.8 -118.3,18.3 -118.3,18.3 l -43.6,65.5"
         style="fill:#fab58c;fill-opacity:1;fill-rule:nonzero;stroke:none"
         id="path90" /><path
         d="m 2491.6,3191.1 c 0,0 69.1,-4 155.1,-107.8 86,-103.8 275.3,-397.2 275.3,-410 0,-12.8 -30,-127.1 -98.4,-125.3 -68.4,1.8 -164.7,200 -202.3,275.6 -37.6,75.6 -167.3,321 -129.7,367.5"
         style="fill:#9bafe0;fill-opacity:1;fill-rule:nonzero;stroke:none"
         id="path92" /><path
         d="M 3316.4,2771.6 3380,2659 c 0,0 -484.9,-181.1 -537.9,-142.2 -53,38.9 -84.9,61.7 -60,98.4 24.9,36.7 72.4,48.5 98.3,56.3 25.9,7.8 436,100.1 436,100.1"
         style="fill:#9bafe0;fill-opacity:1;fill-rule:nonzero;stroke:none"
         id="path94" /><path
         d="m 2784.1,458.199 -35.5,-198 30,-3.898 c 0,0 19.2,86.097 31.1,84.801 11.9,-1.301 32.7,-65.801 128,-78.903 95.3,-13.097 95.4,-5.898 95.4,-5.898 0,0 25.7,18.398 0,36.097 -25.7,17.704 -163.8,126.301 -167,133.602 -2.4,10.559 -3.51,21.371 -3.3,32.199 h -78.7"
         style="fill:#30283a;fill-opacity:1;fill-rule:nonzero;stroke:none"
         id="path96" /><path
         d="m 2551.5,2156.3 c 0,0 229.1,-120.9 304.3,-142.4 75.2,-21.5 288.1,-71 405.4,-183.6 61.3,-58.8 -381.7,-1379.999 -381.7,-1379.999 L 2764,438.398 c 0,0 107,692.502 110,770.002 3,77.5 126,429.8 126,429.8 l -351.6,8.1 c 0,0 -448.4,13.4 -453.7,182.5 -5.3,169.1 18.6,354.3 142.1,354.3 72.42,0.38 144.59,-8.63 214.7,-26.8"
         style="fill:#1f2648;fill-opacity:1;fill-rule:nonzero;stroke:none"
         id="path98" /><path
         d="m 2181.1,2164.4 c 0,0 541.3,-238.2 560,-377.4 C 2759.8,1647.8 2518.4,397 2518.4,397 H 2415 c -16.1,0 12.1,1055.5 -3.1,1175.9 -15.2,120.4 -180,105.8 -271.1,138 -91.1,32.2 -128.6,56.2 -153.2,159.2 -29.5,124.3 75.3,294.5 75.3,294.5 l 118.2,-0.2"
         style="fill:#26315d;fill-opacity:1;fill-rule:nonzero;stroke:none"
         id="path100" /><path
         d="m 2503.2,3187.2 c 0,0 102,-158.4 131.5,-217.4 29.5,-59 125.4,-180.8 90,-231.8 -35.4,-51 -148.2,-114.4 -170,-197.6 -21.8,-83.2 72.9,-378.7 66.7,-402.8 -6.2,-24.1 -465.3,-53.7 -465.3,-53.7 l -136.1,13.4 c 0,0 77.8,386.6 72.5,426.8 -5.3,40.2 -70,518.1 -45.7,585.3 24.3,67.2 257.7,147.6 456.4,77.8"
         style="fill:#d3ecfa;fill-opacity:1;fill-rule:nonzero;stroke:none"
         id="path102" /><path
         d="m 2121.1,3005.4 c 0,0 -47.4,-308.6 -76.1,-439.2 -28.7,-130.6 -134.2,-195.1 -182.5,-170 -48.3,25.1 27.9,396.3 46.2,483.3 35.5,168.3 118.4,286 177.6,271.6 59.2,-14.4 38.6,-102.1 34.8,-145.7"
         style="fill:#9bafe0;fill-opacity:1;fill-rule:nonzero;stroke:none"
         id="path104" /><path
         d="m 2388.2,2489.4 c 0,0 104.4,7.6 123.8,43.4 19.4,35.8 22.2,-9 19.3,-21.7 -2.9,-12.7 5.8,-26.9 43,-12.6 37.2,14.3 58.6,10 40,-38.7 -18.6,-48.7 -103,-84.4 -145.9,-64.4 -38.95,15.96 -79.07,28.89 -120,38.7 l 39.8,55.3"
         style="fill:#fab58c;fill-opacity:1;fill-rule:nonzero;stroke:none"
         id="path106" /><path
         d="m 1971,2526.8 c 0,0 463.3,30 463.3,0 0,-30 -91,-105.6 -74.2,-132.4 16.8,-26.8 -410.8,-33.7 -428.7,-33.7 -17.9,0 -84.6,23.3 -82.9,68 1.7,44.7 46,93.6 122.5,98.1"
         style="fill:#9bafe0;fill-opacity:1;fill-rule:nonzero;stroke:none"
         id="path108" /><path
         d="m 2411.9,3400.6 c 0,0 59.1,-299.3 22.8,-319.4 -36.3,-20.1 -157,13.4 -174.5,29.5 -17.5,16.1 50,291.3 48.4,324.8 -1.6,33.5 103.3,-34.9 103.3,-34.9"
         style="fill:#fab58c;fill-opacity:1;fill-rule:nonzero;stroke:none"
         id="path110" /><path
         d="m 2481.6,3660.1 c 110,47.4 93.7,-410.8 -26.2,-410 -119.9,0.8 -262.6,120 -256.1,215.8 3.7,54.3 38.8,178.4 109.5,213 54.1,26.8 142.7,-31.7 172.8,-18.8"
         style="fill:#fab58c;fill-opacity:1;fill-rule:nonzero;stroke:none"
         id="path112" /><path
         d="m 2517.1,3401.2 c 0,0 88.1,17 102,161.9 13.9,144.9 -47.1,171.1 -80,160 -136.2,123.2 -305.5,43.6 -312.9,37.1 -7.4,-6.5 -52.2,-45.8 -66.3,-97 -88.3,-8.7 -202.7,-41.4 -150,-102.4 52.7,-61 137.3,-4.4 137.3,-4.4 0,0 -48,-94.8 -25.1,-135.1 22.9,-40.3 142.1,-84.5 142.1,-84.5 0,0 -76.7,116.1 -49.4,148.8 27.3,32.7 56.6,-41.4 56.6,-41.4 0,0 19.2,83.9 32,87.1 -36.9,42.1 -41.8,113.4 31.2,114.5 43.5,0.57 85.3,-16.79 115.6,-48 0,0 70.8,61 85,31.6 14.2,-29.4 -4.2,-77.3 -17.9,-98.1 -13.7,-20.8 -2.2,-85.2 -2.2,-85.2 l 2,-44.9"
         style="fill:#30283a;fill-opacity:1;fill-rule:nonzero;stroke:none"
         id="path114" /><path
         d="M 2427,401.898 2391.5,204 l 30,-4 c 0,0 19.2,86.199 31,84.898 11.8,-1.296 32.8,-65.796 128.1,-78.898 95.3,-13.109 95.4,-6 95.4,-6 0,0 25.6,18.5 0,36.199 -25.6,17.699 -163.8,126.301 -167.1,133.5 -2.4,10.563 -3.51,21.371 -3.3,32.199 H 2427"
         style="fill:#30283a;fill-opacity:1;fill-rule:nonzero;stroke:none"
         id="path116" /><path
         d="m 4776.1,4223.1 150,-261.1 c 5.98,-10.33 2.45,-23.54 -7.88,-29.52 -5.63,-3.26 -12.44,-3.8 -18.52,-1.48 L 4358,4137.3 c -141.16,0 -255.6,114.44 -255.6,255.6 0,0.07 0,0.13 0,0.2 v 123.1 c 0.05,141.12 114.48,255.5 255.6,255.5 h 438.4 c 141.11,0.06 255.54,-114.29 255.6,-255.4 0,-0.03 0,-0.07 0,-0.1 v -123.1 c 0,-141.4 -134.7,-170 -275.9,-170"
         style="fill:#5173c1;fill-opacity:1;fill-rule:nonzero;stroke:none"
         id="path118" /><path
         d="m 4383.8,4649.7 h 449.1 v -23.8 h -449.1 v 23.8"
         style="fill:#fcfcf6;fill-opacity:1;fill-rule:nonzero;stroke:none"
         id="path120" /><path
         d="m 4266.2,4572.5 h 572.7 v -23.8 h -572.7 v 23.8"
         style="fill:#fcfcf6;fill-opacity:1;fill-rule:nonzero;stroke:none"
         id="path122" /><path
         d="m 4266.2,4492.9 h 572.7 v -23.8 h -572.7 v 23.8"
         style="fill:#fcfcf6;fill-opacity:1;fill-rule:nonzero;stroke:none"
         id="path124" /><path
         d="m 4266.2,4413.3 h 572.7 v -23.8 h -572.7 v 23.8"
         style="fill:#fcfcf6;fill-opacity:1;fill-rule:nonzero;stroke:none"
         id="path126" /><path
         d="m 4266.2,4333.7 h 572.7 v -23.8 h -572.7 v 23.8"
         style="fill:#fcfcf6;fill-opacity:1;fill-rule:nonzero;stroke:none"
         id="path128" /><path
         d="m 2922,5093.1 c 182.09,0 329.7,-147.61 329.7,-329.7 0,-182.09 -147.61,-329.7 -329.7,-329.7 -182.09,0 -329.7,147.61 -329.7,329.7 0,182.09 147.61,329.7 329.7,329.7"
         style="fill:#d3ecfa;fill-opacity:1;fill-rule:nonzero;stroke:none"
         id="path130" /><path
         d="m 2922,5037.9 c 151.6,0 274.5,-122.9 274.5,-274.5 0,-151.6 -122.9,-274.5 -274.5,-274.5 -151.6,0 -274.5,122.9 -274.5,274.5 0,151.6 122.9,274.5 274.5,274.5"
         style="fill:#ffffff;fill-opacity:1;fill-rule:nonzero;stroke:none"
         id="path132" /><path
         d="m 2908.7,4994.2 c 0,-71.1 -4.3,-143.6 0,-214.6 0.4,-4.35 0.4,-8.74 0,-13.1 -0.7,-4.6 3.7,11.4 -0.8,0 -5.9,-15.4 -15.2,-30 -22.6,-45.1 l -46.8,-93.5 c -8.6,-17.2 17.3,-32.4 26,-15.1 24.2,48.4 68.3,106.2 74.2,160 7.9,72.1 0,149.1 0,221.6 -0.06,8.28 -6.82,14.96 -15.1,14.9 -8.28,-0.06 -14.96,-6.82 -14.9,-15.1"
         style="fill:#d3ecfa;fill-opacity:1;fill-rule:nonzero;stroke:none"
         id="path134" /><path
         d="m 5721.8,4996.4 v 0 c 0.06,-150.88 -122.22,-273.24 -273.1,-273.3 -0.04,0 -0.07,0 -0.1,0 v 0 c 150.9,-0.05 273.2,-122.4 273.2,-273.3 v 0 c 0.06,150.92 122.38,273.25 273.3,273.3 v 0 c -150.94,0 -273.3,122.36 -273.3,273.3 v 0"
         style="fill:#d3ecfa;fill-opacity:1;fill-rule:nonzero;stroke:none"
         id="path136" /><path
         d="m 1146.4,3591.1 v 0 c 0,-108.97 -88.33,-197.3 -197.298,-197.3 v 0 c 108.908,0.06 197.238,-88.19 197.298,-197.1 0,-0.04 0,-0.06 0,-0.1 v 0 c 0,108.91 88.29,197.2 197.2,197.2 v 0 0 c -108.93,0.06 -197.2,88.37 -197.2,197.3"
         style="fill:#d3ecfa;fill-opacity:1;fill-rule:nonzero;stroke:none"
         id="path138" /><path
         d="m 4163.5,3904.6 v 0 c 0,-52.41 -42.48,-94.9 -94.9,-94.9 v 0 c 52.42,0 94.9,-42.49 94.9,-94.9 0,-0.03 0,-0.07 0,-0.1 v 0 c 0,52.47 42.54,95 95,95 v 0 0 c -52.43,0 -94.95,42.47 -95,94.9"
         style="fill:#ffffff;fill-opacity:1;fill-rule:nonzero;stroke:none"
         id="path140" /><path
         d="m 758.801,582.199 -2,6.199 c -9.004,28.5 -44.699,150 -44.699,251.204 0,40.699 5.796,78.097 20.796,104.796 28.903,52 97.598,95.402 159.106,125.102 30.793,14.9 60,26.5 80.894,34.3 10.602,3.9 19.305,6.9 25.301,8.9 l 9.301,3 -3,10 c -40.059,-12.82 -79.152,-28.46 -117,-46.8 -62.203,-30 -132.301,-73.7 -163.598,-129.298 -16.304,-29.2 -22.004,-68.102 -22.004,-110 0,-118.5 47.102,-260 47.204,-260.602 l 10,3.199 h -0.301"
         style="fill:#26569c;fill-opacity:1;fill-rule:nonzero;stroke:none"
         id="path142" /><path
         d="m 760,1380.8 c -30.242,-7.3 -57.578,-23.58 -78.398,-46.7 -38.805,-40 -77,-114.1 -76.899,-247.4 0.235,-41.73 3.41,-83.4 9.496,-124.7 27,-190.801 40.504,-296.398 47.301,-354.398 3.402,-29 5,-46 5.902,-55.801 0,-4.801 0.594,-7.903 0.7,-10 v -2.199 h 10 c 0,0 0,10.8 -6.801,68.898 -6.797,58.102 -20,163.801 -47.301,354.602 -6.004,40.828 -9.141,82.028 -9.398,123.298 0,131.4 37.402,202.1 74.097,240 14.274,15.07 31.227,27.34 50,36.2 5.305,2.44 10.789,4.48 16.399,6.1 l 4.504,1.2 h 1.097 v 0 l -1.597,10 0.898,0.9"
         style="fill:#26569c;fill-opacity:1;fill-rule:nonzero;stroke:none"
         id="path144" /><path
         d="m 255.801,1295.1 1.898,-2.7 c 33.246,-50.01 62.926,-102.31 88.801,-156.5 38.797,-81.2 75.102,-181.798 75.102,-271.701 0,-10 0,-20 -1.403,-30 -4.597,-47 -6.398,-88.301 -6.398,-123.898 0,-115.699 18.601,-171.801 18.797,-172.301 l 10,3.301 v 0.5 c -1.899,6.09 -18.094,61 -18.094,168.5 0,35.301 1.797,76.199 6.297,122.898 1,10 1.5,20 1.5,30.801 0,98.801 -42.102,207.7 -83.903,292.2 -24.636,50.02 -52.597,98.33 -83.695,144.6 l -8.402,-5.9 -0.5,0.2"
         style="fill:#26569c;fill-opacity:1;fill-rule:nonzero;stroke:none"
         id="path146" /><path
         d="m 451.898,1435.2 3.903,-14.3 c 8.597,-32.2 30,-115.2 50,-208.8 20,-93.6 36.601,-197.6 36.601,-271.401 0.133,-15.148 -0.8,-30.289 -2.8,-45.297 -5.664,-41.023 -8.375,-82.39 -8.102,-123.8 -0.047,-57.231 4.102,-114.383 12.402,-171 3.051,-21.262 7.325,-42.332 12.797,-63.102 2.965,-13.238 8.211,-25.859 15.504,-37.301 l 7.996,6.403 c -6.406,10.347 -11,21.707 -13.597,33.597 -13.805,50 -24.903,140.699 -24.903,231.403 -0.261,40.898 2.41,81.769 8.004,122.296 2.07,15.512 3.039,31.153 2.895,46.801 0,86.101 -22.696,210.001 -45.297,313.001 -22.598,103 -45.199,184.2 -45.199,184.2 l -10,-2.7 h -0.204"
         style="fill:#26569c;fill-opacity:1;fill-rule:nonzero;stroke:none"
         id="path148" /><path
         d="m 744.801,957.801 c 0,0 -102.102,123.999 147.601,204.099 C 1142.1,1242 1351.7,1038 1351.7,1038 c 0,0 -263.4,2 -308,-10.9 C 930.699,994.301 806.801,853.898 744.801,957.801"
         style="fill:#a9d7f3;fill-opacity:1;fill-rule:nonzero;stroke:none"
         id="path150" /><path
         d="m 685.098,1298 c 0,0 -58.797,93.5 54.203,120.9 113,27.4 266.699,-60.5 266.699,-60.5 0,0 -287.699,-8.1 -320.902,-60.4"
         style="fill:#397bc7;fill-opacity:1;fill-rule:nonzero;stroke:none"
         id="path152" /><path
         d="m 544.301,1180.6 c 0,0 36.5,115.7 0,195.2 C 507.797,1455.3 360,1648.1 360,1648.1 c 0,0 -14.602,-286.8 21.801,-350 36.398,-63.2 82,-144.1 74.699,-247.6 C 449.199,947 511.801,892.301 548.902,897.699 586,903.102 602.996,1037.6 544.301,1180.6"
         style="fill:#397bc7;fill-opacity:1;fill-rule:nonzero;stroke:none"
         id="path154" /><path
         d="m 0,1214.1 c 0,0 252.699,29 325.602,-141 72.898,-169.998 119.101,-121.498 94.796,-34 -24.3,87.5 -51,257.7 -150.398,286.8 C 170.602,1355 41.2969,1338.1 0,1214.1"
         style="fill:#397bc7;fill-opacity:1;fill-rule:nonzero;stroke:none"
         id="path156" /><path
         d="m 150.699,848.199 c 0,0 187.403,184.301 265.301,40.801 42.301,-75.398 -42,-44.398 -70,-26.699 C 317.996,880 170.801,876.898 150.699,848.199"
         style="fill:#479ada;fill-opacity:1;fill-rule:nonzero;stroke:none"
         id="path158" /><path
         d="M 369.398,713.102 H 868.801 V 683.898 H 369.398 v 29.204"
         style="fill:#26315d;fill-opacity:1;fill-rule:nonzero;stroke:none"
         id="path160" /><path
         d="M 369.398,663.898 H 868.801 V 634.699 H 369.398 v 29.199"
         style="fill:#26315d;fill-opacity:1;fill-rule:nonzero;stroke:none"
         id="path162" /><path
         d="M 462.004,248.398 H 776 V 219.199 H 462.004 v 29.199"
         style="fill:#255166;fill-opacity:1;fill-rule:nonzero;stroke:none"
         id="path164" /><path
         d="M 866.602,614.699 H 371.5 c -11.898,-126.5 26.098,-244.898 90.504,-359.097 h 314.094 c 64.398,114.199 102.402,232.597 90.504,359.097"
         style="fill:#26315d;fill-opacity:1;fill-rule:nonzero;stroke:none"
         id="path166" /></g></g></svg>
