<?xml version="1.0" encoding="UTF-8" standalone="no"?>
<svg
   xmlns:dc="http://purl.org/dc/elements/1.1/"
   xmlns:cc="http://creativecommons.org/ns#"
   xmlns:rdf="http://www.w3.org/1999/02/22-rdf-syntax-ns#"
   xmlns:svg="http://www.w3.org/2000/svg"
   xmlns="http://www.w3.org/2000/svg"
   xmlns:sodipodi="http://sodipodi.sourceforge.net/DTD/sodipodi-0.dtd"
   xmlns:inkscape="http://www.inkscape.org/namespaces/inkscape"
   version="1.1"
   id="svg2"
   xml:space="preserve"
   width="898.59998"
   height="692.06665"
   viewBox="0 0 898.59998 692.06665"
   sodipodi:docname="reshot-illustration-medical-monitoring-BZPVAWSKTE.eps"><metadata
     id="metadata8"><rdf:RDF><cc:Work
         rdf:about=""><dc:format>image/svg+xml</dc:format><dc:type
           rdf:resource="http://purl.org/dc/dcmitype/StillImage" /></cc:Work></rdf:RDF></metadata><defs
     id="defs6" /><sodipodi:namedview
     pagecolor="#ffffff"
     bordercolor="#666666"
     borderopacity="1"
     objecttolerance="10"
     gridtolerance="10"
     guidetolerance="10"
     inkscape:pageopacity="0"
     inkscape:pageshadow="2"
     inkscape:window-width="640"
     inkscape:window-height="480"
     id="namedview4" /><g
     id="g10"
     inkscape:groupmode="layer"
     inkscape:label="ink_ext_XXXXXX"
     transform="matrix(1.3333333,0,0,-1.3333333,0,692.06667)"><g
       id="g12"
       transform="scale(0.1)"><path
         d="m 3607.9,5164.6 v -1.05 H 5365.65 V 3171.75 H 3608.95 V 5164.6 h -1.05 v -1.05 1.05 h -1.05 V 3169.65 h 1760.9 v 1996 h -1760.9 v -1.05 h 1.05"
         style="fill:#c8e7f8;fill-opacity:1;fill-rule:nonzero;stroke:none"
         id="path14" /><path
         d="m 3607.9,3454.45 h 1758.8 v 2.1016 H 3607.9 Z"
         style="fill:#c8e7f8;fill-opacity:1;fill-rule:nonzero;stroke:none"
         id="path16" /><path
         d="m 3607.9,3739.35 h 1758.8 v 2.0977 H 3607.9 Z"
         style="fill:#c8e7f8;fill-opacity:1;fill-rule:nonzero;stroke:none"
         id="path18" /><path
         d="m 3607.9,4024.15 h 1758.8 v 2.1016 H 3607.9 Z"
         style="fill:#c8e7f8;fill-opacity:1;fill-rule:nonzero;stroke:none"
         id="path20" /><path
         d="m 3607.9,4309.05 h 1758.8 v 2.0977 H 3607.9 Z"
         style="fill:#c8e7f8;fill-opacity:1;fill-rule:nonzero;stroke:none"
         id="path22" /><path
         d="m 3607.9,4593.85 h 1758.8 v 2.1016 H 3607.9 Z"
         style="fill:#c8e7f8;fill-opacity:1;fill-rule:nonzero;stroke:none"
         id="path24" /><path
         d="m 3607.9,4878.75 h 1758.8 v 2.0977 H 3607.9 Z"
         style="fill:#c8e7f8;fill-opacity:1;fill-rule:nonzero;stroke:none"
         id="path26" /><path
         d="m 4779.45,3170.7 h 2.1016 v 1993.9 h -2.1016 z"
         style="fill:#c8e7f8;fill-opacity:1;fill-rule:nonzero;stroke:none"
         id="path28" /><path
         d="m 4193.15,3170.7 h 2.1016 v 1993.9 h -2.1016 z"
         style="fill:#c8e7f8;fill-opacity:1;fill-rule:nonzero;stroke:none"
         id="path30" /><path
         d="m 3607.16,5165.34 -91,-90.9 1.49,-1.48 90.99,90.9"
         style="fill:#c8e7f8;fill-opacity:1;fill-rule:nonzero;stroke:none"
         id="path32" /><path
         d="m 3607.16,4880.54 -91,-91 1.49,-1.48 90.99,91 -1.48,1.48"
         style="fill:#c8e7f8;fill-opacity:1;fill-rule:nonzero;stroke:none"
         id="path34" /><path
         d="m 3607.16,4595.64 -91,-90.89 1.49,-1.49 90.99,90.9 -1.48,1.48"
         style="fill:#c8e7f8;fill-opacity:1;fill-rule:nonzero;stroke:none"
         id="path36" /><path
         d="m 3607.16,4310.84 -91,-91 1.49,-1.48 90.99,91 -1.48,1.48"
         style="fill:#c8e7f8;fill-opacity:1;fill-rule:nonzero;stroke:none"
         id="path38" /><path
         d="m 3607.16,4025.94 -91,-90.9 1.49,-1.48 90.99,90.9 -1.48,1.48"
         style="fill:#c8e7f8;fill-opacity:1;fill-rule:nonzero;stroke:none"
         id="path40" /><path
         d="m 3607.16,3741.15 -91,-91.01 1.49,-1.48 90.99,91 -1.48,1.49"
         style="fill:#c8e7f8;fill-opacity:1;fill-rule:nonzero;stroke:none"
         id="path42" /><path
         d="m 3607.16,3456.24 -91,-90.9 1.49,-1.48 90.99,90.9 -1.48,1.48"
         style="fill:#c8e7f8;fill-opacity:1;fill-rule:nonzero;stroke:none"
         id="path44" /><path
         d="m 3436.1,3356.6 v 0 l -9,-4.8 -1.4,5.3 11.3,6 h 6 v -51.6 h -6.8 l -0.1,45.1"
         style="fill:#c8e7f8;fill-opacity:1;fill-rule:nonzero;stroke:none"
         id="path46" /><path
         d="m 3468,3337.1 c 0,-13.5 4.2,-21.1 10.5,-21.1 6.29,0 10.6,8.3 10.6,21.5 0,13.2 -3.3,21.1 -10.5,21.1 -7.2,0 -10.6,-7.5 -10.6,-21.5 z m 28.1,0.8 c 0,-17.6 -6.5,-27.3 -18,-27.3 -11.5,0 -16.9,9.4 -17.1,26.5 -0.2,17.1 7.5,26.9 18,26.9 10.5,0 17.1,-9.7 17.1,-26.1"
         style="fill:#c8e7f8;fill-opacity:1;fill-rule:nonzero;stroke:none"
         id="path48" /><path
         d="m 3420.9,3594.3 v 4.3 l 5.5,5.3 c 13.2,12.6 19.2,19.3 19.3,27 0.46,5.06 -3.27,9.54 -8.33,10 h -1.67 c -4.05,-0.12 -7.94,-1.64 -11,-4.3 l -2.2,4.9 c 4.11,3.38 9.28,5.22 14.6,5.2 7.97,0.78 15.06,-5.05 15.84,-13.02 l 0.06,-1.98 c 0,-9.5 -7,-17.2 -17.9,-27.7 l -4.1,-3.8 h 23.2 v -5.8 l -33.3,-0.1"
         style="fill:#c8e7f8;fill-opacity:1;fill-rule:nonzero;stroke:none"
         id="path50" /><path
         d="m 3468,3619.7 c 0,-13.4 4.2,-21.1 10.5,-21.1 6.29,0 10.6,8.4 10.6,21.6 0,13.2 -3.3,21 -10.5,21 -7.2,0 -10.6,-7.2 -10.6,-21.3 z m 28.1,0.8 c 0,-17.6 -6.5,-27.3 -18,-27.3 -11.5,0 -16.9,10 -17.1,26.6 -0.2,16.6 7.5,26.8 18,26.8 10.5,0 17.1,-9.5 17.1,-26.1"
         style="fill:#c8e7f8;fill-opacity:1;fill-rule:nonzero;stroke:none"
         id="path52" /><path
         d="m 3422.6,3885.1 c 3.51,-2 7.46,-3.1 11.5,-3.2 8.9,0 11.7,5.7 11.6,10 0,7.2 -6.6,10 -13.3,10 h -3.9 v 5.3 h 3.9 c 5.1,0 11.5,2.6 11.5,8.7 0,4.2 -2.6,7.8 -9.1,7.8 -3.59,-0.15 -7.06,-1.33 -10,-3.4 l -1.8,5.1 c 4.01,2.63 8.7,4.03 13.5,4 10,0 14.8,-6.1 14.8,-12.4 -0.18,-5.85 -4.3,-10.83 -10,-12.1 6.63,-0.94 11.57,-6.6 11.6,-13.3 0,-8.2 -6.5,-15.5 -18.9,-15.5 -4.69,-0.03 -9.32,1.18 -13.4,3.5 l 2,5.5"
         style="fill:#c8e7f8;fill-opacity:1;fill-rule:nonzero;stroke:none"
         id="path54" /><path
         d="m 3468,3902.7 c 0,-13.4 4.2,-21.1 10.5,-21.1 6.29,0 10.6,8.4 10.6,21.6 0,13.2 -3.3,21.1 -10.5,21.1 -7.2,0 -10.6,-7.5 -10.6,-21.6 z m 28.1,0.8 c 0,-17.6 -6.5,-27.3 -18,-27.3 -11.5,0 -16.9,10 -17.1,26.6 -0.2,16.6 7.5,26.9 18,26.9 10.5,0 17.1,-9.7 17.1,-26.2"
         style="fill:#c8e7f8;fill-opacity:1;fill-rule:nonzero;stroke:none"
         id="path56" /><path
         d="m 3442.6,4179.9 v 16.8 c 0,2.7 0,5.4 0,8.2 -1.6,-3.1 -2.9,-5.3 -4.3,-7.7 l -12.7,-17.5 z m 0,-20 v 14.1 h -24.1 v 4.6 l 23.1,33 h 7.6 v -32.1 h 7.2 v -5.5 h -7.2 v -14.1 h -6.6"
         style="fill:#c8e7f8;fill-opacity:1;fill-rule:nonzero;stroke:none"
         id="path58" /><path
         d="m 3468,4185.5 c 0,-13.4 4.2,-21 10.5,-21 6.29,0 10.6,8.3 10.6,21.5 0,13.2 -3.3,21.1 -10.5,21.1 -7.2,0 -10.6,-7.5 -10.6,-21.6 z m 28.1,0.8 c 0,-17.5 -6.5,-27.2 -18,-27.2 -11.5,0 -16.9,9.4 -17.1,26.5 -0.2,17.1 7.5,26.9 18,26.9 10.5,0 17.1,-9.7 17.1,-26.2"
         style="fill:#c8e7f8;fill-opacity:1;fill-rule:nonzero;stroke:none"
         id="path60" /><path
         d="m 3451.8,4488.5 h -20 l -2,-13.2 c 1.4,0.08 2.8,0.08 4.2,0 3.88,0.08 7.72,-0.89 11.1,-2.8 4.74,-2.71 7.6,-7.84 7.4,-13.3 -0.14,-9.89 -8.26,-17.79 -18.15,-17.65 l -1.05,0.05 c -4.51,-0.11 -8.96,1 -12.9,3.2 l 1.7,5.3 c 3.4,-1.88 7.22,-2.88 11.1,-2.9 6.28,-0.44 11.73,4.29 12.17,10.57 l 0.03,0.63 c 0,6.7 -4.5,11.5 -14.8,11.5 -2.42,0 -4.82,-0.2 -7.2,-0.6 l 3.4,24.8 h 24.7 l 0.3,-5.6"
         style="fill:#c8e7f8;fill-opacity:1;fill-rule:nonzero;stroke:none"
         id="path62" /><path
         d="m 3468,4468.4 c 0,-13.5 4.2,-21.1 10.5,-21.1 6.29,0 10.6,8.3 10.6,21.5 0,13.2 -3.3,21.1 -10.5,21.1 -7.2,0 -10.6,-7.5 -10.6,-21.5 z m 28.1,0.7 c 0,-17.5 -6.5,-27.2 -18,-27.2 -11.5,0 -16.9,9.4 -17.1,26.5 -0.2,17.1 7.5,26.9 18,26.9 10.5,0 17.1,-9.7 17.1,-26.2"
         style="fill:#c8e7f8;fill-opacity:1;fill-rule:nonzero;stroke:none"
         id="path64" /><path
         d="m 3448,4742.3 c 0.77,5.75 -3.25,11.03 -9.01,11.81 l -1.59,0.09 c -4.26,-0.14 -8.09,-2.59 -10,-6.4 -0.55,-0.94 -0.84,-2.01 -0.8,-3.1 0,-8.5 4,-14.8 11.3,-14.8 7.3,0 10.5,5.2 10.5,12.6 z m 2,30 c -1.73,0.18 -3.47,0.18 -5.2,0 -9.48,-1.26 -16.89,-8.8 -18,-18.3 5.36,6.81 15.23,7.99 22.05,2.63 4.08,-3.22 6.31,-8.24 5.95,-13.43 0.49,-9.54 -6.83,-17.68 -16.37,-18.18 l -0.83,-0.02 c -11,0 -18.2,8.6 -18.2,22 -0.32,8.62 2.82,17 8.7,23.3 4.5,4.32 10.3,7.02 16.5,7.7 1.7,0.12 3.4,0.12 5.1,0 l 0.3,-5.7"
         style="fill:#c8e7f8;fill-opacity:1;fill-rule:nonzero;stroke:none"
         id="path66" /><path
         d="m 3468,4751.2 c 0,-13.4 4.2,-21.1 10.5,-21.1 6.29,0 10.6,8.4 10.6,21.6 0,13.2 -3.3,21 -10.5,21 -7.2,0 -10.6,-7.4 -10.6,-21.5 z m 28.1,0.8 c 0,-17.6 -6.5,-27.3 -18,-27.3 -11.5,0 -16.9,9.5 -17.1,26.6 -0.2,17.1 7.5,26.8 18,26.8 10.5,0 17.1,-9.7 17.1,-26.1"
         style="fill:#c8e7f8;fill-opacity:1;fill-rule:nonzero;stroke:none"
         id="path68" /><path
         d="m 3454.5,5060.5 v -4.6 l -22.5,-47.1 h -7.2 l 22.4,45.7 h -25.3 v 6 h 32.6"
         style="fill:#c8e7f8;fill-opacity:1;fill-rule:nonzero;stroke:none"
         id="path70" /><path
         d="m 3468,5034 c 0,-13.4 4.2,-21.1 10.5,-21.1 6.29,0 10.6,8.4 10.6,21.6 0,13.2 -3.3,21.1 -10.5,21.1 -7.2,0 -10.6,-7.5 -10.6,-21.6 z m 28.1,0.8 c 0,-17.6 -6.5,-27.3 -18,-27.3 -11.5,0 -16.9,9.5 -17.1,26.6 -0.2,17.1 7.5,26.9 18,26.9 10.5,0 17.1,-9.7 17.1,-26.2"
         style="fill:#c8e7f8;fill-opacity:1;fill-rule:nonzero;stroke:none"
         id="path72" /><path
         d="m 3793,3065.5 v 4.2 l 5.5,5.4 c 13.2,12.5 19.2,19.2 19.2,27 0.46,5.06 -3.27,9.54 -8.32,10 h -1.68 c -4.07,-0.15 -7.95,-1.71 -11,-4.4 l -2.2,5 c 4.11,3.38 9.28,5.22 14.6,5.2 7.97,0.72 15.03,-5.15 15.75,-13.13 l 0.05,-1.87 c 0,-10 -6.9,-17.3 -17.8,-27.8 l -4.1,-3.8 h 23.2 v -5.8 H 3793"
         style="fill:#c8e7f8;fill-opacity:1;fill-rule:nonzero;stroke:none"
         id="path74" /><path
         d="m 3840.1,3091.1 c 0,-13.5 4.1,-21.1 10.5,-21.1 6.4,0 10.6,8.3 10.6,21.5 0,13.2 -3.3,21.1 -10.5,21.1 -7.2,0 -10.7,-7.5 -10.7,-21.5 z m 28.1,0.7 c 0,-17.5 -6.5,-27.2 -18,-27.2 -11.5,0 -16.9,9.4 -17.1,26.5 -0.2,17.1 7.5,26.9 18,26.9 10.5,0 17.1,-9.7 17.1,-26.2"
         style="fill:#c8e7f8;fill-opacity:1;fill-rule:nonzero;stroke:none"
         id="path76" /><path
         d="m 3890,3110.5 v 0 l -9,-4.8 -1.4,5.3 11.3,6 h 6 v -51.6 h -6.9 v 45.1"
         style="fill:#c8e7f8;fill-opacity:1;fill-rule:nonzero;stroke:none"
         id="path78" /><path
         d="m 3949,3117.1 v -4.6 l -22.5,-47 h -7.2 l 22.4,45.7 h -25.3 v 5.8 l 32.6,0.1"
         style="fill:#c8e7f8;fill-opacity:1;fill-rule:nonzero;stroke:none"
         id="path80" /><path
         d="m 4391.1,3065.5 v 4.2 l 5.5,5.4 c 13.2,12.5 19.2,19.2 19.3,27 0.47,5.06 -3.26,9.54 -8.32,10 h -1.68 c -4.06,-0.15 -7.95,-1.71 -11,-4.4 l -2.2,5 c 4.12,3.38 9.27,5.22 14.59,5.2 7.98,0.78 15.07,-5.05 15.85,-13.02 l 0.06,-1.98 c 0,-10 -7,-17.3 -17.8,-27.8 l -4.2,-3.8 h 23.19 v -5.8 h -33.29"
         style="fill:#c8e7f8;fill-opacity:1;fill-rule:nonzero;stroke:none"
         id="path82" /><path
         d="m 4438.2,3091.1 c 0,-13.5 4.2,-21.1 10.5,-21.1 6.3,0 10.6,8.3 10.6,21.5 0,13.2 -3.3,21.1 -10.5,21.1 -7.2,0 -10.6,-7.5 -10.6,-21.5 z m 28.1,0.7 c 0,-17.5 -6.5,-27.2 -18,-27.2 -11.5,0 -16.9,9.4 -17.1,26.5 -0.2,17.1 7.5,26.9 18,26.9 10.5,0 17.1,-9.7 17.1,-26.2"
         style="fill:#c8e7f8;fill-opacity:1;fill-rule:nonzero;stroke:none"
         id="path84" /><path
         d="m 4487.9,3110.5 v 0 l -9,-4.8 -1.4,5.3 11.3,6 h 6 v -51.6 h -6.8 l -0.1,45.1"
         style="fill:#c8e7f8;fill-opacity:1;fill-rule:nonzero;stroke:none"
         id="path86" /><path
         d="m 4521.5,3104.4 c 0,-5.1 3.9,-7.9 10,-9.5 4.44,1 7.64,4.86 7.8,9.4 0.24,4.41 -3.15,8.18 -7.56,8.42 l -1.14,-0.02 c -4.51,0.5 -8.55,-2.75 -9.05,-7.25 l -0.05,-0.75 z m 19.2,-25.8 c 0,6.3 -4.3,9.3 -11.3,11.3 -5.25,-0.9 -9.14,-5.38 -9.3,-10.7 0,-5.52 4.48,-10 10,-10 5.09,-0.73 9.79,2.81 10.53,7.89 l 0.07,1.81 z m -27.8,0 c 0.06,6.26 4.07,11.8 10,13.8 -4.8,1.88 -8.04,6.44 -8.2,11.6 0.34,8 7.11,14.21 15.1,13.87 l 0.9,-0.07 c 7.29,0.94 13.96,-4.19 14.9,-11.48 l 0.1,-1.22 c -0.04,-5.41 -3.42,-10.23 -8.5,-12.1 5.85,-1.88 9.87,-7.26 10,-13.4 -0.44,-8.77 -7.91,-15.52 -16.68,-15.07 l -0.92,0.07 c -10.2,0 -16.7,5.9 -16.7,14"
         style="fill:#c8e7f8;fill-opacity:1;fill-rule:nonzero;stroke:none"
         id="path88" /><path
         d="m 4989.2,3065.5 v 4.2 l 5.5,5.4 c 13.2,12.5 19.2,19.2 19.2,27 0.47,5.06 -3.27,9.54 -8.32,10 h -1.68 c -4.07,-0.15 -7.95,-1.71 -11,-4.4 l -2.2,5 c 4.1,3.39 9.27,5.23 14.6,5.2 7.97,0.72 15.03,-5.15 15.75,-13.13 l 0.05,-1.87 c 0,-10 -6.9,-17.3 -17.8,-27.8 l -4.1,-3.8 h 23.2 v -5.8 h -33.2"
         style="fill:#c8e7f8;fill-opacity:1;fill-rule:nonzero;stroke:none"
         id="path90" /><path
         d="m 5036.3,3091.1 c 0,-13.5 4.1,-21.1 10.5,-21.1 6.4,0 10.6,8.3 10.6,21.5 0,13.2 -3.3,21.1 -10.5,21.1 -7.2,0 -10.6,-7.5 -10.6,-21.5 z m 28.1,0.7 c 0,-17.5 -6.6,-27.2 -18,-27.2 -11.4,0 -16.9,9.4 -17.1,26.5 -0.2,17.1 7.5,26.9 18,26.9 10.5,0 17.1,-9.7 17.1,-26.2"
         style="fill:#c8e7f8;fill-opacity:1;fill-rule:nonzero;stroke:none"
         id="path92" /><path
         d="m 5086,3110.5 v 0 l -8.9,-4.8 -1.4,5.3 11.3,6 h 6 v -51.6 h -6.8 l -0.2,45.1"
         style="fill:#c8e7f8;fill-opacity:1;fill-rule:nonzero;stroke:none"
         id="path94" /><path
         d="m 5118.2,3100.5 c -0.55,-5.49 3.45,-10.4 8.95,-10.95 l 1.05,-0.05 c 4.07,-0.04 7.86,2.04 10,5.5 l 0.7,2.5 c 0,8.8 -3.3,15.6 -10.6,15.6 -7.3,0 -10.1,-5.7 -10.1,-12.6 z m -2.5,-30 c 1.86,-0.19 3.73,-0.19 5.6,0 4.03,0.49 7.82,2.24 10.8,5 3.84,3.65 6.28,8.54 6.9,13.8 -5.48,-6.57 -15.26,-7.45 -21.83,-1.97 -3.55,2.96 -5.59,7.35 -5.57,11.97 -0.33,9.82 7.36,18.06 17.19,18.39 l 0.51,0.01 c 10.5,0 17,-8.6 17,-21.8 0.5,-8.95 -2.73,-17.7 -8.9,-24.2 -4.08,-3.92 -9.36,-6.35 -15,-6.9 -2.13,-0.22 -4.27,-0.22 -6.4,0 l -0.3,5.7"
         style="fill:#c8e7f8;fill-opacity:1;fill-rule:nonzero;stroke:none"
         id="path96" /><path
         d="m 5365.65,4595.95 h -584.1 v 282.8 h 584.1 v -282.8 m -586.2,0 h -584.2 v 282.8 h 584.2 v -282.8 m -586.3,0 h -584.2 v 282.8 h 584.2 v -282.8"
         style="fill:#ffffff;fill-opacity:1;fill-rule:nonzero;stroke:none"
         id="path98" /><path
         d="m 5366.7,4594.9 v 0 1.05 h -1.05 v 282.8 h 1.05 v 1.05 -284.9 m -1757.75,1.05 h -1.05 v 282.37 l 0.43,0.43 h 0.62 v -282.8"
         style="fill:#dbf0fb;fill-opacity:1;fill-rule:nonzero;stroke:none"
         id="path100" /><path
         d="m 5366.7,4594.9 h -585.15 v 1.05 h 585.15 v -1.05 m -587.25,0 h -584.2 v 1.05 h 584.2 v -1.05 m -586.3,0 H 3607.9 v 0 1.05 h 1.05 584.2 v -1.05"
         style="fill:#dbf0fb;fill-opacity:1;fill-rule:nonzero;stroke:none"
         id="path102" /><path
         d="m 5366.7,4878.75 h -585.15 v 1.05 h 585.15 v -1.05 m -587.25,0 h -584.2 v 1.05 h 584.2 v -1.05 m -586.3,0 h -584.2 -0.62 l 0.31,0.31 -0.74,0.74 h 585.25 v -1.05"
         style="fill:#dbf0fb;fill-opacity:1;fill-rule:nonzero;stroke:none"
         id="path104" /><path
         d="m 4781.55,4594.9 h -2.1 v 284.9 h 2.1 v -1.05 -282.8 -1.05"
         style="fill:#dbf0fb;fill-opacity:1;fill-rule:nonzero;stroke:none"
         id="path106" /><path
         d="m 4195.25,4594.9 h -2.1 v 284.9 h 2.1 v -1.05 -282.8 -1.05"
         style="fill:#dbf0fb;fill-opacity:1;fill-rule:nonzero;stroke:none"
         id="path108" /><path
         d="m 3607.9,4878.32 v 1.48 l 0.74,-0.74 -0.31,-0.31 -0.43,-0.43"
         style="fill:#dbf0fb;fill-opacity:1;fill-rule:nonzero;stroke:none"
         id="path110" /><path
         d="m 5365.65,4026.25 h -584.1 v 282.8 h 584.1 v -282.8 m -586.2,0 h -584.2 v 282.8 h 584.2 v -282.8 m -586.3,0 h -584.2 v 282.8 h 584.2 v -282.8"
         style="fill:#ffffff;fill-opacity:1;fill-rule:nonzero;stroke:none"
         id="path112" /><path
         d="m 5366.7,4025.2 v 0 1.05 h -1.05 v 282.8 h 1.05 v 1.05 -284.9 m -1757.75,1.05 h -1.05 v 282.36 l 0.43,0.44 h 0.62 v -282.8"
         style="fill:#dbf0fb;fill-opacity:1;fill-rule:nonzero;stroke:none"
         id="path114" /><path
         d="m 5366.7,4025.2 h -585.15 v 1.05 h 585.15 v -1.05 m -587.25,0 h -584.2 v 1.05 h 584.2 v -1.05 m -586.3,0 H 3607.9 v 0 1.05 h 1.05 584.2 v -1.05"
         style="fill:#dbf0fb;fill-opacity:1;fill-rule:nonzero;stroke:none"
         id="path116" /><path
         d="m 5366.7,4309.05 h -585.15 v 1.05 h 585.15 v -1.05 m -587.25,0 h -584.2 v 1.05 h 584.2 v -1.05 m -586.3,0 h -584.2 -0.62 l 0.31,0.31 -0.74,0.74 h 585.25 v -1.05"
         style="fill:#dbf0fb;fill-opacity:1;fill-rule:nonzero;stroke:none"
         id="path118" /><path
         d="m 4781.55,4025.2 h -2.1 v 284.9 h 2.1 v -1.05 -282.8 -1.05"
         style="fill:#dbf0fb;fill-opacity:1;fill-rule:nonzero;stroke:none"
         id="path120" /><path
         d="m 4195.25,4025.2 h -2.1 v 284.9 h 2.1 v -1.05 -282.8 -1.05"
         style="fill:#dbf0fb;fill-opacity:1;fill-rule:nonzero;stroke:none"
         id="path122" /><path
         d="m 3607.9,4308.61 v 1.49 l 0.74,-0.74 -0.31,-0.31 -0.43,-0.44"
         style="fill:#dbf0fb;fill-opacity:1;fill-rule:nonzero;stroke:none"
         id="path124" /><path
         d="m 5365.65,3456.55 h -584.1 v 282.8 h 584.1 v -282.8 m -586.2,0 h -584.2 v 282.8 h 584.2 v -282.8 m -586.3,0 h -584.2 v 282.8 h 584.2 v -282.8"
         style="fill:#ffffff;fill-opacity:1;fill-rule:nonzero;stroke:none"
         id="path126" /><path
         d="m 5366.7,3455.6 v 0 0.95 h -1.05 v 282.8 h 1.05 v 1.05 -284.8 m -1757.75,0.95 h -1.05 v 282.37 l 0.43,0.43 h 0.62 v -282.8"
         style="fill:#dbf0fb;fill-opacity:1;fill-rule:nonzero;stroke:none"
         id="path128" /><path
         d="m 5366.7,3455.6 h -585.15 v 0.95 h 585.15 v -0.95 m -587.25,0 h -584.2 v 0.95 h 584.2 v -0.95 m -586.3,0 H 3607.9 v 0.95 h 1.05 584.2 v -0.95"
         style="fill:#dbf0fb;fill-opacity:1;fill-rule:nonzero;stroke:none"
         id="path130" /><path
         d="m 5366.7,3739.35 h -585.15 v 1.05 h 585.15 v -1.05 m -587.25,0 h -584.2 v 1.05 h 584.2 v -1.05 m -586.3,0 h -584.2 -0.62 l 0.31,0.31 -0.74,0.74 h 585.25 v -1.05"
         style="fill:#dbf0fb;fill-opacity:1;fill-rule:nonzero;stroke:none"
         id="path132" /><path
         d="m 4781.55,3455.6 h -2.1 v 284.8 h 2.1 v -1.05 -282.8 -0.95"
         style="fill:#dbf0fb;fill-opacity:1;fill-rule:nonzero;stroke:none"
         id="path134" /><path
         d="m 4195.25,3455.6 h -2.1 v 284.8 h 2.1 v -1.05 -282.8 -0.95"
         style="fill:#dbf0fb;fill-opacity:1;fill-rule:nonzero;stroke:none"
         id="path136" /><path
         d="m 3607.9,3738.92 v 1.48 l 0.74,-0.74 -0.31,-0.31 -0.43,-0.43"
         style="fill:#dbf0fb;fill-opacity:1;fill-rule:nonzero;stroke:none"
         id="path138" /><path
         d="m 3607.9,4879.8 h 790.4 v -45.5 h -790.4 v 45.5"
         style="fill:#cae1f5;fill-opacity:1;fill-rule:nonzero;stroke:none"
         id="path140" /><path
         d="m 3607.9,4760.1 h 1357.7 v -45.5 H 3607.9 v 45.5"
         style="fill:#3c54ad;fill-opacity:1;fill-rule:nonzero;stroke:none"
         id="path142" /><path
         d="m 3607.9,4640.4 h 483.9 v -45.5 h -483.9 v 45.5"
         style="fill:#8cb4e3;fill-opacity:1;fill-rule:nonzero;stroke:none"
         id="path144" /><path
         d="m 3607.9,4310.1 h 1426.7 v -45.5 H 3607.9 v 45.5"
         style="fill:#cae1f5;fill-opacity:1;fill-rule:nonzero;stroke:none"
         id="path146" /><path
         d="m 3607.9,4190.4 h 586.3 v -45.5 h -586.3 v 45.5"
         style="fill:#3c54ad;fill-opacity:1;fill-rule:nonzero;stroke:none"
         id="path148" /><path
         d="m 3607.9,4070.7 h 1172.6 v -45.5 H 3607.9 v 45.5"
         style="fill:#8cb4e3;fill-opacity:1;fill-rule:nonzero;stroke:none"
         id="path150" /><path
         d="m 3607.9,3736.7 h 586.3 v -45.5 h -586.3 v 45.5"
         style="fill:#cae1f5;fill-opacity:1;fill-rule:nonzero;stroke:none"
         id="path152" /><path
         d="m 3607.9,3617 h 1172.6 v -45.5 H 3607.9 v 45.5"
         style="fill:#3c54ad;fill-opacity:1;fill-rule:nonzero;stroke:none"
         id="path154" /><path
         d="m 3607.9,3497.4 h 967.8 v -45.5 h -967.8 v 45.5"
         style="fill:#8cb4e3;fill-opacity:1;fill-rule:nonzero;stroke:none"
         id="path156" /><path
         d="M 5361.5,5190.5 H 5438 V 5114 h -76.5 v 76.5"
         style="fill:#c8e7f8;fill-opacity:1;fill-rule:nonzero;stroke:none"
         id="path158" /><path
         d="M 5578.4,5190.5 H 5655 V 5114 h -76.6 v 76.5"
         style="fill:#c8e7f8;fill-opacity:1;fill-rule:nonzero;stroke:none"
         id="path160" /><path
         d="m 5795.3,5190.5 h 76.5 V 5114 h -76.5 v 76.5"
         style="fill:#c8e7f8;fill-opacity:1;fill-rule:nonzero;stroke:none"
         id="path162" /><path
         d="m 6012.2,5190.5 h 76.5 V 5114 h -76.5 v 76.5"
         style="fill:#c8e7f8;fill-opacity:1;fill-rule:nonzero;stroke:none"
         id="path164" /><path
         d="m 6229.1,5190.5 h 76.5 V 5114 h -76.5 v 76.5"
         style="fill:#c8e7f8;fill-opacity:1;fill-rule:nonzero;stroke:none"
         id="path166" /><path
         d="m 6446,5190.5 h 76.5 V 5114 H 6446 v 76.5"
         style="fill:#cae1f5;fill-opacity:1;fill-rule:nonzero;stroke:none"
         id="path168" /><path
         d="m 6662.9,5190.5 h 76.6 V 5114 h -76.6 v 76.5"
         style="fill:#cae1f5;fill-opacity:1;fill-rule:nonzero;stroke:none"
         id="path170" /><path
         d="m 5361.5,4999.1 h 76.5 v -76.6 h -76.5 v 76.6"
         style="fill:#c8e7f8;fill-opacity:1;fill-rule:nonzero;stroke:none"
         id="path172" /><path
         d="m 5578.4,4999.1 h 76.6 v -76.6 h -76.6 v 76.6"
         style="fill:#c8e7f8;fill-opacity:1;fill-rule:nonzero;stroke:none"
         id="path174" /><path
         d="m 5795.3,4999.1 h 76.5 v -76.6 h -76.5 v 76.6"
         style="fill:#c8e7f8;fill-opacity:1;fill-rule:nonzero;stroke:none"
         id="path176" /><path
         d="m 6012.2,4999.1 h 76.5 v -76.6 h -76.5 v 76.6"
         style="fill:#c8e7f8;fill-opacity:1;fill-rule:nonzero;stroke:none"
         id="path178" /><path
         d="m 6229.1,4999.1 h 76.5 v -76.6 h -76.5 v 76.6"
         style="fill:#c8e7f8;fill-opacity:1;fill-rule:nonzero;stroke:none"
         id="path180" /><path
         d="m 6446,4999.1 h 76.5 v -76.6 H 6446 v 76.6"
         style="fill:#cae1f5;fill-opacity:1;fill-rule:nonzero;stroke:none"
         id="path182" /><path
         d="m 6662.9,4999.1 h 76.6 v -76.6 h -76.6 v 76.6"
         style="fill:#cae1f5;fill-opacity:1;fill-rule:nonzero;stroke:none"
         id="path184" /><path
         d="m 5361.5,4807.8 h 76.5 v -76.6 h -76.5 v 76.6"
         style="fill:#c8e7f8;fill-opacity:1;fill-rule:nonzero;stroke:none"
         id="path186" /><path
         d="m 5578.4,4807.8 h 76.6 v -76.6 h -76.6 v 76.6"
         style="fill:#c8e7f8;fill-opacity:1;fill-rule:nonzero;stroke:none"
         id="path188" /><path
         d="m 5795.3,4807.8 h 76.5 v -76.6 h -76.5 v 76.6"
         style="fill:#8cb4e3;fill-opacity:1;fill-rule:nonzero;stroke:none"
         id="path190" /><path
         d="m 6012.2,4807.8 h 76.5 v -76.6 h -76.5 v 76.6"
         style="fill:#8cb4e3;fill-opacity:1;fill-rule:nonzero;stroke:none"
         id="path192" /><path
         d="m 6229.1,4807.8 h 76.5 v -76.6 h -76.5 v 76.6"
         style="fill:#c8e7f8;fill-opacity:1;fill-rule:nonzero;stroke:none"
         id="path194" /><path
         d="m 6446,4807.8 h 76.5 v -76.6 H 6446 v 76.6"
         style="fill:#cae1f5;fill-opacity:1;fill-rule:nonzero;stroke:none"
         id="path196" /><path
         d="m 6662.9,4807.8 h 76.6 v -76.6 h -76.6 v 76.6"
         style="fill:#cae1f5;fill-opacity:1;fill-rule:nonzero;stroke:none"
         id="path198" /><path
         d="m 5361.5,4616.4 h 76.5 v -76.6 h -76.5 v 76.6"
         style="fill:#3c54ad;fill-opacity:1;fill-rule:nonzero;stroke:none"
         id="path200" /><path
         d="m 5578.4,4616.4 h 76.6 v -76.6 h -76.6 v 76.6"
         style="fill:#c8e7f8;fill-opacity:1;fill-rule:nonzero;stroke:none"
         id="path202" /><path
         d="m 5795.3,4616.4 h 76.5 v -76.6 h -76.5 v 76.6"
         style="fill:#c8e7f8;fill-opacity:1;fill-rule:nonzero;stroke:none"
         id="path204" /><path
         d="m 6012.2,4616.4 h 76.5 v -76.6 h -76.5 v 76.6"
         style="fill:#c8e7f8;fill-opacity:1;fill-rule:nonzero;stroke:none"
         id="path206" /><path
         d="m 6229.1,4616.4 h 76.5 v -76.6 h -76.5 v 76.6"
         style="fill:#c8e7f8;fill-opacity:1;fill-rule:nonzero;stroke:none"
         id="path208" /><path
         d="m 6446,4616.4 h 76.5 v -76.6 H 6446 v 76.6"
         style="fill:#cae1f5;fill-opacity:1;fill-rule:nonzero;stroke:none"
         id="path210" /><path
         d="m 6662.9,4616.4 h 76.6 v -76.6 h -76.6 v 76.6"
         style="fill:#cae1f5;fill-opacity:1;fill-rule:nonzero;stroke:none"
         id="path212" /><path
         d="m 5361.5,4425 h 76.5 v -76.6 h -76.5 v 76.6"
         style="fill:#c8e7f8;fill-opacity:1;fill-rule:nonzero;stroke:none"
         id="path214" /><path
         d="m 5578.4,4425 h 76.6 v -76.6 h -76.6 v 76.6"
         style="fill:#c8e7f8;fill-opacity:1;fill-rule:nonzero;stroke:none"
         id="path216" /><path
         d="m 5795.3,4425 h 76.5 v -76.6 h -76.5 v 76.6"
         style="fill:#c8e7f8;fill-opacity:1;fill-rule:nonzero;stroke:none"
         id="path218" /><path
         d="m 6012.2,4425 h 76.5 v -76.6 h -76.5 v 76.6"
         style="fill:#c8e7f8;fill-opacity:1;fill-rule:nonzero;stroke:none"
         id="path220" /><path
         d="m 6229.1,4425 h 76.5 v -76.6 h -76.5 v 76.6"
         style="fill:#c8e7f8;fill-opacity:1;fill-rule:nonzero;stroke:none"
         id="path222" /><path
         d="m 6446,4425 h 76.5 v -76.6 H 6446 v 76.6"
         style="fill:#cae1f5;fill-opacity:1;fill-rule:nonzero;stroke:none"
         id="path224" /><path
         d="m 6662.9,4425 h 76.6 v -76.6 h -76.6 v 76.6"
         style="fill:#cae1f5;fill-opacity:1;fill-rule:nonzero;stroke:none"
         id="path226" /><path
         d="m 5361.5,4233.7 h 76.5 v -76.6 h -76.5 v 76.6"
         style="fill:#c8e7f8;fill-opacity:1;fill-rule:nonzero;stroke:none"
         id="path228" /><path
         d="m 5578.4,4233.7 h 76.6 v -76.6 h -76.6 v 76.6"
         style="fill:#c8e7f8;fill-opacity:1;fill-rule:nonzero;stroke:none"
         id="path230" /><path
         d="m 5795.3,4233.7 h 76.5 v -76.6 h -76.5 v 76.6"
         style="fill:#c8e7f8;fill-opacity:1;fill-rule:nonzero;stroke:none"
         id="path232" /><path
         d="m 6012.2,4233.7 h 76.5 v -76.6 h -76.5 v 76.6"
         style="fill:#c8e7f8;fill-opacity:1;fill-rule:nonzero;stroke:none"
         id="path234" /><path
         d="m 6229.1,4233.7 h 76.5 v -76.6 h -76.5 v 76.6"
         style="fill:#c8e7f8;fill-opacity:1;fill-rule:nonzero;stroke:none"
         id="path236" /><path
         d="m 6446,4233.7 h 76.5 v -76.6 H 6446 v 76.6"
         style="fill:#c8e7f8;fill-opacity:1;fill-rule:nonzero;stroke:none"
         id="path238" /><path
         d="m 6662.9,4233.7 h 76.6 v -76.6 h -76.6 v 76.6"
         style="fill:#c8e7f8;fill-opacity:1;fill-rule:nonzero;stroke:none"
         id="path240" /><path
         d="m 2581.8,3462.6 h 3.1992 V 4956.3 H 2581.8 Z"
         style="fill:#c8e7f8;fill-opacity:1;fill-rule:nonzero;stroke:none"
         id="path242" /><path
         d="m 1973.1,3462.6 h 3.1992 V 4956.3 H 1973.1 Z"
         style="fill:#c8e7f8;fill-opacity:1;fill-rule:nonzero;stroke:none"
         id="path244" /><path
         d="m 1364.4,3462.6 h 3.2031 V 4956.3 H 1364.4 Z"
         style="fill:#c8e7f8;fill-opacity:1;fill-rule:nonzero;stroke:none"
         id="path246" /><path
         d="m 755.801,3462.6 h 3.20313 V 4956.3 H 755.801 Z"
         style="fill:#c8e7f8;fill-opacity:1;fill-rule:nonzero;stroke:none"
         id="path248" /><path
         d="M 2583.3,3462.6 H 1366 h 1.6 v 1493.7 h 605.5 V 3462.6 h 3.2 v 1493.7 h 605.5 V 3462.6 h 1.5"
         style="fill:#ffffff;fill-opacity:1;fill-rule:nonzero;stroke:none"
         id="path250" /><path
         d="m 2581.8,3462.6 h 1.5 v 1493.7 h -1.5 z"
         style="fill:#dbf0fb;fill-opacity:1;fill-rule:nonzero;stroke:none"
         id="path252" /><path
         d="m 1973.1,3462.6 h 3.1992 V 4956.3 H 1973.1 Z"
         style="fill:#dbf0fb;fill-opacity:1;fill-rule:nonzero;stroke:none"
         id="path254" /><path
         d="m 1366,3462.6 h 1.6016 V 4956.3 H 1366 Z"
         style="fill:#dbf0fb;fill-opacity:1;fill-rule:nonzero;stroke:none"
         id="path256" /><path
         d="m 148.699,4956.3 v -1.6 H 3190.5 V 3464.2 H 150.301 v 1492.1 h -1.602 v -1.6 1.6 h -1.597 V 3461 H 3193.7 V 4957.9 H 147.102 v -1.6 h 1.597"
         style="fill:#c8e7f8;fill-opacity:1;fill-rule:nonzero;stroke:none"
         id="path258" /><path
         d="m 148.699,3709.9 h 3043.4 v 3.2031 h -3043.4 z"
         style="fill:#c8e7f8;fill-opacity:1;fill-rule:nonzero;stroke:none"
         id="path260" /><path
         d="m 148.699,3958.9 h 3043.4 v 3.2031 h -3043.4 z"
         style="fill:#c8e7f8;fill-opacity:1;fill-rule:nonzero;stroke:none"
         id="path262" /><path
         d="m 148.699,4207.8 h 3043.4 v 3.1992 h -3043.4 z"
         style="fill:#c8e7f8;fill-opacity:1;fill-rule:nonzero;stroke:none"
         id="path264" /><path
         d="m 148.699,4456.8 h 3043.4 v 3.1992 h -3043.4 z"
         style="fill:#c8e7f8;fill-opacity:1;fill-rule:nonzero;stroke:none"
         id="path266" /><path
         d="m 148.699,4705.8 h 3043.4 v 3.1992 h -3043.4 z"
         style="fill:#c8e7f8;fill-opacity:1;fill-rule:nonzero;stroke:none"
         id="path268" /><path
         d="m 62.4023,3475.3 c 0,-16.8 5.1954,-26.4 13.0938,-26.4 7.9023,0 13.3008,10 13.3008,27 0,17 -4.0938,26.4 -13.1953,26.4 -7.6055,0 -13.1993,-9.4 -13.1993,-27 z m 35.1954,1 c 0,-22 -8.1993,-34.2 -22.5977,-34.2 -12.5977,0 -21.2031,11.9 -21.4023,33.3 -0.1993,21.4 9.3984,33.7 22.5,33.7 13.1015,0 21.5,-12.2 21.5,-32.8"
         style="fill:#c8e7f8;fill-opacity:1;fill-rule:nonzero;stroke:none"
         id="path270" /><path
         d="m 22.5,3749.5 v 0 l -11.2969,-6.1 -1.90232,7.1 14.19922,7.6 h 7.3984 v -64.8 H 22.5 v 56.2"
         style="fill:#c8e7f8;fill-opacity:1;fill-rule:nonzero;stroke:none"
         id="path272" /><path
         d="m 62.4023,3725 c 0,-16.8 5.1954,-26.4 13.0938,-26.4 7.9023,0 13.3008,10.5 13.3008,27 0,16.5 -4.0938,26.4 -13.1953,26.4 -7.6055,0 -13.1993,-9.4 -13.1993,-27 z m 35.1954,1 c 0,-22 -8.1993,-34.2 -22.5977,-34.2 -12.5977,0 -21.2031,11.9 -21.4023,33.3 -0.1993,21.4 9.3984,33.7 22.5,33.7 13.1015,0 21.5,-12.2 21.5,-32.8"
         style="fill:#c8e7f8;fill-opacity:1;fill-rule:nonzero;stroke:none"
         id="path274" /><path
         d="m 3.39844,3942.7 v 5.3 l 6.89846,6.7 c 16.5039,15.8 24.0039,24.1 24.1015,33.9 0.6446,6.37 -3.9961,12.07 -10.3711,12.71 l -2.4257,-0.01 c -5.0977,-0.18 -9.9766,-2.13 -13.80472,-5.5 L 5,4002 c 5.1992,4.23 11.6992,6.52 18.3984,6.5 10.0039,1 18.9219,-6.3 19.9219,-16.3 l 0.0781,-2.5 c 0,-12 -8.6953,-21.6 -22.3007,-34.8 l -5.1993,-4.8 h 28.9024 v -7.2 l -41.40236,-0.2"
         style="fill:#c8e7f8;fill-opacity:1;fill-rule:nonzero;stroke:none"
         id="path276" /><path
         d="m 62.4023,3974.8 c 0,-16.9 5.1954,-26.5 13.0938,-26.5 7.9023,0 13.3008,10 13.3008,27 0,17 -4.0938,26.4 -13.1953,26.4 -7.6055,0 -13.1993,-9.3 -13.1993,-26.9 z m 35.1954,1 c 0,-22.1 -8.1993,-34.2 -22.5977,-34.2 -12.5977,0 -21.2031,11.8 -21.4023,33.3 -0.1993,21.5 9.3984,33.6 22.5,33.6 13.1015,0 21.5,-12.1 21.5,-32.7"
         style="fill:#c8e7f8;fill-opacity:1;fill-rule:nonzero;stroke:none"
         id="path278" /><path
         d="m 5.5,4202.5 c 4.39844,-2.61 9.3945,-4.02 14.5,-4.1 11.2031,0 14.7031,7.2 14.5977,12.6 0,9 -8.3008,12.9 -16.6954,12.9 h -5 v 6.6 h 4.8946 c 6.4023,0 14.4062,3.3 14.4062,10.9 0,5.2 -3.3008,10 -11.3047,10 -4.6601,-0.13 -9.1757,-1.63 -12.99996,-4.3 l -2.29688,6.4 c 5.05864,3.29 10.96484,5.03 16.99614,5 12.6992,0 18.5,-7.6 18.5,-15.5 -0.1641,-7.17 -5.0586,-13.37 -11.9961,-15.2 8.539,-1.22 14.789,-8.67 14.4961,-17.3 0,-10 -8.1016,-20 -23.5977,-20 -5.9258,-0.08 -11.76172,1.44 -16.89844,4.4 L 5.5,4202.5"
         style="fill:#c8e7f8;fill-opacity:1;fill-rule:nonzero;stroke:none"
         id="path280" /><path
         d="m 62.4023,4224.5 c 0,-16.8 5.1954,-26.4 13.0938,-26.4 7.9023,0 13.3008,10 13.3008,27 0,17 -4.0938,26.4 -13.1953,26.4 -7.6055,0 -13.1993,-9.4 -13.1993,-27 z m 35.1954,1 c 0,-22 -8.1993,-34.2 -22.5977,-34.2 -12.5977,0 -21.2031,11.9 -21.4023,33.3 -0.1993,21.4 9.3984,33.7 22.5,33.7 13.1015,0 21.5,-12.2 21.5,-32.8"
         style="fill:#c8e7f8;fill-opacity:1;fill-rule:nonzero;stroke:none"
         id="path282" /><path
         d="m 30.4961,4466.6 v 21.7 c 0,3.3 0,6.7 0,10 -1.9961,-3.8 -3.5977,-6.6 -5.3984,-10 L 9.30078,4466.8 Z m 0,-24.5 v 17.7 H 0 v 5.7 l 28.9023,41.4 h 9.4961 v -40 H 47.5 v -6.8 h -8.7031 v -17.7 l -8.3008,-0.3"
         style="fill:#c8e7f8;fill-opacity:1;fill-rule:nonzero;stroke:none"
         id="path284" /><path
         d="m 62.4023,4474.2 c 0,-16.8 5.1954,-26.4 13.0938,-26.4 7.9023,0 13.3008,10 13.3008,27 0,17 -4.0938,26.4 -13.1953,26.4 -7.6055,0 -13.1993,-9.4 -13.1993,-27 z m 35.1954,1 c 0,-22 -8.1993,-34.2 -22.5977,-34.2 -12.5977,0 -21.2031,11.9 -21.4023,33.3 -0.1993,21.4 9.3984,33.7 22.5,33.7 13.1015,0 21.5,-12.2 21.5,-32.8"
         style="fill:#c8e7f8;fill-opacity:1;fill-rule:nonzero;stroke:none"
         id="path286" /><path
         d="M 42.0977,4749.3 H 17.4023 l -2.5,-16.7 c 1.7618,0.13 3.5352,0.13 5.2969,0 4.8633,0.09 9.6602,-1.12 13.9024,-3.5 5.9414,-3.37 9.5195,-9.77 9.2968,-16.6 -0.1836,-12.37 -10.3632,-22.25 -22.7304,-22.06 l -1.3672,0.06 c -5.6563,-0.13 -11.25392,1.25 -16.19924,4 l 2.19532,6.6 c 4.27343,-2.3 9.04692,-3.51 13.90232,-3.5 7.8164,-0.6 14.6524,5.24 15.2578,13.06 l 0.0469,0.94 c 0,8.4 -5.707,14.3 -18.6055,14.3 -3.6953,0 -6.59762,0 -8.99996,-0.6 l 4.19926,31 h 31 v -7"
         style="fill:#c8e7f8;fill-opacity:1;fill-rule:nonzero;stroke:none"
         id="path288" /><path
         d="m 62.4023,4724 c 0,-16.9 5.1954,-26.5 13.0938,-26.5 7.9023,0 13.3008,10 13.3008,27.1 0,17.1 -4.0938,25.9 -13.1953,25.9 -7.6055,0 -13.1993,-8.9 -13.1993,-26.5 z m 35.1954,1 c 0,-22.1 -8.1993,-34.5 -22.5977,-34.5 -12.5977,0 -21.2031,11.8 -21.4023,33.3 -0.1993,21.5 9.3984,33.6 22.5,33.6 13.1015,0 21.5,-11.8 21.5,-32.4"
         style="fill:#c8e7f8;fill-opacity:1;fill-rule:nonzero;stroke:none"
         id="path290" /><path
         d="m 443.5,3380.5 v 0 l -10.602,-5.7 -1.597,6.3 13.301,7.1 h 7 v -60.7 h -7.903 l -0.199,53"
         style="fill:#c8e7f8;fill-opacity:1;fill-rule:nonzero;stroke:none"
         id="path292" /><path
         d="m 1034.4,3327.3 v 5 l 6.4,6.3 c 15.5,14.7 22.5,22.6 22.6,31.7 0.65,5.93 -3.63,11.26 -9.56,11.91 l -2.44,-0.01 c -4.75,-0.18 -9.31,-1.98 -12.9,-5.1 l -2.6,5.7 c 4.81,4.05 10.91,6.25 17.2,6.2 9.4,0.84 17.71,-6.12 18.54,-15.52 l 0.06,-2.08 c 0,-11.3 -8.2,-20 -21,-32.6 l -4.8,-4.5 h 27.3 v -6.8 l -38.8,-0.2"
         style="fill:#c8e7f8;fill-opacity:1;fill-rule:nonzero;stroke:none"
         id="path294" /><path
         d="m 1645.1,3336.7 c 4.1,-2.4 8.75,-3.7 13.5,-3.8 10,0 13.8,6.7 13.7,11.7 0,8.5 -7.7,12.2 -15.7,12.2 h -4.5 v 6.1 h 4.5 c 6,0 13.6,3.1 13.6,10 0,4.9 -3.1,9.2 -10.7,9.2 -4.35,-0.14 -8.56,-1.57 -12.1,-4.1 l -2.2,6 c 4.72,3.1 10.25,4.74 15.9,4.7 12,0 17.4,-7.1 17.4,-14.5 -0.16,-6.72 -4.72,-12.53 -11.2,-14.3 7.72,-1.09 13.48,-7.7 13.5,-15.5 0,-10 -7.5,-18.3 -22.1,-18.3 -5.55,-0.06 -11.01,1.39 -15.8,4.2 l 2.2,6.4"
         style="fill:#c8e7f8;fill-opacity:1;fill-rule:nonzero;stroke:none"
         id="path296" /><path
         d="m 2277.3,3350.2 v 20 c 0,3.2 0,6.4 0,9.5 -1.8,-3.5 -3.3,-6.1 -5,-8.9 l -14.9,-20.3 z m 0,-22.9 v 16.5 h -28.2 v 5.4 l 27.1,38.8 h 8.9 v -37.5 h 8.5 v -6.4 h -8.5 v -16.5 l -7.8,-0.3"
         style="fill:#c8e7f8;fill-opacity:1;fill-rule:nonzero;stroke:none"
         id="path298" /><path
         d="m 2897,3381.1 h -23.2 l -2.3,-15.6 c 1.63,0.13 3.27,0.13 4.9,0 4.57,0.1 9.09,-1 13.1,-3.2 5.57,-3.19 8.92,-9.19 8.7,-15.6 -0.14,-11.65 -9.69,-20.99 -21.34,-20.85 l -1.26,0.05 c -5.32,-0.13 -10.57,1.18 -15.2,3.8 l 2.1,6.2 c 3.99,-2.17 8.46,-3.3 13,-3.3 7.38,-0.55 13.81,4.98 14.36,12.36 l 0.04,0.74 c 0,7.9 -5.4,13.5 -17.5,13.5 -2.82,-0.03 -5.62,-0.26 -8.4,-0.7 l 3.9,29.2 h 29.1 v -6.6"
         style="fill:#c8e7f8;fill-opacity:1;fill-rule:nonzero;stroke:none"
         id="path300" /><path
         d="m 151.938,3444.39 608.792,248.93 608.59,266.5 607.04,245.33 h 614.3 l 604.65,244.63 -6.42,15.85 -601.56,-243.38 h -614.29 l -610.35,-246.66 -608.624,-266.52 -608.601,-248.85 6.473,-15.83"
         style="fill:#3c54ad;fill-opacity:1;fill-rule:nonzero;stroke:none"
         id="path302" /><path
         d="m 152.164,3703.03 605.238,247.58 608.478,-248.94 614.37,233.35 608.84,749.38 606.65,263.51 -7.29,16.78 -610.74,-265.29 -608.56,-749.02 -603.02,-229.04 -608.728,249.05 -612.164,-250.42 6.926,-16.94"
         style="fill:#8cb4e3;fill-opacity:1;fill-rule:nonzero;stroke:none"
         id="path304" /><path
         d="m 2618.2,4691.9 c 0.06,-19.27 -15.52,-34.94 -34.8,-35 -19.27,-0.06 -34.94,15.53 -35,34.8 -0.06,19.27 15.53,34.94 34.8,35 h 0.2 c 19.22,0 34.8,-15.58 34.8,-34.8"
         style="fill:#ffffff;fill-opacity:1;fill-rule:nonzero;stroke:none"
         id="path306" /><path
         d="m 2618.2,4691.9 h -9.15 v -0.11 c 0,-14.18 -11.48,-25.7 -25.68,-25.74 h -0.08 c -14.18,0 -25.71,11.49 -25.74,25.68 v 0.01 0.06 c -0.01,14.18 11.48,25.72 25.68,25.75 h -0.03 0.2 c 14.16,-0.02 25.62,-11.49 25.65,-25.65 h 9.15 9.15 c -0.01,24.28 -19.68,43.94 -43.95,43.95 h -0.2 -0.02 -0.01 c -24.29,-0.08 -43.92,-19.78 -43.92,-44.05 v -0.14 0.02 c 0.08,-24.29 19.77,-43.92 44.04,-43.93 h 0.13 c 24.29,0.07 43.92,19.77 43.93,44.04 v 0.11 h -9.15"
         style="fill:#8cb4e3;fill-opacity:1;fill-rule:nonzero;stroke:none"
         id="path308" /><path
         d="m 2010,3942.7 c 0,-19.22 -15.58,-34.8 -34.8,-34.8 -19.22,0 -34.8,15.58 -34.8,34.8 0,19.22 15.58,34.8 34.8,34.8 19.22,0 34.8,-15.58 34.8,-34.8"
         style="fill:#ffffff;fill-opacity:1;fill-rule:nonzero;stroke:none"
         id="path310" /><path
         d="m 2010,3942.7 h -9.15 c -0.03,-14.16 -11.49,-25.62 -25.65,-25.65 -14.16,0.03 -25.62,11.49 -25.65,25.65 0.03,14.16 11.49,25.63 25.65,25.65 14.16,-0.02 25.62,-11.49 25.65,-25.65 h 9.15 9.15 c -0.01,24.28 -19.67,43.95 -43.95,43.95 -24.28,0 -43.94,-19.67 -43.95,-43.95 0.01,-24.28 19.68,-43.94 43.95,-43.95 24.27,0.01 43.94,19.67 43.95,43.95 H 2010"
         style="fill:#8cb4e3;fill-opacity:1;fill-rule:nonzero;stroke:none"
         id="path312" /><path
         d="m 1400.9,3711.5 c 0.06,-19.28 -15.52,-34.95 -34.8,-35 -19.27,-0.05 -34.94,15.52 -35,34.8 -0.06,19.27 15.53,34.94 34.8,35 h 0.1 c 19.22,0.05 34.84,-15.48 34.9,-34.7 v -0.1"
         style="fill:#ffffff;fill-opacity:1;fill-rule:nonzero;stroke:none"
         id="path314" /><path
         d="m 1400.9,3711.5 h -9.15 v -0.11 c 0,-14.18 -11.48,-25.7 -25.68,-25.74 h 0.03 -0.1 c -14.18,0 -25.71,11.48 -25.75,25.68 v 0.01 0.06 c -0.01,14.18 11.48,25.71 25.68,25.75 h -0.03 0.1 0.04 0.06 c 14.13,0.01 25.62,-11.44 25.65,-25.58 v 0.03 -0.1 h 9.15 9.15 v 0.1 0.02 c -0.08,24.24 -19.73,43.83 -43.95,43.83 h -0.14 0.04 -0.1 -0.06 0.03 c -24.29,-0.08 -43.92,-19.78 -43.92,-44.05 v -0.14 0.01 c 0.08,-24.29 19.78,-43.91 44.05,-43.92 h 0.1 0.02 c 24.29,0.08 43.92,19.77 43.93,44.04 v 0.11 h -9.15"
         style="fill:#8cb4e3;fill-opacity:1;fill-rule:nonzero;stroke:none"
         id="path316" /><path
         d="m 792.203,3960.5 c 0.055,-19.27 -15.527,-34.95 -34.801,-35 -19.277,-0.05 -34.945,15.53 -35,34.8 -0.058,19.28 15.524,34.95 34.801,35 h 0.199 c 19.219,0 34.801,-15.58 34.801,-34.8"
         style="fill:#ffffff;fill-opacity:1;fill-rule:nonzero;stroke:none"
         id="path318" /><path
         d="m 792.203,3960.5 -9.152,-0.02 v -0.08 c 0.008,-14.18 -11.485,-25.72 -25.672,-25.75 h 0.004 -0.078 c -14.188,-0.01 -25.719,11.49 -25.754,25.68 v 0.01 0.07 c -0.004,14.18 11.48,25.71 25.676,25.74 h -0.024 0.199 c 14.161,-0.03 25.625,-11.49 25.649,-25.65 v -0.02 l 9.152,0.02 h 9.149 c -0.004,24.28 -19.672,43.94 -43.95,43.95 h -0.199 -0.031 0.004 c -24.289,-0.07 -43.918,-19.77 -43.922,-44.04 v -0.15 0.01 c 0.07,-24.28 19.773,-43.91 44.051,-43.92 h 0.117 0.008 c 24.289,0.08 43.918,19.78 43.922,44.05 v 0.12 -0.02 h -9.149"
         style="fill:#8cb4e3;fill-opacity:1;fill-rule:nonzero;stroke:none"
         id="path320" /><path
         d="m 1995.6,4210.5 c 0.05,-19.27 -15.53,-34.95 -34.8,-35 -19.28,-0.05 -34.95,15.53 -35,34.8 -0.05,19.27 15.52,34.95 34.8,35 h 0.1 c 19.24,0 34.85,-15.57 34.9,-34.8"
         style="fill:#ffffff;fill-opacity:1;fill-rule:nonzero;stroke:none"
         id="path322" /><path
         d="m 1995.6,4210.5 h -8.55 v -0.1 c 0.01,-14.51 -11.75,-26.32 -26.27,-26.35 h -0.08 c -14.52,-0.01 -26.32,11.75 -26.35,26.27 v 0.02 0.06 c 0,14.51 11.75,26.31 26.27,26.35 h -0.02 0.1 c 14.52,0 26.32,-11.76 26.35,-26.27 v 0.02 h 8.55 l 8.55,0.02 c -0.07,23.95 -19.5,43.32 -43.45,43.33 h -0.1 -0.03 0.01 c -23.97,-0.07 -43.32,-19.51 -43.33,-43.45 v -0.14 0.02 c 0.07,-23.96 19.5,-43.32 43.45,-43.33 h 0.12 c 23.96,0.07 43.32,19.51 43.33,43.45 v 0.1 0.02 l -8.55,-0.02"
         style="fill:#3c54ad;fill-opacity:1;fill-rule:nonzero;stroke:none"
         id="path324" /><path
         d="m 2617.7,4210.5 c 0.05,-19.27 -15.53,-34.95 -34.8,-35 -19.28,-0.05 -34.95,15.53 -35,34.8 -0.05,19.28 15.53,34.95 34.8,35 h 0.2 c 19.22,0 34.8,-15.58 34.8,-34.8"
         style="fill:#ffffff;fill-opacity:1;fill-rule:nonzero;stroke:none"
         id="path326" /><path
         d="m 2617.7,4210.5 h -8.55 v -0.1 c 0.01,-14.51 -11.75,-26.32 -26.27,-26.35 h -0.08 c -14.52,-0.01 -26.32,11.75 -26.35,26.27 v 0.02 0.06 c -0.01,14.52 11.75,26.31 26.27,26.35 h 0.18 c 14.49,-0.03 26.22,-11.76 26.25,-26.25 h 8.55 8.55 c -0.01,23.95 -19.41,43.34 -43.35,43.35 h -0.2 -0.03 0.01 c -23.96,-0.07 -43.32,-19.5 -43.33,-43.45 v -0.14 0.02 c 0.07,-23.96 19.5,-43.32 43.45,-43.33 h 0.12 c 23.96,0.07 43.32,19.51 43.33,43.45 v 0.1 h -8.55"
         style="fill:#3c54ad;fill-opacity:1;fill-rule:nonzero;stroke:none"
         id="path328" /><path
         d="m 15.4961,1765.2 v 0 l -7.9961,-4.7 -1.19922,4.8 9.99612,5.3 h 5.3047 v -45.7 h -6 l -0.1055,40.3"
         style="fill:#c8e7f8;fill-opacity:1;fill-rule:nonzero;stroke:none"
         id="path330" /><path
         d="m 43.7031,1747.9 c 0,-11.9 3.6992,-18.6 9.293,-18.6 5.6016,0 9.4062,7.4 9.4062,19.1 0,11.7 -2.8984,18.6 -9.3007,18.6 -6.4024,0 -9.3985,-6.5 -9.3985,-19.1 z m 24.8946,0.7 c 0,-15.5 -5.8008,-24.1 -15.8985,-24.1 -10.1015,0 -15,8.4 -15.1992,23.5 -0.1992,15.1 6.6992,23.8 15.8984,23.8 9.1993,0 15.1993,-8.6 15.1993,-23.2"
         style="fill:#c8e7f8;fill-opacity:1;fill-rule:nonzero;stroke:none"
         id="path332" /><path
         d="m 2.10156,1960.5 v 3.8 L 7,1969 c 11.5977,11.1 16.9023,17 17,23.9 0.4141,4.51 -2.9023,8.5 -7.4141,8.92 l -1.6836,-0.02 c -3.6953,-0.06 -7.24605,-1.45 -9.99996,-3.9 l -2.0039,4.4 c 3.64062,3.06 8.24996,4.73 12.99996,4.7 7.0938,0.67 13.3829,-4.55 14.0469,-11.65 L 30,1994.2 c 0,-8.5 -6.0977,-15.3 -15.8008,-24.6 l -3.5976,-3.4 h 20.6953 v -5.7 H 2.10156"
         style="fill:#c8e7f8;fill-opacity:1;fill-rule:nonzero;stroke:none"
         id="path334" /><path
         d="m 43.7031,1983.6 c 0,-11.9 3.6992,-18.6 9.293,-18.6 5.6016,0 9.4062,7.4 9.4062,19 0,11.6 -2.8984,18.7 -9.3007,18.7 -6.4024,0 -9.3985,-6.6 -9.3985,-19.1 z m 24.8946,0.7 c 0,-15.5 -5.8008,-24.1 -15.8985,-24.1 -10.1015,0 -15,8.4 -15.1992,23.5 -0.1992,15.1 6.6992,23.8 15.8984,23.8 9.1993,0 15.1993,-8.6 15.1993,-23.2"
         style="fill:#c8e7f8;fill-opacity:1;fill-rule:nonzero;stroke:none"
         id="path336" /><path
         d="m 3.59766,2203.8 c 3.03515,-1.81 6.47654,-2.8 10.00004,-2.9 8.0039,0 10,5.1 10,8.9 0,6.4 -5.8985,9.1 -11.8985,9.1 H 8.80078 v 4.7 h 3.40232 c 4.4961,0 10,2.3 10,7.7 0,3.7 -2.3008,6.9 -8.0039,6.9 -3.2617,-0.09 -6.42576,-1.14 -9.10154,-3 L 3.5,2239.7 c 3.54688,2.29 7.6758,3.51 11.9023,3.5 8.9961,0 13.0977,-5.4 13.0977,-10.9 -0.1367,-5.08 -3.5937,-9.48 -8.5,-10.8 5.7617,-0.97 9.9844,-5.96 10,-11.8 0,-7.3 -5.6992,-13.7 -16.6992,-13.7 -4.1758,-0.05 -8.28127,1.02 -11.89846,3.1 l 2.19532,4.7"
         style="fill:#c8e7f8;fill-opacity:1;fill-rule:nonzero;stroke:none"
         id="path338" /><path
         d="m 43.7031,2219.3 c 0,-11.8 3.6992,-18.6 9.293,-18.6 5.6016,0 9.4062,7.4 9.4062,19.1 0,11.7 -2.8984,18.6 -9.3007,18.6 -6.4024,0 -9.3985,-6.6 -9.3985,-19.1 z m 24.8946,0.7 c 0,-15.5 -5.8008,-24.1 -15.8985,-24.1 -10.1015,0 -15,8.4 -15.1992,23.5 -0.1992,15.1 6.6992,23.8 15.8984,23.8 9.1993,0 15.1993,-8.6 15.1993,-23.2"
         style="fill:#c8e7f8;fill-opacity:1;fill-rule:nonzero;stroke:none"
         id="path340" /><path
         d="m 21.2031,2449.7 v 15.3 c 0,2.4 0,4.8 0,7.2 -1.4023,-2.7 -2.5,-4.7 -3.8008,-6.8 L 6.30078,2449.9 Z m 0,-17.3 v 12.5 H 0 v 4 l 20,29.2 h 6.6992 v -28.4 h 6.4024 v -4.8 h -6.0039 v -12.5 h -5.8946"
         style="fill:#c8e7f8;fill-opacity:1;fill-rule:nonzero;stroke:none"
         id="path342" /><path
         d="m 43.7031,2455.1 c 0,-11.9 3.6992,-18.7 9.293,-18.7 5.6016,0 9.4062,7.4 9.4062,19.1 0,11.7 -2.8984,18.6 -9.3007,18.6 -6.4024,0 -9.3985,-6.6 -9.3985,-19 z m 24.8946,0.7 c 0,-15.6 -5.8008,-24.2 -15.8985,-24.2 -10.1015,0 -15,8.4 -15.1992,23.5 -0.1992,15.1 6.6992,23.8 15.8984,23.8 9.1993,0 15.1993,-8.4 15.1993,-23.1"
         style="fill:#c8e7f8;fill-opacity:1;fill-rule:nonzero;stroke:none"
         id="path344" /><path
         d="M 29.3984,2708.6 H 12.0039 L 10,2696.9 c 1.2305,0.07 2.4648,0.07 3.7031,0 3.4961,0.08 6.9532,-0.78 10,-2.5 4.0039,-2.38 6.4102,-6.74 6.2969,-11.4 -0.082,-8.73 -7.2266,-15.73 -15.9531,-15.64 l -1.0508,0.04 c -3.90235,0.05 -7.72657,1.12 -11.09766,3.1 l 1.5,4.7 c 3.05078,-1.73 6.5,-2.62 9.99996,-2.6 5.5039,-0.5 10.3672,3.56 10.8594,9.06 l 0.043,0.94 c 0,5.9 -4.1016,10 -13.2031,10 -2.10942,-0.03 -4.21098,-0.2 -6.29692,-0.5 L 7.69922,2714 H 29.3984 v -5.4"
         style="fill:#c8e7f8;fill-opacity:1;fill-rule:nonzero;stroke:none"
         id="path346" /><path
         d="m 43.7031,2690.5 c 0,-11.9 3.6992,-18.7 9.293,-18.7 5.6016,0 9.4062,7.4 9.4062,19.1 0,11.7 -2.8984,18.6 -9.3007,18.6 -6.4024,0 -9.3985,-6.3 -9.3985,-19 z m 24.8946,1 c 0,-15.6 -5.8008,-24.1 -15.8985,-24.1 -10.1015,0 -15,8.3 -15.1992,23.4 -0.1992,15.1 6.6992,23.8 15.8984,23.8 9.1993,0 15.1993,-8.6 15.1993,-23.1"
         style="fill:#c8e7f8;fill-opacity:1;fill-rule:nonzero;stroke:none"
         id="path348" /><path
         d="m 26.5,2918.8 c 0.3906,5.12 -3.4492,9.59 -8.5703,9.98 l -0.9258,0.02 c -3.7578,-0.07 -7.15624,-2.23 -8.80468,-5.6 -0.51953,-0.83 -0.76953,-1.82 -0.69922,-2.8 0,-7.5 3.5,-13.1 10,-13.1 6.5,0 9,5 9,11.5 z m 1.6992,26.4 c -1.5312,0.19 -3.0703,0.19 -4.6015,0 -8.3789,-1.13 -14.92192,-7.8 -15.89848,-16.2 2.64458,3.37 6.71878,5.29 11.00388,5.2 7.4492,0.2 13.6485,-5.69 13.8438,-13.14 L 32.5,2919.5 c 0.4453,-8.44 -6.0391,-15.64 -14.4766,-16.08 l -0.7226,-0.02 c -10.00002,0 -16.20314,7.6 -16.20314,19.4 -0.257816,7.66 2.55078,15.11 7.80468,20.7 3.98826,3.79 9.12106,6.15 14.59766,6.7 1.5,0.12 3.0039,0.12 4.4961,0 l 0.2031,-5"
         style="fill:#c8e7f8;fill-opacity:1;fill-rule:nonzero;stroke:none"
         id="path350" /><path
         d="m 43.7031,2926.5 c 0,-11.9 3.6992,-18.7 9.293,-18.7 5.6016,0 9.4062,7.4 9.4062,19.1 0,11.7 -2.8984,18.7 -9.3007,18.7 -6.4024,0 -9.3985,-6.7 -9.3985,-19.1 z m 24.8946,0.7 c 0,-15.6 -5.8008,-24.1 -15.8985,-24.1 -10.1015,0 -15,8.3 -15.1992,23.5 -0.1992,15.2 6.6992,23.9 15.8984,23.9 9.1993,0 15.1993,-8.8 15.1993,-23.3"
         style="fill:#c8e7f8;fill-opacity:1;fill-rule:nonzero;stroke:none"
         id="path352" /><path
         d="m 288.199,1558.5 v 0 l -7,-3.7 -1,4.1 8.703,4.7 h 4.598 v -40 h -5.199 l -0.102,34.9"
         style="fill:#c8e7f8;fill-opacity:1;fill-rule:nonzero;stroke:none"
         id="path354" /><path
         d="m 639.301,1523.6 v 3.3 l 4.199,4.1 c 10,10 14.898,14.9 14.898,21 0.415,3.9 -2.414,7.4 -6.308,7.81 l -1.594,-0.01 c -3.133,-0.13 -6.133,-1.33 -8.492,-3.4 l -2.004,4.1 c 3.184,2.62 7.184,4.03 11.301,4 6.16,0.56 11.605,-3.98 12.16,-10.14 l 0.039,-1.46 c 0,-7.4 -5.301,-13.3 -13.699,-21.4 l -3.199,-3 h 17.902 v -4.5 l -25.203,-0.4"
         style="fill:#c8e7f8;fill-opacity:1;fill-rule:nonzero;stroke:none"
         id="path356" /><path
         d="m 1003.4,1529.8 c 2.7,-1.59 5.77,-2.44 8.9,-2.5 6.9,0 9.1,4.4 9,7.7 0,5.6 -5.1,8 -10,8 h -3 v 4.1 h 3 c 3.9,0 8.9,2 8.9,6.8 0,3.2 -2,6 -7,6 -2.88,-0.06 -5.67,-1 -8,-2.7 l -1.4,4 c 3.14,1.99 6.79,3.03 10.5,3 7.8,0 11.4,-4.6 11.4,-9.5 -0.11,-4.42 -3.13,-8.25 -7.4,-9.41 5.09,-0.55 8.93,-4.87 8.9,-10 0,-6.39 -5,-11.99 -14.5,-11.99 -3.51,0 -6.96,0.94 -10,2.7 l 0.7,3.8"
         style="fill:#c8e7f8;fill-opacity:1;fill-rule:nonzero;stroke:none"
         id="path358" /><path
         d="m 1381.7,1538.7 v 13.4 c 0,2.1 0,4.2 0,6.2 -1.2,-2.3 -2.2,-4 -3.3,-5.9 l -10,-13.5 z m 0,-15.1 v 10.9 h -18.5 v 3.6 l 17.8,25.5 h 5.8 v -24.9 h 5.6 v -4.2 h -5.6 v -10.9 h -5.1"
         style="fill:#c8e7f8;fill-opacity:1;fill-rule:nonzero;stroke:none"
         id="path360" /><path
         d="m 1751.7,1559 h -15.3 l -1.5,-10 h 3.2 c 3.01,0.07 5.99,-0.69 8.6,-2.2 3.64,-2 5.87,-5.85 5.8,-10 -0.15,-7.73 -6.54,-13.88 -14.27,-13.72 l -0.63,0.02 c -3.5,-0.11 -6.96,0.76 -10,2.5 l 1.4,4.1 c 2.6,-1.45 5.53,-2.21 8.5,-2.2 4.84,-0.39 9.09,3.22 9.47,8.07 l 0.03,0.63 c 0,5.1 -3.5,8.8 -11.5,8.8 -1.83,0.13 -3.67,0.13 -5.5,0 l 2.5,19.2 h 19.2 v -5.2"
         style="fill:#c8e7f8;fill-opacity:1;fill-rule:nonzero;stroke:none"
         id="path362" /><path
         d="m 106.199,3054.4 v -1.8 H 1938.1 V 1614.2 H 108 v 1440.2 h -1.801 v -1.8 1.8 h -1.797 V 1610.6 H 1941.7 V 3056.2 H 104.402 v -1.8 h 1.797"
         style="fill:#c8e7f8;fill-opacity:1;fill-rule:nonzero;stroke:none"
         id="path364" /><path
         d="m 106.199,1850.9 h 1833.7 v 3.6016 h -1833.7 z"
         style="fill:#c8e7f8;fill-opacity:1;fill-rule:nonzero;stroke:none"
         id="path366" /><path
         d="m 106.199,2091.2 h 1833.7 v 3.6016 h -1833.7 z"
         style="fill:#c8e7f8;fill-opacity:1;fill-rule:nonzero;stroke:none"
         id="path368" /><path
         d="m 106.199,2331.6 h 1833.7 v 3.5977 h -1833.7 z"
         style="fill:#c8e7f8;fill-opacity:1;fill-rule:nonzero;stroke:none"
         id="path370" /><path
         d="m 106.199,2571.8 h 1833.7 v 3.5977 h -1833.7 z"
         style="fill:#c8e7f8;fill-opacity:1;fill-rule:nonzero;stroke:none"
         id="path372" /><path
         d="m 106.199,2812.3 h 1833.7 v 3.5977 h -1833.7 z"
         style="fill:#c8e7f8;fill-opacity:1;fill-rule:nonzero;stroke:none"
         id="path374" /><path
         d="m 1571.4,1612.4 h 3.6016 v 1442 H 1571.4 Z"
         style="fill:#c8e7f8;fill-opacity:1;fill-rule:nonzero;stroke:none"
         id="path376" /><path
         d="m 1204.6,1612.4 h 3.5977 v 1442 H 1204.6 Z"
         style="fill:#c8e7f8;fill-opacity:1;fill-rule:nonzero;stroke:none"
         id="path378" /><path
         d="m 837.902,1612.4 h 3.60156 v 1442 H 837.902 Z"
         style="fill:#c8e7f8;fill-opacity:1;fill-rule:nonzero;stroke:none"
         id="path380" /><path
         d="m 471.102,1612.4 h 3.59766 v 1442 H 471.102 Z"
         style="fill:#c8e7f8;fill-opacity:1;fill-rule:nonzero;stroke:none"
         id="path382" /><path
         d="M 245.602,2225.9 H 333.5 v -613.5 h -87.898 v 613.5"
         style="fill:#3c54ad;fill-opacity:1;fill-rule:nonzero;stroke:none"
         id="path384" /><path
         d="m 612.004,2225.9 h 87.797 v -613.5 h -87.797 v 613.5"
         style="fill:#cae1f5;fill-opacity:1;fill-rule:nonzero;stroke:none"
         id="path386" /><path
         d="m 978.398,2225.9 h 87.902 v -613.5 h -87.902 v 613.5"
         style="fill:#8cb4e3;fill-opacity:1;fill-rule:nonzero;stroke:none"
         id="path388" /><path
         d="m 1344.9,2225.9 h 87.9 v -613.5 h -87.9 v 613.5"
         style="fill:#3c54ad;fill-opacity:1;fill-rule:nonzero;stroke:none"
         id="path390" /><path
         d="m 1711.2,2225.9 h 87.9 v -613.5 h -87.9 v 613.5"
         style="fill:#8cb4e3;fill-opacity:1;fill-rule:nonzero;stroke:none"
         id="path392" /><path
         d="M 245.602,2333.4 H 333.5 v -107.5 h -87.898 v 107.5"
         style="fill:#3c54ad;fill-opacity:1;fill-rule:nonzero;stroke:none"
         id="path394" /><path
         d="m 612.004,2698.9 h 87.797 v -473 h -87.797 v 473"
         style="fill:#cae1f5;fill-opacity:1;fill-rule:nonzero;stroke:none"
         id="path396" /><path
         d="m 1344.9,2641.7 h 87.9 v -415.9 h -87.9 v 415.9"
         style="fill:#3c54ad;fill-opacity:1;fill-rule:nonzero;stroke:none"
         id="path398" /><path
         d="m 1711.2,2997.6 h 87.9 v -771.7 h -87.9 v 771.7"
         style="fill:#8cb4e3;fill-opacity:1;fill-rule:nonzero;stroke:none"
         id="path400" /><path
         d="m 531.199,2573.6 c -0.054,-54.62 -44.379,-98.85 -98.996,-98.8 -54.625,0.06 -98.859,44.38 -98.805,99 0.059,54.58 44.321,98.8 98.903,98.8 54.562,0.05 98.844,-44.14 98.898,-98.7 v -0.3"
         style="fill:#cae1f5;fill-opacity:1;fill-rule:nonzero;stroke:none"
         id="path402" /><path
         d="m 413.398,2568.8 v 21 c 0,3.3 0,6.5 0,10 -1.898,-3.7 -3.496,-6.3 -5.199,-9.3 l -15.402,-21.3 z m 0,-23.8 v 17.1 h -29.199 v 5.6 l 28.004,40 h 9.199 v -39 H 430 v -6.7 h -8.801 v -17.1 l -7.801,0.1"
         style="fill:#f0fafa;fill-opacity:1;fill-rule:nonzero;stroke:none"
         id="path404" /><path
         d="M 474.199,2600.5 H 450 l -2.402,-16.1 c 1.504,0 2.8,0 5.101,0 4.746,0.12 9.442,-1.02 13.602,-3.3 5.726,-3.34 9.144,-9.57 8.898,-16.2 -0.133,-11.99 -9.957,-21.59 -21.937,-21.46 l -1.364,0.06 c -5.492,-0.16 -10.921,1.19 -15.699,3.9 l 2.102,6.4 c 4.148,-2.24 8.785,-3.44 13.5,-3.5 7.656,-0.55 14.312,5.21 14.863,12.87 l 0.035,0.83 c 0,8.1 -5.601,13.9 -18.101,13.9 -2.91,-0.03 -5.821,-0.26 -8.696,-0.7 l 4.098,30 h 30 l 0.199,-6.7"
         style="fill:#f0fafa;fill-opacity:1;fill-rule:nonzero;stroke:none"
         id="path406" /><path
         d="m 531.199,2569.2 h 80.8047 v 8.8008 H 531.199 Z"
         style="fill:#cae1f5;fill-opacity:1;fill-rule:nonzero;stroke:none"
         id="path408" /><path
         d="m 1631.7,2814.1 c 0.05,-54.62 -44.18,-98.95 -98.8,-99 -54.62,-0.05 -98.94,44.18 -99,98.8 -0.06,54.62 44.18,98.94 98.8,99 h 0.2 c 54.57,0 98.8,-44.24 98.8,-98.8"
         style="fill:#8cb4e3;fill-opacity:1;fill-rule:nonzero;stroke:none"
         id="path410" /><path
         d="m 1525.2,2840.5 h -24 l -2.4,-16.1 c 1.7,0.14 3.4,0.14 5.1,0 4.72,0.08 9.38,-1.09 13.5,-3.4 5.78,-3.25 9.26,-9.47 9,-16.1 -0.14,-12.04 -10,-21.69 -22.04,-21.56 l -1.36,0.06 c -5.45,-0.09 -10.83,1.25 -15.6,3.9 l 2.1,6.5 c 4.09,-2.3 8.71,-3.51 13.4,-3.5 7.6,-0.61 14.25,5.06 14.86,12.66 l 0.04,0.94 c 0,8.1 -5.5,13.9 -18,13.9 -2.91,-0.03 -5.82,-0.26 -8.7,-0.7 l 4,30 h 30 l 0.1,-6.6"
         style="fill:#f0fafa;fill-opacity:1;fill-rule:nonzero;stroke:none"
         id="path412" /><path
         d="m 1546.9,2832.7 c 0,-6.3 4.8,-10 12,-11.6 5.54,1.08 9.65,5.77 10,11.4 0.02,5.52 -4.45,10.01 -9.97,10.03 l -0.73,-0.03 c -5.48,0.72 -10.5,-3.12 -11.23,-8.6 l -0.07,-0.8 z m 23.4,-31.4 c 0,7.6 -5.3,11.3 -13.8,13.7 -6.36,-1.05 -11.1,-6.45 -11.3,-12.9 -0.24,-6.4 4.76,-11.79 11.16,-12.03 l 1.34,0.03 c 6.22,-0.56 11.7,4.03 12.26,10.25 l 0.04,1.35 z m -33.8,0 c 0.1,7.68 5.09,14.44 12.4,16.8 -5.87,2.25 -9.81,7.82 -10,14.1 0.38,9.66 8.52,17.18 18.18,16.79 l 1.22,-0.09 c 8.87,1.17 17.01,-5.08 18.17,-13.95 l 0.13,-1.45 c -0.05,-6.47 -4,-12.27 -10,-14.7 7.32,-2.05 12.46,-8.61 12.7,-16.2 -0.55,-10.7 -9.67,-18.93 -20.37,-18.38 l -1.03,0.08 c -13.5,0 -21.4,7.8 -21.4,17"
         style="fill:#f0fafa;fill-opacity:1;fill-rule:nonzero;stroke:none"
         id="path414" /><path
         d="m 1631.7,2809.7 h 80.8008 v 8.8008 H 1631.7 Z"
         style="fill:#69aae0;fill-opacity:1;fill-rule:nonzero;stroke:none"
         id="path416" /><path
         d="m 1175.5,1456.3 c -48.58,-0.63 -95.73,16.39 -132.7,47.9 -66.601,58 -95.499,161.1 -85.796,306.4 6.594,98.1 45.196,197.3 86.096,302.5 68.7,176.8 146.9,377.4 105.9,642.4 l 75.8,11.6 c 43.9,-285.3 -41.6,-505.2 -110,-681.8 -40,-103.8 -75.3,-193.5 -81,-280 -7.9,-117.8 12.5,-201.8 58.9,-242.8 28.08,-23.66 65.01,-34.05 101.3,-28.5 l 15.4,-75.1 c -11.19,-1.94 -22.54,-2.8 -33.9,-2.6"
         style="fill:#3e56af;fill-opacity:1;fill-rule:nonzero;stroke:none"
         id="path418" /><path
         d="M 1763,848.301 1837.6,734.5 1210.8,533.801 c 0,0 -41.9,40 111.9,120 179.1,94.097 440.3,194.5 440.3,194.5"
         style="fill:#8ec1dd;fill-opacity:1;fill-rule:nonzero;stroke:none"
         id="path420" /><path
         d="M 1874.2,848.301 1800,734.5 2426.8,533.801 c 0,0 41.9,40 -111.9,120 -179.5,94.097 -440.7,194.5 -440.7,194.5"
         style="fill:#8ec1dd;fill-opacity:1;fill-rule:nonzero;stroke:none"
         id="path422" /><path
         d="M 1753.1,1186.9 H 1884 V 720.602 H 1753.1 V 1186.9"
         style="fill:#8ec1dd;fill-opacity:1;fill-rule:nonzero;stroke:none"
         id="path424" /><path
         d="m 1754.5,824.402 63.9,-108.601 -536.5,-191.602 c 0,0 -35.8,38.199 95.8,114.903 153.3,89.5 376.8,185.3 376.8,185.3"
         style="fill:#b3daf4;fill-opacity:1;fill-rule:nonzero;stroke:none"
         id="path426" /><path
         d="m 1882.6,824.402 -63.8,-108.601 536.5,-191.602 c 0,0 35.8,38.199 -95.8,114.903 -153.3,89.5 -376.9,185.3 -376.9,185.3"
         style="fill:#b3daf4;fill-opacity:1;fill-rule:nonzero;stroke:none"
         id="path428" /><path
         d="m 1342.6,481.102 c 0,-25.133 -20.37,-45.5 -45.5,-45.5 -25.13,0 -45.5,20.367 -45.5,45.5 0,25.128 20.37,45.5 45.5,45.5 h 0.1 c 25.08,0 45.4,-20.332 45.4,-45.403 v -0.097"
         style="fill:#274fa6;fill-opacity:1;fill-rule:nonzero;stroke:none"
         id="path430" /><path
         d="m 2382.2,481.102 c 0,-25.133 -20.37,-45.5 -45.5,-45.5 -25.13,0 -45.5,20.367 -45.5,45.5 0,25.128 20.37,45.5 45.5,45.5 25.13,0 45.5,-20.372 45.5,-45.5"
         style="fill:#274fa6;fill-opacity:1;fill-rule:nonzero;stroke:none"
         id="path432" /><path
         d="m 1232.5,481.102 c 0.05,-25.18 -20.32,-45.653 -45.5,-45.704 -25.18,-0.058 -45.64,20.313 -45.7,45.5 -0.05,25.192 20.32,45.641 45.5,45.704 h 0.2 c 25.13,0 45.5,-20.372 45.5,-45.5"
         style="fill:#274fa6;fill-opacity:1;fill-rule:nonzero;stroke:none"
         id="path434" /><path
         d="m 2492.4,481.102 c 0,-25.133 -20.37,-45.5 -45.5,-45.5 -25.13,0 -45.5,20.367 -45.5,45.5 0,25.128 20.37,45.5 45.5,45.5 25.13,0 45.5,-20.372 45.5,-45.5"
         style="fill:#274fa6;fill-opacity:1;fill-rule:nonzero;stroke:none"
         id="path436" /><path
         d="m 1769,1357.7 h 95.8 V 1190 H 1769 v 167.7"
         style="fill:#3e56af;fill-opacity:1;fill-rule:nonzero;stroke:none"
         id="path438" /><path
         d="m 1936.7,1446.4 c 0,-51.6 -41.8,-93.45 -93.4,-93.5 h -52.7 c -51.6,0.05 -93.4,41.9 -93.4,93.5 0,51.53 41.77,93.3 93.3,93.3 h 0.1 52.7 c 51.54,0 93.35,-41.76 93.4,-93.3"
         style="fill:#3e56af;fill-opacity:1;fill-rule:nonzero;stroke:none"
         id="path440" /><path
         d="m 2528.9,1531.8 c 2.3,11 3.7,80 3.7,91.8 0,75.4 -48.8,136.5 -108.9,136.5 H 1210 c -60,0 -108.9,-61.1 -108.9,-136.5 0,-11.9 1.3,-80.8 3.6,-91.8 h 1424.2"
         style="fill:#9bc2ea;fill-opacity:1;fill-rule:nonzero;stroke:none"
         id="path442" /><path
         d="m 1090,1494.8 c 0,-23.1 13.5,-41.8 30,-41.8 h 1393.6 c 16.6,0 30,18.7 30,41.8 0,23.1 -13.6,41.8 -30,41.8 H 1120 c -16.6,0 -30,-18.7 -30,-41.8"
         style="fill:#3e56af;fill-opacity:1;fill-rule:nonzero;stroke:none"
         id="path444" /><path
         d="m 1158,2232.4 c 30,-2.2 220,-5.5 253,-5.9 208.1,-2.5 387.5,36.6 397.5,87.8 41.08,212.81 42.91,431.33 5.4,644.8 -8.9,51.3 -191,90 -403.5,87.8 -33.5,0 -227.6,-3.8 -258.1,-6.1 65.17,-265.3 67.12,-542.2 5.7,-808.4"
         style="fill:#9bc2ea;fill-opacity:1;fill-rule:nonzero;stroke:none"
         id="path446" /><path
         d="m 1129.4,3040.5 c -23.3,0 -40,-11.4 -36.3,-24.7 57.94,-249.51 60.16,-508.73 6.5,-759.2 -2.9,-13.4 13.2,-24.4 36,-24.7 22.8,0 43.9,10 46.8,23.8 54.3,250.95 52.6,510.79 -5,761 -3.1,13.5 -24.6,24.1 -48,23.8"
         style="fill:#3e56af;fill-opacity:1;fill-rule:nonzero;stroke:none"
         id="path448" /><path
         d="m 1120,2232.8 c 18.13,-2.12 36.35,-3.33 54.6,-3.6 45.4,-0.5 92.1,39.5 101.1,90 37.84,210.07 36.86,425.29 -2.9,635 -9.4,50 -57.3,90 -103.6,90 -18.58,-0.25 -37.14,-1.49 -55.6,-3.7 65.33,-265.02 67.52,-541.68 6.4,-807.7"
         style="fill:#7ea8de;fill-opacity:1;fill-rule:nonzero;stroke:none"
         id="path450" /><path
         d="m 2382.8,2840 c 0,0 1.4,-52.9 258.7,-53.2 257.3,-0.3 634.8,63.1 634.8,63.1 l -593.3,56 c 0,0 -227.9,10.6 -300.2,-65.9"
         style="fill:#e0c18d;fill-opacity:1;fill-rule:nonzero;stroke:none"
         id="path452" /><path
         d="m 3073.9,2831.1 c 122.3,-3.9 172.8,-66.8 220.7,-87.3 32.81,-14.89 64.67,-31.79 95.4,-50.6 -25.6,53.2 -65,55.9 -84.3,73.4 -19.3,17.5 -14.3,9 29.3,10.8 24.8,1 66.9,-43.9 97.5,-69.1 26.5,-21.8 43.4,-24 43.4,-24 -20.38,29.54 -43.66,56.98 -69.5,81.9 -36.51,34.12 -76.96,63.76 -120.5,88.3 -25.9,11 -107.6,16 -165.9,10.6 -66.1,-6.8 -134.2,-31.2 -46.1,-34"
         style="fill:#e0c18d;fill-opacity:1;fill-rule:nonzero;stroke:none"
         id="path454" /><path
         d="m 3279.2,2852.3 c 0,0 92.9,-26.8 108.9,-40 11.2,-8.9 57.4,-60.7 57.4,-60.7 -20.06,4.11 -38.76,13.18 -54.4,26.4 -19.7,19.9 -111.9,74.3 -111.9,74.3"
         style="fill:#e0c18d;fill-opacity:1;fill-rule:nonzero;stroke:none"
         id="path456" /><path
         d="m 2499.2,2947.8 c 0,0 -237.2,-6.7 -225.7,-147.6 6.4,-80 60,-110 131.2,-106.3 133.3,6.2 284.5,20 284.5,20 l 74.7,216.6 -264.7,17.3"
         style="fill:#dee9f8;fill-opacity:1;fill-rule:nonzero;stroke:none"
         id="path458" /><path
         d="m 2449,2930.5 -206.9,730 c 0,0 -30.5,107.1 -87.5,89.1 -82.2,-25.8 -44.9,-113.8 -40,-165.4 10.9,-105.2 0,-150 65.8,-405.3 40.8,-157.2 74.6,-337.8 111.4,-441.5 25.3,-71.5 76,27.9 148.5,53.6 135.7,48 8.7,139.5 8.7,139.5"
         style="fill:#dee9f8;fill-opacity:1;fill-rule:nonzero;stroke:none"
         id="path460" /><path
         d="m 2047.5,3896.4 c -35.6,-159 -196.2,-258.4 -358.5,-222 -162.3,36.4 -265.2,194.7 -230,353.8 35.2,159.1 196.6,258.4 359,222.3 162.4,-36.1 265.1,-195.1 229.5,-354.1"
         style="fill:#25221f;fill-opacity:1;fill-rule:nonzero;stroke:none"
         id="path462" /><path
         d="m 2324.9,4059.7 c -27.34,-122.07 -148.46,-198.86 -270.53,-171.51 l -0.07,0.01 -31.8,117.4 c -122.07,27.34 -198.86,148.46 -171.51,270.53 l 0.01,0.07 19,82.9 c 27.45,121.73 148.16,198.36 270,171.4 l 55.3,-12.4 c 122.08,-27.26 198.95,-148.32 171.7,-270.4 l -42.1,-188"
         style="fill:#25221f;fill-opacity:1;fill-rule:nonzero;stroke:none"
         id="path464" /><path
         d="m 2309.4,4404.6 c -4.95,-20.77 -11.4,-41.16 -19.3,-61 -54.1,-137.1 -164.6,-225.5 -261.8,-217.7 -16.18,-57.51 -39.71,-112.7 -70,-164.2 -30,-52.1 -109,-96.5 -109,-96.5 -38.2,-95.6 344.3,-415.7 360.7,-407.3 34.7,17.7 -27.5,247.6 -90,318.8 -29.4,33.4 -59.2,72.8 -60,95.3 -2.2,78.9 22.8,95.7 60.9,131.8 41.19,29.89 92.86,41.54 142.9,32.2 7.09,-1.63 14.54,-0.17 20.5,4 7.95,13.95 13.74,29.02 17.2,44.7 l 40.9,182.3 c 10.98,48.5 -1.21,99.36 -33,137.6"
         style="fill:#e9d5ae;fill-opacity:1;fill-rule:nonzero;stroke:none"
         id="path466" /><path
         d="m 1912.7,2370.5 c 0,0 98,-88.7 125.6,-96.6 36.9,-10.5 140,34.1 140,34.1 0,0 -28.5,460 -17.9,642.6 10.6,182.6 53.4,235.1 48.5,291.5 -7.9,90 65.2,136 43.6,204.7 -21.6,68.7 -75.8,315.3 -80,281.1 -31.9,-291.8 -143.7,-66.8 -166.1,-31.5 -11.6,19.8 -93.7,-1325.9 -93.7,-1325.9"
         style="fill:#9bc0e8;fill-opacity:1;fill-rule:nonzero;stroke:none"
         id="path468" /><path
         d="m 2117.5,3806.6 c 0,0 130,-95.1 127.9,-139 -2.1,-43.9 67,-173.7 39.1,-368.8 -31.8,-222.8 -43.6,-372.4 -37.1,-514.6 6.5,-142.2 72,-265.3 74.3,-440 1.7,-137.1 -30,-149.3 -30,-149.3 -38.79,-12.36 -81.24,-3.06 -111.3,24.4 -50.8,46.9 -41.8,516 -34.1,634.1 7.7,118.1 44.8,396 53.7,477.1 6.58,76.13 3.02,152.8 -10.6,228 -11.11,67.68 -29.38,133.98 -54.5,197.8 -2.5,6.4 -36.2,33.4 -38.3,38.3 -9.6,21.4 10.3,23.9 20.9,12"
         style="fill:#ffffff;fill-opacity:1;fill-rule:nonzero;stroke:none"
         id="path470" /><path
         d="m 1961.7,3495.7 c -37.3,-166 -204.9,-270 -374.5,-231.9 -169.6,38.1 -276.9,203.5 -240,369.5 36.9,166 204.9,270 374.4,231.9 169.5,-38.1 277.3,-203.4 240.1,-369.5"
         style="fill:#25221f;fill-opacity:1;fill-rule:nonzero;stroke:none"
         id="path472" /><path
         d="m 2609.2,796.5 -58.9,-451.301 254.4,-116.699 141.2,-29.801 -250.6,187.102 82,407.199 -168.1,3.5"
         style="fill:#e9d5ae;fill-opacity:1;fill-rule:nonzero;stroke:none"
         id="path474" /><path
         d="m 2533.7,277.199 55.2,-14.398 37,33.301 203.2,-98.602 180,-41.301 c 1.24,7.481 -0.1,15.172 -3.8,21.801 -22.7,28.5 -148.9,92.199 -148.9,92.199 0,0 -2,-41.801 -20,-43 -18,-1.199 -173.7,77.801 -210,100 -62,37.903 -73.6,61.403 -78.3,58.5 -11.9,-8 -14.4,-108.5 -14.4,-108.5"
         style="fill:#1a1915;fill-opacity:1;fill-rule:nonzero;stroke:none"
         id="path476" /><path
         d="m 3223.1,1424.2 202.1,-384.7 279.5,13.8 139,38.6 -308.6,50.5 -168.6,328.6 -143.4,-46.8"
         style="fill:#e9d5ae;fill-opacity:1;fill-rule:nonzero;stroke:none"
         id="path478" /><path
         d="m 3441.8,971.5 55.5,12.699 17.5,46.601 250.7,3.6 150,34 c -8.46,9.43 -18.3,17.53 -29.2,24 -33.4,13.5 -151.6,20 -151.6,20 0,0 12.4,-32.7 -3,-42.1 -15.4,-9.4 -187.6,-14.9 -230,-11.9 -72.5,4.9 -93.6,20.5 -96.5,15.7 -7.6,-12.3 36.6,-102.6 36.6,-102.6"
         style="fill:#1a1915;fill-opacity:1;fill-rule:nonzero;stroke:none"
         id="path480" /><path
         d="m 1746.7,2574.3 150.7,-65.6 65.6,-196.6 970,160 c 0,0 98.8,30.5 161.7,-125.6 89.5,-222.1 317.4,-912.6 317.4,-912.6 l -144.2,-150.8 -452.4,780 c 0,0 -926.9,-434.8 -1232.6,-340.9 -117.2,36 -206.8,243.1 -190,452.4 9.06,105.69 24.39,210.73 45.9,314.6 l 307.9,85.1"
         style="fill:#234465;fill-opacity:1;fill-rule:nonzero;stroke:none"
         id="path482" /><path
         d="M 1877.8,1727.1 2620,1780.5 2556.3,636 2775,629 2936.6,1969 c 0,0 -43.6,199.5 -185.3,169.4 -141.7,-30.1 -484.9,-292.4 -873.5,-411.3"
         style="fill:#1f3b57;fill-opacity:1;fill-rule:nonzero;stroke:none"
         id="path484" /><path
         d="m 1560.6,1483.3 c 0,0 334.2,466.1 404.9,715.4 84.5,297.5 30,651.3 37.4,771.5 13.7,221 10.6,647.2 13.6,700 3,52.8 -37.5,107.4 -37.5,107.4 0,0 -41.2,135.1 -116,125.1 -65.8,-8.7 -167.2,-100 -230.9,-142.7 -62.2,-41.5 -55.2,-820 -58.3,-859.3 -11.3,-141.4 -100.7,-278.8 -159.1,-417 -137.5,-325.7 -137.5,-690 -137.5,-690 0,0 54.2,-262.3 283.4,-310.4"
         style="fill:#ffffff;fill-opacity:1;fill-rule:nonzero;stroke:none"
         id="path486" /><path
         d="m 1784.7,2722.4 1058.2,128.1 -710,-17.8 c 0,0 -271.4,-18.3 -348.2,-110.3"
         style="fill:#e9d5ae;fill-opacity:1;fill-rule:nonzero;stroke:none"
         id="path488" /><path
         d="m 2605.2,2803.9 c 145.5,12 212.9,-49.2 272,-65 40.49,-11.61 80.26,-25.6 119.1,-41.9 -36.6,53.9 -83.8,51.6 -108.7,68.1 -24.9,16.5 -18,7.6 33.4,15.4 29.3,4.4 84.6,-38.5 123.9,-61.6 34,-20 54.3,-20 54.3,-20 -27.91,29.45 -58.77,55.96 -92.1,79.1 -47.91,32.26 -99.38,58.87 -153.4,79.3 -31.9,8.5 -129.4,3.5 -198,-10.6 -77.5,-16.2 -155.2,-51.4 -50.5,-42.8"
         style="fill:#e9d5ae;fill-opacity:1;fill-rule:nonzero;stroke:none"
         id="path490" /><path
         d="m 2846.1,2853.8 c 0,0 113.3,-16.6 133.8,-28.4 14.3,-8.1 75.2,-57.8 75.2,-57.8 0,0 -42,2.7 -67.6,21.3 -25.6,18.6 -141.4,64.9 -141.4,64.9"
         style="fill:#e9d5ae;fill-opacity:1;fill-rule:nonzero;stroke:none"
         id="path492" /><path
         d="m 2011.7,2707.4 -388.1,139.1 c 0,0 27,-224.9 36,-310 9,-85.1 -13.5,-211.5 58.5,-220 72,-8.5 107.9,4.4 40,-45.1 -67.9,-49.5 -44.9,-90 -13.4,-121.4 31.5,-31.4 -72,-382.4 -72,-382.4 0,0 10,-5.3 40.5,-22.6 95.8,151.6 214.8,323.6 251.9,454.5 48.4,168.3 51.5,355.6 46.6,507.9"
         style="fill:#dee9f8;fill-opacity:1;fill-rule:nonzero;stroke:none"
         id="path494" /><path
         d="m 1910,2854 -33.9,720.5 c 0,0 -38.9,151 -95.5,185.7 -67.1,41.1 -159.4,-35.1 -159.4,-35.1 0,0 -47.3,-112.5 -15.6,-643.8 21.2,-355.4 54,-539.4 222.5,-513.5 157.2,24.3 334.8,59.5 334.8,59.5 l 63.1,242.4 -316,-15.7"
         style="fill:#ffffff;fill-opacity:1;fill-rule:nonzero;stroke:none"
         id="path496" /><path
         d="m 2516.1,2674.9 -0.6,1.2 0.6,35.7 h 1480 v -35.7 -1.2 l -3.7,-6.6 c -19.1,-31 -53.2,-36.6 -92.2,-36.6 h -1288 c -39.1,0 -73.2,5.6 -92.3,36.6 l -3.8,6.6"
         style="fill:#d3e1e8;fill-opacity:1;fill-rule:nonzero;stroke:none"
         id="path498" /><path
         d="m 2872.8,2668.9 v -1 l -3.7,-5.3 c -5.61,-7.76 -13.03,-14.04 -21.6,-18.3 h -225.1 c -37.6,0 -70,4.5 -88.7,30 l -3.5,5.4 -0.2,0.8 v 17.6 h 342.9 l -0.1,-29.2"
         style="fill:#b6c2c8;fill-opacity:1;fill-rule:nonzero;stroke:none"
         id="path500" /><path
         d="M 3072.5,2703.6 H 3812 v -25.3 h -739.5 v 25.3"
         style="fill:#b6c2c8;fill-opacity:1;fill-rule:nonzero;stroke:none"
         id="path502" /><path
         d="m 2881,2713.2 191.9,727.3 c 5.68,19.75 23.27,33.73 43.8,34.8 h 1038.4 c 14.28,0.65 26.4,-10.4 27.06,-24.69 0.15,-3.44 -0.37,-6.88 -1.56,-10.11 L 3988.7,2713.4 2881,2713.2"
         style="fill:#d9e2e3;fill-opacity:1;fill-rule:nonzero;stroke:none"
         id="path504" /><path
         d="m 3468.1,3094.1 c -10,-37.1 12.5,-67.2 49.5,-67.2 39.74,2.03 73.86,28.99 85,67.2 10,37.2 -12.3,67.3 -49.5,67.3 -39.76,-2.07 -73.86,-29.07 -85,-67.3"
         style="fill:#b6c2c8;fill-opacity:1;fill-rule:nonzero;stroke:none"
         id="path506" /><path
         d="m 6421.3,133.602 h 151.5 L 6322.9,2554.1 h -219.6 l 318,-2420.498"
         style="fill:#9ed3f2;fill-opacity:1;fill-rule:nonzero;stroke:none"
         id="path508" /><path
         d="m 6117.9,2442.6 96.3,-733.1 114.3,790 -5.6,54.6 h -192 l -13,-111.5"
         style="fill:#8cbfdc;fill-opacity:1;fill-rule:nonzero;stroke:none"
         id="path510" /><path
         d="M 3761.5,133.602 H 3913 L 3663.1,2554.1 H 3443.4 L 3761.5,133.602"
         style="fill:#9ed3f2;fill-opacity:1;fill-rule:nonzero;stroke:none"
         id="path512" /><path
         d="m 3458.1,2442.6 96.3,-733.1 114.3,790 -5.6,54.6 h -192 l -13,-111.5"
         style="fill:#8cbfdc;fill-opacity:1;fill-rule:nonzero;stroke:none"
         id="path514" /><path
         d="M 2171.2,133.602 H 2019.7 L 2269.6,2554.1 h 219.7 L 2171.2,133.602"
         style="fill:#9ed3f2;fill-opacity:1;fill-rule:nonzero;stroke:none"
         id="path516" /><path
         d="m 2474.6,2442.6 -294,-747 83.4,803.9 5.6,54.6 h 192 l 13,-111.5"
         style="fill:#8cbfdc;fill-opacity:1;fill-rule:nonzero;stroke:none"
         id="path518" /><path
         d="M 2057.6,2632.7 H 3883.8 V 2491.2 H 2057.6 v 141.5"
         style="fill:#3e56af;fill-opacity:1;fill-rule:nonzero;stroke:none"
         id="path520" /><path
         d="M 3799.4,2632.7 H 6503.5 V 2491.2 H 3799.4 v 141.5"
         style="fill:#9bc2ea;fill-opacity:1;fill-rule:nonzero;stroke:none"
         id="path522" /><path
         d="m 1911.5,3948.8 c 0,0 99,-130 117,-252 18,-122 -31.5,-778.3 -31.5,-778.3 l -35.3,577.2 26.3,88.7 -45,8.9 c 0,0 -40.5,225 -72,261 -31.5,36 -36,49.4 -36,49.4 l 76.5,45.1"
         style="fill:#dee9f8;fill-opacity:1;fill-rule:nonzero;stroke:none"
         id="path524" /><path
         d="m 2073.5,3836.3 c 0,0 117,-251.9 121.5,-395.9 4.5,-144 -45,-508.4 -45,-508.4 0,0 67.4,481.4 85.5,481.4 18.1,0 -18.1,71.9 -18.1,71.9 l 27,22.5 c 0,0 -31.4,225 -80.9,279 -49.5,54 -90,49.5 -90,49.5"
         style="fill:#dee9f8;fill-opacity:1;fill-rule:nonzero;stroke:none"
         id="path526" /><path
         d="m 5023.4,315.199 -24.2,-126 h -128.5 c 0,0 -7.2,17.903 -18,17.903 -9.2,0 -21,-17.903 -33.4,-17.903 h -326.9 c 0,0 -5.8,26.5 1.3,35.602 3.5,4.801 25.2,12.898 39.4,16.898 66.4,18.699 256.4,76.903 289.4,140 40.2,77.5 200.9,-66.5 200.9,-66.5"
         style="fill:#1a1915;fill-opacity:1;fill-rule:nonzero;stroke:none"
         id="path528" /><path
         d="m 4986.7,1893.3 c 0,0 36.8,-205.7 67.3,-468.7 22.5,-193.1 23.1,-744.6 -12.5,-1127.698 -2.2,-23.402 -245.7,47.996 -245.7,47.996 0,0 -88.9,1072.102 -109.3,1312.202 -20.4,240.1 154,385.9 300.2,236.2"
         style="fill:#1f3b57;fill-opacity:1;fill-rule:nonzero;stroke:none"
         id="path530" /><path
         d="m 5397.2,542.398 c -10,11.704 -2.7,42.5 -2.7,42.5 0,0 169.2,18.903 223.6,6 21.23,-7.019 41.54,-16.546 60.5,-28.398 3.8,-2.199 10,-15.102 14.2,-17.301 6.8,-4.097 10,2.801 16.1,-0.797 9.07,-5.312 17.72,-11.293 25.89,-17.902 14.91,-77.602 -4.89,-108.898 -4.89,-108.898 0,0 -139.2,-43.301 -171,-14.5 -80.7,73 -140.5,113.597 -161.7,139.296"
         style="fill:#1a1915;fill-opacity:1;fill-rule:nonzero;stroke:none"
         id="path532" /><path
         d="m 5409.3,1713.6 c 0,0 -134.8,78.7 -100,-132.5 82.8,-510 159,-883.1 194.7,-1052.299 13.9,-65.801 35.1,-55.403 35.1,-55.403 l 154.9,-25.097 78.1,53.199 -145.1,1151.9 -217.7,60.2"
         style="fill:#1f3b57;fill-opacity:1;fill-rule:nonzero;stroke:none"
         id="path534" /><path
         d="m 4795.2,1680.5 c 20,-26.5 713.8,-377 745.9,-377 h 570 c 32,0 263.8,33.9 314.1,186.3 53.1,161 0,447.9 0,447.9 0.44,32.55 -25.46,59.34 -58,60 h -710 c -32,0 -96.6,-27 -96.6,-60 l -690,22.1 c 0,0 -226.4,-82.9 -75.4,-279.3"
         style="fill:#234465;fill-opacity:1;fill-rule:nonzero;stroke:none"
         id="path536" /><path
         d="m 6107.6,1510 h -652.7 c -6.9,0 -570,153.7 -576.6,155.5 l 67.9,-218.9 c 0,-33.4 562.8,-143 594.9,-143 h 570 c 32,0 263.8,33.9 314.1,186.3 16.2,49.1 22.5,110 23.4,171 -81.5,-122.3 -307.4,-150.9 -341,-150.9"
         style="fill:#1f3b57;fill-opacity:1;fill-rule:nonzero;stroke:none"
         id="path538" /><path
         d="m 5865.4,3566.6 -30.8,139.2 c 0,0 -108.5,-7.6 -130,45.6 -42.6,106.8 -7,277.4 18.7,325.2 73.6,136.1 104.6,374.5 446.7,184.9 130,-72.1 -70.8,-421.6 -85.8,-497.3 -15,-75.7 30,-162.8 30,-162.8 l -80,-54.6 -168.8,19.8"
         style="fill:#e9d5ae;fill-opacity:1;fill-rule:nonzero;stroke:none"
         id="path540" /><path
         d="m 5301.3,2610.5 586.5,-208.2 c 0,0 -691.6,-50 -694.2,-10 -14.6,221.8 107.7,218.2 107.7,218.2"
         style="fill:#e9d5ae;fill-opacity:1;fill-rule:nonzero;stroke:none"
         id="path542" /><path
         d="m 6476.7,3430.5 c 0,0 116.7,-55.2 200.6,-504.4 83.9,-449.2 30,-431.9 30,-431.9 l -15.3,-102.3 -218.1,-18.2 -117.8,387.7 120.6,669.1"
         style="fill:#395fb5;fill-opacity:1;fill-rule:nonzero;stroke:none"
         id="path544" /><path
         d="m 6483.9,3429.9 -287.3,118.8 -79.3,68.3 -305.3,6.7 -53.5,-80 -236.7,-93.6 c 0,0 -58.4,-83.6 -7.5,-394.3 56.2,-344.3 -1,-1234.9 -1,-1234.9 l 966.7,-14 c 0,0 -80,1455.9 3.9,1623"
         style="fill:#274fa6;fill-opacity:1;fill-rule:nonzero;stroke:none"
         id="path546" /><path
         d="m 5598,3449.3 c 0,0 -53.3,54.1 -183,-92.9 -221.2,-250.6 -328.3,-561.4 -351.2,-621.6 -22.9,-60.2 -48.7,-208.6 41.8,-308.6 69.2,-76.5 135.9,-48.1 135.9,-48.1 l 211.4,165.1 -68,34.4 -46.3,3.4 c 94.75,117.31 181.42,240.93 259.4,370 114.5,193.4 0,498.3 0,498.3"
         style="fill:#274fa6;fill-opacity:1;fill-rule:nonzero;stroke:none"
         id="path548" /><path
         d="m 5820,4036.6 c 0,0 38.7,21.6 44.7,-5.4 6,-27 -14.9,-86.7 -32.7,-92.2 -17.8,-5.5 -23.7,-78.5 -23.7,-78.5 l 47.5,-81.4 h 240.8 c 0,0 74.4,30 80,78.6 5.6,48.6 65.9,392.8 65.9,392.8 l -169.4,81.3 c -49.21,22.41 -99.9,41.42 -151.7,56.9 -95.8,25 -116,-21.6 -112.9,-46 3.1,-24.4 -26.8,-27.2 -65.5,-27.2 -38.7,0 -86.3,-27 -65.4,-43.3 8.6,-6.7 -30,-28.1 -14.6,-54 21.8,-37 94.8,-49 100.8,-108.6 2.7,-26.9 14.9,-116.3 56.2,-73"
         style="fill:#234465;fill-opacity:1;fill-rule:nonzero;stroke:none"
         id="path550" /><path
         d="m 5114.6,1087.8 c -2.3,10.9 -3.6,79.4 -3.6,91.1 0,74.9 48.3,135.5 108,135.5 h 1204.1 c 60,0 108.1,-60.6 108.1,-135.5 0,-11.7 -1.4,-80 -3.6,-91.1 h -1413"
         style="fill:#9bc2ea;fill-opacity:1;fill-rule:nonzero;stroke:none"
         id="path552" /><path
         d="m 6542.3,1051.1 c 0,-22.9 -13.4,-41.4 -30,-41.4 H 5130 c -16.5,0 -30,18.5 -30,41.4 0,22.9 13.4,41.5 30,41.5 h 1382.4 c 16.5,0 30,-18.6 30,-41.5 h -0.1"
         style="fill:#274fa6;fill-opacity:1;fill-rule:nonzero;stroke:none"
         id="path554" /><path
         d="M 5980,409.699 5906,296.801 6527.9,97.5 c 0,0 41.5,40 -111.1,120 C 6240,310 5980,409.699 5980,409.699"
         style="fill:#8ec1dd;fill-opacity:1;fill-rule:nonzero;stroke:none"
         id="path556" /><path
         d="M 5870,409.699 5944,296.801 5322,97.5 c 0,0 -41.5,40 111.1,120 177.7,92.5 436.9,192.199 436.9,192.199"
         style="fill:#8ec1dd;fill-opacity:1;fill-rule:nonzero;stroke:none"
         id="path558" /><path
         d="m 5860.2,745.602 h 129.9 V 282.898 h -129.9 v 462.704"
         style="fill:#8ec1dd;fill-opacity:1;fill-rule:nonzero;stroke:none"
         id="path560" /><path
         d="M 5988.7,385.898 5925.3,278.199 6457.6,88.1992 c 0,0 35.6,37.9028 -95,114.1018 -152.1,88.199 -373.9,183.597 -373.9,183.597"
         style="fill:#b3daf4;fill-opacity:1;fill-rule:nonzero;stroke:none"
         id="path562" /><path
         d="M 5861.6,385.898 5924.9,278.199 5392.5,88.1992 c 0,0 -35.5,37.9028 95.1,114.1018 152.4,88.199 374,183.597 374,183.597"
         style="fill:#b3daf4;fill-opacity:1;fill-rule:nonzero;stroke:none"
         id="path564" /><path
         d="M 6397.4,45.1992 C 6397.4,20.2422 6417.64,0 6442.6,0 c 24.96,0 45.2,20.2422 45.2,45.1992 0,24.9727 -20.24,45.1992 -45.2,45.1992 h -0.1 c -24.91,0 -45.1,-20.1875 -45.1,-45.0976 v -0.1016"
         style="fill:#274fa6;fill-opacity:1;fill-rule:nonzero;stroke:none"
         id="path566" /><path
         d="m 5365.8,45.1992 c 0.06,-24.957 20.33,-45.1601375 45.3,-45.097637 24.96,0.058593 45.16,20.339837 45.1,45.296837 -0.06,24.9219 -20.27,45.1016 -45.2,45.1016 -24.96,0 -45.2,-20.2305 -45.2,-45.1992 v -0.1016"
         style="fill:#274fa6;fill-opacity:1;fill-rule:nonzero;stroke:none"
         id="path568" /><path
         d="M 6506.7,45.1992 C 6506.7,20.2422 6526.93,0 6551.9,0 c 24.97,0 45.2,20.2422 45.2,45.1992 0,24.9727 -20.23,45.1992 -45.2,45.1992 h -0.1 c -24.91,0 -45.1,-20.1875 -45.1,-45.0976 v -0.1016"
         style="fill:#274fa6;fill-opacity:1;fill-rule:nonzero;stroke:none"
         id="path570" /><path
         d="M 5256.5,45.1992 C 5256.5,20.2422 5276.74,0 5301.7,0 c 24.96,0 45.2,20.2422 45.2,45.1992 0,24.961 -20.24,45.1992 -45.2,45.1992 -24.96,0 -45.2,-20.2265 -45.2,-45.1992"
         style="fill:#274fa6;fill-opacity:1;fill-rule:nonzero;stroke:none"
         id="path572" /><path
         d="m 5879.3,915.102 h 95 V 748.699 h -95 v 166.403"
         style="fill:#274fa6;fill-opacity:1;fill-rule:nonzero;stroke:none"
         id="path574" /><path
         d="m 5808,1003.1 c -0.05,-51.139 41.36,-92.651 92.5,-92.702 h 0.1 52.3 c 51.2,0 92.7,41.512 92.7,92.702 0,51.14 -41.46,92.6 -92.6,92.6 h -0.1 -52.3 c -51.09,0.05 -92.54,-41.31 -92.6,-92.4 v -0.2"
         style="fill:#274fa6;fill-opacity:1;fill-rule:nonzero;stroke:none"
         id="path576" /><path
         d="m 5310.9,1087.8 c -2.3,10.9 -3.6,79.4 -3.6,91.1 0,74.9 48.31,135.5 108,135.5 h 1204.1 c 60,0 108,-60.6 108,-135.5 0,-11.7 -1.3,-80 -3.5,-91.1 h -1413"
         style="fill:#7ea8de;fill-opacity:1;fill-rule:nonzero;stroke:none"
         id="path578" /><path
         d="m 6738.6,1051.1 c 0,-22.9 -13.4,-41.4 -30,-41.4 H 5326.1 c -16.5,0 -30,18.5 -30,41.4 0,22.9 13.5,41.5 30,41.5 h 1382.6 c 16.5,0 30,-18.6 30,-41.5 h -0.1"
         style="fill:#395fb5;fill-opacity:1;fill-rule:nonzero;stroke:none"
         id="path580" /><path
         d="m 6590,2032.5 c 0,-33.13 -26.87,-60 -60,-60 H 5392.2 c -34.88,1.17 -64.5,25.89 -71.9,60 -43.6,245.88 -43.6,497.52 0,743.4 7.37,34.13 37,58.86 71.9,60 H 6530 c 33.13,0 60,-26.86 60,-60 -2.33,-248.07 -2.33,-495.87 0,-743.4"
         style="fill:#9bc2ea;fill-opacity:1;fill-rule:nonzero;stroke:none"
         id="path582" /><path
         d="m 6655.9,2032.5 c 0,-33.13 -26.87,-60 -60,-60 H 5457.8 c -34.79,1.09 -64.28,25.91 -71.3,60 -41.5,246.03 -41.5,497.27 0,743.3 6.99,34.11 36.5,58.95 71.3,60 h 1137.7 c 33.13,0 60,-26.86 60,-60 l 0.4,-743.3"
         style="fill:#7ea8de;fill-opacity:1;fill-rule:nonzero;stroke:none"
         id="path584" /><path
         d="m 5619,1006.7 c 175.2,586.3 -158.9,1172.7 -15.3,1759.1 7.6,31 -11.7,56.2 -45.1,56.2 h -20 c -33.3,0 -68.1,-25.2 -75.7,-56.2 -143.6,-586.4 190,-1172.8 15.3,-1759.1 H 5619"
         style="fill:#395fb5;fill-opacity:1;fill-rule:nonzero;stroke:none"
         id="path586" /><path
         d="m 6615.5,1006.7 c 175.2,586.3 -158.9,1172.7 -15.2,1759.1 7.6,31 -11.8,56.2 -45.2,56.2 h -20 c -33.3,0 -68.1,-25.2 -75.71,-56.2 C 6315.9,2179.4 6649.9,1593 6474.7,1006.7 h 140.8"
         style="fill:#395fb5;fill-opacity:1;fill-rule:nonzero;stroke:none"
         id="path588" /></g></g></svg>
